<svg width="342" height="221" viewBox="0 0 342 221" fill="none" xmlns="http://www.w3.org/2000/svg">
<path d="M93.7905 183.314C60.2724 183.439 27.9897 161.114 17.9193 130.84C14.1756 119.422 13.9635 105.346 23.2602 97.2225C30.4855 90.9083 41.1798 90.0971 50.8259 88.5997C60.4721 87.1022 71.3287 83.3211 74.8726 74.6234C77.5057 68.097 75.1347 60.8967 74.5607 53.8711C73.1131 36.5879 84.3191 19.0177 101.141 12.1544C117.962 5.29104 139.151 9.65863 151.43 22.5243C156.309 27.6281 159.766 33.7552 164.234 39.1835C168.701 44.6118 174.616 49.5035 181.791 50.5018C194.195 52.2114 204.465 42.2408 215.484 36.6503C235.962 26.2929 264.039 32.3451 277.766 50.0651C283.444 57.4026 286.85 66.2875 293.714 72.6892C300.39 78.9286 309.612 81.9235 316.999 87.3268C333.671 99.5186 338.438 123.054 330.601 141.56C322.764 160.066 304.246 173.381 284.005 178.896C263.765 184.412 241.977 182.865 221.536 178.023C213.338 176.089 204.939 173.618 196.579 174.953C187.843 176.351 180.531 181.717 172.869 185.872C145.341 200.722 109.127 199.786 82.4972 183.551L93.7905 183.314Z" fill="#244AD3"/>
<path d="M171.159 221C254.785 221 322.577 217.771 322.577 213.787C322.577 209.804 254.785 206.575 171.159 206.575C87.5334 206.575 19.7412 209.804 19.7412 213.787C19.7412 217.771 87.5334 221 171.159 221Z" fill="#E9ECF2"/>
<path d="M20.1779 101.078C20.1779 101.228 20.1779 101.378 20.1779 101.528C19.6413 119.784 21.5132 133.973 24.6828 145.116L34.0918 150.969L26.3549 149.721H26.1303C30.3357 161.913 36.1134 169.787 41.629 174.853C44.4339 177.479 47.5977 179.694 51.0256 181.43L51.5497 181.679C51.9865 181.891 52.4107 182.078 52.7976 182.253L57.9763 182.515C57.9763 182.278 58.1136 182.041 58.176 181.804C58.2383 181.567 58.2633 181.492 58.3007 181.342L58.4505 180.743C64.5776 157.171 56.8657 138.315 46.7953 124.963C46.7662 124.914 46.7327 124.868 46.6954 124.826C43.4312 120.506 39.7897 116.484 35.8139 112.808L33.5178 118.636L33.1933 110.475C29.2372 107.011 24.9819 103.904 20.4774 101.191L20.1779 101.078Z" fill="#9AADE5"/>
<path d="M19.9907 101.103L20.1654 101.465L30.7974 123.715L30.9846 124.114L33.8797 130.179L33.9795 130.391L43.2263 149.733L43.2388 149.758L58.3007 181.292L58.5253 181.767L58.8872 182.515L59.3365 182.54L58.9746 181.791L58.4505 180.693L43.5882 149.584L43.3136 148.997L20.4774 101.191L20.3526 100.929L19.9907 101.103Z" fill="white"/>
<path d="M20.8641 121.221L20.666 121.509L33.8455 130.577L34.0436 130.289L20.8641 121.221Z" fill="white"/>
<path d="M20.7825 116.824L20.5845 117.112L30.9175 124.219L31.1155 123.931L20.7825 116.824Z" fill="white"/>
<path d="M46.4672 124.758L43.2234 149.768L43.5699 149.813L46.8137 124.803L46.4672 124.758Z" fill="white"/>
<path d="M60.0479 186.509C60.0479 186.509 47.7812 192.311 30.3233 181.904L35.9887 179.221L26.7419 179.583C19.9659 174.816 12.4786 167.553 4.69182 156.622L6.85065 155.599L4.04292 155.711C2.79504 153.839 1.42236 151.867 0.0996094 149.783C4.26221 149.525 8.43983 149.655 12.5784 150.17L16.3221 155.262L15.2489 150.532C30.236 152.803 52.049 160.665 60.0479 186.509Z" fill="#BAC8F3"/>
<path d="M0.195231 149.631L0 149.965L60.8786 185.554L61.0738 185.22L0.195231 149.631Z" fill="white"/>
<path d="M15.9414 159.008L7.22754 159.907L7.26468 160.267L15.9786 159.368L15.9414 159.008Z" fill="white"/>
<path d="M20.0827 161.371L9.92261 163.18L9.98607 163.537L20.1461 161.727L20.0827 161.371Z" fill="white"/>
<path d="M45.7096 164.134L46.0091 163.785C40.6122 159.08 34.3284 155.503 27.5279 153.265L27.3782 153.702C34.1244 155.919 40.3576 159.466 45.7096 164.134V164.134Z" fill="#2E4882"/>
<path d="M138.639 47.5444H61.333C59.1345 47.5444 57.3523 49.3267 57.3523 51.5252V208.808C57.3523 211.007 59.1345 212.789 61.333 212.789H138.639C140.838 212.789 142.62 211.007 142.62 208.808V51.5252C142.62 49.3267 140.838 47.5444 138.639 47.5444Z" fill="#446BD0"/>
<path d="M134.971 47.5444H57.6643C55.4658 47.5444 53.6836 49.3267 53.6836 51.5252V208.808C53.6836 211.007 55.4658 212.789 57.6643 212.789H134.971C137.169 212.789 138.951 211.007 138.951 208.808V51.5252C138.951 49.3267 137.169 47.5444 134.971 47.5444Z" fill="#A2C3F2"/>
<path d="M59.8979 67.1362V191.812C59.8609 192.992 60.2935 194.138 61.1006 194.999C61.9078 195.86 63.0236 196.365 64.2031 196.404H129.155C130.334 196.362 131.448 195.855 132.254 194.995C133.061 194.135 133.494 192.991 133.461 191.812V67.1362C133.494 65.9575 133.061 64.8133 132.254 63.953C131.448 63.0928 130.334 62.5863 129.155 62.5439H64.2655C63.6762 62.5552 63.0949 62.6834 62.5554 62.9209C62.0159 63.1585 61.5289 63.5007 61.1227 63.9279C60.7164 64.355 60.399 64.8586 60.1888 65.4093C59.9785 65.96 59.8797 66.547 59.8979 67.1362V67.1362Z" fill="#E1EAFF"/>
<path d="M57.9763 191.812V67.136C57.9529 65.6984 58.5008 64.3102 59.4998 63.2762C60.4988 62.2421 61.8672 61.6466 63.3048 61.6204H129.929C131.367 61.6466 132.735 62.2421 133.734 63.2762C134.733 64.3102 135.281 65.6984 135.258 67.136V191.812C135.281 193.25 134.733 194.638 133.734 195.672C132.735 196.706 131.367 197.301 129.929 197.328H63.3048C61.8672 197.301 60.4988 196.706 59.4998 195.672C58.5008 194.638 57.9529 193.25 57.9763 191.812V191.812ZM63.3048 63.4672C62.357 63.4934 61.4583 63.8942 60.8056 64.582C60.153 65.2697 59.7997 66.1882 59.8232 67.136V191.812C59.7996 192.761 60.1526 193.681 60.8049 194.37C61.4572 195.06 62.3559 195.464 63.3048 195.493H129.929C130.878 195.464 131.777 195.06 132.429 194.37C133.081 193.681 133.434 192.761 133.411 191.812V67.136C133.434 66.1882 133.081 65.2697 132.428 64.582C131.776 63.8942 130.877 63.4934 129.929 63.4672H63.3048Z" fill="white"/>
<path d="M134.983 213.101H71.9649V212.477H134.983C135.954 212.477 136.885 212.092 137.573 211.407C138.26 210.722 138.648 209.792 138.652 208.821V51.5876C138.652 50.6146 138.265 49.6814 137.577 48.9934C136.889 48.3054 135.956 47.9189 134.983 47.9189H57.6143V47.2949H134.983C136.12 47.2982 137.21 47.7515 138.015 48.5559C138.819 49.3602 139.272 50.4501 139.276 51.5876V208.821C139.272 209.957 138.819 211.046 138.014 211.848C137.209 212.651 136.119 213.101 134.983 213.101V213.101Z" fill="#3F5A9F"/>
<path d="M53.9955 57.103H53.3716V94.4896H53.9955V57.103Z" fill="#3F5A9F"/>
<path d="M181.379 38.8216C177.489 38.9342 173.72 40.1975 170.548 42.4519C167.376 44.7062 164.944 47.8504 163.559 51.487C162.173 55.1235 161.897 59.0892 162.765 62.8826C163.634 66.676 165.607 70.1269 168.436 72.7989C171.265 75.471 174.823 77.2443 178.66 77.8948C182.496 78.5452 186.44 78.0434 189.991 76.453C193.543 74.8626 196.543 72.2549 198.613 68.9595C200.683 65.6641 201.729 61.8291 201.62 57.9391C201.549 55.354 200.969 52.8083 199.912 50.4477C198.856 48.0871 197.345 45.958 195.465 44.1822C193.585 42.4065 191.373 41.0189 188.956 40.0991C186.539 39.1792 183.964 38.7451 181.379 38.8216V38.8216ZM197.776 58.039C197.865 61.1508 197.034 64.2197 195.388 66.8619C193.741 69.5041 191.353 71.6025 188.521 72.8948C185.689 74.1871 182.538 74.6159 179.464 74.1277C176.389 73.6394 173.527 72.2558 171.234 70.1497C168.942 68.0437 167.321 65.3086 166.574 62.2864C165.827 59.2641 165.988 56.0889 167.036 53.1574C168.084 50.226 169.972 47.6685 172.466 45.8046C174.959 43.9406 177.947 42.853 181.055 42.6775H181.492C185.611 42.5772 189.608 44.084 192.636 46.879C195.664 49.674 197.485 53.5378 197.714 57.6521C197.764 57.752 197.776 57.9017 197.776 58.039Z" fill="#FCC659"/>
<path d="M197.764 57.6147C197.764 57.752 197.764 57.9017 197.764 58.039C197.853 61.1508 197.022 64.2197 195.375 66.8619C193.729 69.5041 191.341 71.6025 188.509 72.8948C185.676 74.1871 182.526 74.6159 179.451 74.1277C176.377 73.6395 173.514 72.2558 171.222 70.1498C168.929 68.0437 167.308 65.3086 166.562 62.2864C165.815 59.2642 165.976 56.0889 167.024 53.1575C168.071 50.226 169.96 47.6685 172.454 45.8046C174.947 43.9406 177.934 42.853 181.043 42.6776H181.479C185.603 42.5603 189.611 44.0546 192.651 46.8434C195.692 49.6322 197.526 53.4959 197.764 57.6147V57.6147Z" fill="#F49B51"/>
<path d="M181.617 70.6425L181.454 67.6725C179.856 67.7502 178.268 67.3876 176.862 66.6243L177.461 64.6152C178.774 65.3592 180.272 65.7141 181.779 65.6385C183.875 65.5262 185.223 64.2409 185.123 62.5562C185.023 60.8716 183.875 59.9981 181.604 59.2368C178.534 58.2261 176.613 56.9782 176.45 54.4075C176.408 53.2043 176.813 52.028 177.588 51.106C178.362 50.1841 179.451 49.582 180.643 49.416L180.481 46.446L182.303 46.3337L182.465 49.2039C183.807 49.1337 185.144 49.4132 186.346 50.015L185.722 51.9991C184.568 51.4023 183.275 51.1265 181.978 51.2005C179.707 51.3377 178.934 52.7354 178.996 53.9084C179.083 55.4433 180.244 56.1546 182.839 57.0655C185.934 58.1387 187.556 59.5613 187.706 62.2068C187.753 63.4701 187.332 64.7063 186.524 65.6782C185.716 66.6501 184.577 67.2892 183.326 67.4729L183.501 70.5427L181.617 70.6425Z" fill="#FCC659"/>
<path d="M196.891 53.6589L196.766 53.2721C196.027 51.1662 194.847 49.2428 193.304 47.6307C191.76 46.0186 189.89 44.7553 187.819 43.9254L187.981 43.5261C190.108 44.3842 192.028 45.6863 193.611 47.3454C195.195 49.0046 196.407 50.9826 197.165 53.1473C197.165 53.297 197.253 53.4343 197.303 53.5591L196.891 53.6589Z" fill="#2E4882"/>
<path d="M187.818 43.963C184.444 42.6031 180.701 42.4662 177.236 43.5762L177.112 43.1644C180.67 42.0272 184.515 42.1684 187.981 43.5637L187.818 43.963Z" fill="#2E4882"/>
<path d="M196.279 65.8132L195.892 65.6136C196.842 63.7906 197.419 61.7968 197.589 59.7485H198.014C197.841 61.8647 197.252 63.9258 196.279 65.8132V65.8132Z" fill="#2E4882"/>
<path d="M193.921 43.1642C192.337 41.9198 190.569 40.9303 188.679 40.2317L188.829 39.8074C190.766 40.5216 192.58 41.5319 194.208 42.8023L193.921 43.1642Z" fill="#2E4882"/>
<path d="M193.945 74.3861L193.671 74.0117C197.715 70.9521 200.405 66.4352 201.17 61.4222C201.934 56.4091 200.712 51.2957 197.764 47.1698L198.138 46.8953C201.139 51.1207 202.379 56.3473 201.597 61.4704C200.814 66.5935 198.071 71.2116 193.945 74.3487V74.3861Z" fill="#2E4882"/>
<path d="M229.049 75.3347C225.772 75.0712 222.49 75.7855 219.619 77.3872C216.747 78.989 214.416 81.4062 212.919 84.3332C211.421 87.2602 210.826 90.5655 211.207 93.831C211.588 97.0965 212.929 100.176 215.061 102.679C217.192 105.182 220.018 106.997 223.181 107.894C226.344 108.791 229.702 108.73 232.83 107.719C235.959 106.707 238.717 104.791 240.756 102.212C242.795 99.6325 244.023 96.5066 244.285 93.2294C244.637 88.8361 243.229 84.4829 240.372 81.1272C237.515 77.7715 233.442 75.688 229.049 75.3347V75.3347ZM241.053 92.9673C240.77 96.5035 239.094 99.7824 236.393 102.083C233.693 104.383 230.189 105.517 226.653 105.234C224.015 105.022 221.499 104.033 219.424 102.392C217.348 100.75 215.806 98.5301 214.993 96.0121C214.179 93.4941 214.131 90.7914 214.854 88.2458C215.576 85.7003 217.038 83.4263 219.053 81.7114C221.651 79.4848 225.009 78.349 228.425 78.5418H228.799C232.271 78.8229 235.496 80.4468 237.789 83.0683C240.082 85.6899 241.262 89.1024 241.078 92.5805C241.077 92.7098 241.069 92.8389 241.053 92.9673V92.9673Z" fill="#FCC659"/>
<path d="M241.078 92.6055C241.078 92.7303 241.078 92.8426 241.078 92.9674C240.871 95.5927 239.894 98.0985 238.27 100.171C236.645 102.244 234.446 103.792 231.947 104.621C229.447 105.451 226.759 105.525 224.217 104.834C221.676 104.143 219.395 102.718 217.66 100.738C215.924 98.757 214.811 96.3086 214.46 93.6987C214.109 91.0888 214.535 88.4333 215.685 86.0644C216.835 83.6954 218.659 81.7183 220.927 80.3803C223.195 79.0423 225.807 78.4028 228.437 78.5419H228.811C232.285 78.826 235.511 80.4548 237.802 83.0815C240.093 85.7082 241.269 89.1253 241.078 92.6055Z" fill="#F49B51"/>
<path d="M226.341 102.077L226.465 99.5812C225.125 99.5226 223.829 99.0904 222.722 98.3333L223.408 96.6986C224.44 97.4461 225.667 97.8795 226.94 97.9464C227.294 98.014 227.658 98.0075 228.009 97.9273C228.361 97.847 228.692 97.6948 228.981 97.4802C229.271 97.2656 229.513 96.9934 229.692 96.6806C229.871 96.3678 229.983 96.0212 230.022 95.6628C230.097 94.2902 229.173 93.4042 227.364 92.5556C224.868 91.42 223.371 90.1971 223.495 88.0258C223.581 87.0231 224.033 86.087 224.765 85.3965C225.497 84.7059 226.458 84.3092 227.464 84.2821L227.588 81.7864L229.136 81.8612L229.011 84.2821C230.143 84.3478 231.239 84.7045 232.193 85.3179L231.494 86.9277C230.572 86.3184 229.503 85.9692 228.4 85.9169C226.478 85.817 225.704 86.9277 225.642 87.926C225.642 89.1738 226.465 89.9101 228.587 90.9209C231.082 92.1688 232.33 93.4166 232.193 95.6753C232.12 96.7415 231.655 97.743 230.888 98.4871C230.121 99.2312 229.106 99.6654 228.038 99.706L227.9 102.289L226.341 102.077Z" fill="#FCC659"/>
<path d="M240.716 89.236L240.641 88.8991C240.212 87.0659 239.396 85.3453 238.249 83.852C237.102 82.3587 235.65 81.1269 233.99 80.2388L234.152 79.9143C235.858 80.8242 237.351 82.0873 238.53 83.6194C239.709 85.1515 240.548 86.9173 240.991 88.7992C240.991 88.9365 240.991 89.0488 241.066 89.1611L240.716 89.236Z" fill="#2E4882"/>
<path d="M233.99 80.2388C231.277 78.8011 228.147 78.3595 225.142 78.9909L225.068 78.629C228.147 77.9686 231.361 78.4056 234.152 79.8644L233.99 80.2388Z" fill="#2E4882"/>
<path d="M239.094 99.344L238.794 99.1444C239.753 97.7004 240.415 96.0799 240.741 94.3774L241.103 94.4523C240.761 96.1991 240.079 97.8614 239.094 99.344Z" fill="#2E4882"/>
<path d="M239.181 80.1264C237.962 78.9388 236.564 77.9494 235.038 77.1939L235.213 76.8445C236.775 77.6208 238.206 78.6354 239.456 79.8519L239.181 80.1264Z" fill="#2E4882"/>
<path d="M236.349 106.332L236.149 105.995C239.834 103.805 242.517 100.262 243.627 96.1223C244.736 91.982 244.184 87.5721 242.089 83.8329L242.426 83.6458C244.576 87.4669 245.149 91.9765 244.023 96.2141C242.897 100.452 240.162 104.082 236.398 106.332H236.349Z" fill="#2E4882"/>
<path d="M216.594 82.3602C217.287 83.0579 217.726 83.9672 217.842 84.9434V84.9434C218.493 84.2113 219.373 83.7227 220.338 83.5582C219.642 82.8634 219.202 81.9526 219.09 80.9751V80.9751C218.433 81.6988 217.556 82.1856 216.594 82.3602V82.3602Z" fill="#FFE6A6"/>
<path d="M149.533 137.604C154.937 136.78 174.591 129.268 174.591 129.268C174.591 129.268 173.143 126.46 167.94 127.209C162.736 127.958 149.446 131.327 149.446 131.327L149.533 137.604Z" fill="#FCB47E"/>
<path d="M152.241 91.8191C148.16 91.6857 144.13 92.7654 140.662 94.9216C137.194 97.0778 134.443 100.214 132.757 103.933C131.071 107.652 130.525 111.788 131.189 115.817C131.853 119.847 133.696 123.589 136.486 126.571C139.276 129.553 142.888 131.641 146.864 132.571C150.841 133.5 155.004 133.23 158.827 131.795C162.65 130.359 165.961 127.823 168.343 124.505C170.725 121.188 172.07 117.239 172.207 113.158C172.389 107.681 170.388 102.355 166.643 98.3537C162.899 94.352 157.719 92.0014 152.241 91.8191V91.8191ZM168.164 113.033C168.049 116.292 166.977 119.444 165.083 122.098C163.188 124.752 160.554 126.789 157.509 127.956C154.465 129.123 151.144 129.368 147.961 128.66C144.778 127.953 141.874 126.324 139.61 123.977C137.347 121.63 135.824 118.668 135.232 115.462C134.64 112.255 135.005 108.946 136.281 105.945C137.558 102.945 139.689 100.386 142.409 98.5888C145.13 96.7914 148.319 95.8344 151.58 95.8373H152.042C156.368 95.9866 160.466 97.8168 163.465 100.939C166.464 104.061 168.127 108.23 168.102 112.559L168.164 113.033Z" fill="#FCC659"/>
<path d="M168.102 112.559V113.021C167.992 116.286 166.921 119.447 165.025 122.107C163.128 124.768 160.489 126.811 157.438 127.98C154.387 129.149 151.059 129.393 147.87 128.682C144.681 127.97 141.773 126.335 139.508 123.979C137.243 121.624 135.723 118.654 135.137 115.439C134.551 112.225 134.926 108.909 136.214 105.906C137.502 102.903 139.647 100.347 142.38 98.5561C145.113 96.7653 148.313 95.8196 151.58 95.8374H152.042C156.368 95.9867 160.466 97.8169 163.465 100.939C166.464 104.062 168.127 108.23 168.102 112.559V112.559Z" fill="#F49B51"/>
<path d="M150.357 125.162V122.043C148.682 122.023 147.045 121.539 145.628 120.645L146.389 118.574C147.709 119.443 149.251 119.915 150.831 119.934C153.04 119.934 154.575 118.686 154.575 116.926C154.575 115.167 153.39 114.169 151.106 113.183C147.949 111.935 146.015 110.487 146.027 107.792C146.045 106.522 146.539 105.306 147.409 104.382C148.28 103.458 149.465 102.894 150.732 102.8V99.6682H152.653V102.676C154.066 102.695 155.45 103.077 156.671 103.786L155.885 105.82C154.71 105.113 153.363 104.741 151.992 104.747C149.608 104.747 148.697 106.145 148.697 107.393C148.697 109.002 149.821 109.813 152.516 110.937C155.661 112.309 157.233 113.969 157.233 116.727C157.201 118.051 156.682 119.316 155.774 120.281C154.867 121.246 153.636 121.842 152.316 121.955V125.175L150.357 125.162Z" fill="#FCC659"/>
<path d="M167.453 108.404L167.341 108.004C166.705 105.753 165.597 103.663 164.091 101.873C162.585 100.083 160.715 98.6336 158.605 97.622L158.805 97.2227C160.974 98.2523 162.897 99.7336 164.447 101.567C165.997 103.401 167.136 105.545 167.79 107.855L167.915 108.291L167.453 108.404Z" fill="#2E4882"/>
<path d="M158.581 97.622C155.134 95.9856 151.224 95.6017 147.524 96.5363L147.412 96.0995C151.217 95.1406 155.237 95.5377 158.78 97.2226L158.581 97.622Z" fill="#2E4882"/>
<path d="M165.968 121.045L165.581 120.807C166.709 118.973 167.459 116.933 167.79 114.805L168.227 114.868C167.89 117.056 167.122 119.155 165.968 121.045Z" fill="#2E4882"/>
<path d="M165.02 97.185C163.439 95.7877 161.655 94.639 159.729 93.7783L159.916 93.3416C161.899 94.2137 163.734 95.3882 165.357 96.8231L165.02 97.185Z" fill="#2E4882"/>
<path d="M163.036 129.88L162.761 129.48C165.468 127.677 167.708 125.254 169.294 122.414C170.88 119.574 171.768 116.397 171.883 113.145C172.026 109.081 170.944 105.068 168.776 101.628L169.188 101.365C171.407 104.888 172.512 108.998 172.357 113.158C172.244 116.485 171.339 119.738 169.718 122.646C168.097 125.554 165.806 128.033 163.036 129.88Z" fill="#2E4882"/>
<path d="M156.921 126.872C156.921 126.872 156.434 121.132 148.186 120.77C141.797 120.471 139.688 117.026 134.459 116.465C130.873 116.318 127.304 117.033 124.052 118.549C122.396 119.175 120.669 119.595 118.91 119.797C115.863 120.068 112.802 119.448 110.1 118.012L110.188 135.682C110.188 135.682 123.64 134.534 126.41 135.183C129.18 135.832 142.346 141.547 147.761 140.724C153.177 139.9 172.819 132.375 172.819 132.375C172.819 132.375 171.571 129.081 166.417 129.88C161.264 130.678 156.596 132.275 155.024 132.375C154.011 132.403 153.002 132.234 152.054 131.876L139.575 126.673C145.335 127.336 151.148 127.403 156.921 126.872V126.872Z" fill="#FFC49C"/>
<path d="M87.1267 126.585C87.1267 131.128 87.3139 135.495 87.6633 139.563V139.663C88.9861 155.287 92.6548 166.493 96.8477 166.493C101.041 166.493 104.959 154.513 106.157 138.066V137.891L106.369 118.749V118.549C105.471 100.33 101.54 86.6157 96.8477 86.6157C92.1557 86.6157 88.437 99.6436 87.3513 117.126V117.214C87.2265 120.221 87.1267 123.353 87.1267 126.585Z" fill="#3F5A9F"/>
<path d="M107.854 142.433C105.982 159.242 101.29 170.398 95.9744 170.398C91.4446 170.398 87.364 162.487 85.0679 149.184L85.6544 149.11C87.8756 161.875 91.8938 169.799 95.9744 169.799C100.879 169.799 105.421 158.668 107.205 142.446L107.854 142.433Z" fill="#3F5A9F"/>
<path d="M83.4954 135.208C83.3332 132.4 83.2583 129.505 83.2583 126.585C83.2583 123.178 83.3706 119.734 83.6077 116.34V116.253C83.9033 111.826 84.4407 107.418 85.2175 103.05L85.804 103.137C85.0314 107.485 84.4982 111.872 84.2067 116.278V116.278C83.9821 119.659 83.8573 123.091 83.8573 126.485C83.8573 129.393 83.9446 132.288 84.1069 135.083L83.4954 135.208Z" fill="#3F5A9F"/>
<path d="M107.942 111.498H107.343C105.583 94.9015 100.991 83.2587 95.9745 83.2587C92.8547 83.2587 89.735 87.8509 87.4764 95.8374L86.9023 95.7251C89.2858 87.3518 92.5053 82.7346 95.9745 82.7346C98.9444 82.7346 101.702 86.029 103.948 92.2435C106.017 98.4866 107.356 104.948 107.942 111.498V111.498Z" fill="#3F5A9F"/>
<path d="M165.494 52.4112C166.994 53.1702 168.188 54.4213 168.876 55.9552V55.9552C169.577 54.4261 170.773 53.1777 172.27 52.4112V52.4112C170.773 51.6447 169.577 50.3963 168.876 48.8672V48.8672C168.178 50.3943 166.987 51.6424 165.494 52.4112Z" fill="#FFE6A6"/>
<path d="M170.872 61.6953C171.743 62.1386 172.439 62.8645 172.844 63.7543V63.7543C173.249 62.8645 173.944 62.1386 174.815 61.6953V61.6953C173.943 61.2472 173.248 60.5171 172.844 59.6238V59.6238C172.443 60.5193 171.747 61.2504 170.872 61.6953V61.6953Z" fill="#FFE6A6"/>
<path d="M110.125 121.706V135.707C110.125 135.707 112.334 135.52 115.117 135.345C114.98 132.101 114.418 123.965 112.422 120.146C112.035 119.198 111.174 119.921 110.125 121.706Z" fill="#FFA87D"/>
<path d="M150.32 127.521C146.759 127.492 143.202 127.279 139.663 126.885V126.273C143.842 126.749 148.048 126.945 152.254 126.86V127.484C151.655 127.509 151.01 127.521 150.32 127.521Z" fill="#2E4882"/>
<path d="M154.737 132.65C153.785 132.639 152.842 132.458 151.954 132.113L146.875 129.992L147.125 129.418L152.191 131.539C153.1 131.882 154.066 132.043 155.037 132.014C156.176 131.844 157.302 131.594 158.406 131.265C161.036 130.534 163.707 129.959 166.405 129.543C171.783 128.757 173.118 132.263 173.131 132.301L172.544 132.513C172.544 132.388 171.359 129.468 166.492 130.154C163.817 130.575 161.167 131.146 158.556 131.864C157.413 132.212 156.245 132.471 155.062 132.638L154.737 132.65Z" fill="#2E4882"/>
<path d="M120.37 120.882L120.033 120.371C122.485 118.899 125.12 117.757 127.87 116.976L128.045 117.575C125.356 118.346 122.777 119.457 120.37 120.882V120.882Z" fill="#2E4882"/>
<path d="M112.896 134.497C112.746 135.832 112.559 137.167 112.309 138.515L108.091 138.952L106.769 139.089L106.032 139.164L88.0254 141.011V140.911C87.6511 135.919 87.4639 130.603 87.4639 125.05C87.4639 121.307 87.5512 117.713 87.7134 114.219V113.62V113.557L106.195 115.267H106.843L108.266 115.392L112.309 115.804C113.457 121.968 113.655 128.272 112.896 134.497V134.497Z" fill="#6D92F0"/>
<path d="M112.895 134.497C112.746 135.832 112.534 137.167 112.284 138.515L107.904 138.952L106.768 139.064L105.77 139.164L88.0252 140.924H87.9378C87.9378 140.462 87.8505 139.975 87.8005 139.501V139.401C87.4387 135.321 87.2515 130.916 87.2515 126.348C87.2515 123.104 87.3513 119.947 87.5385 116.927V116.839C87.5385 115.966 87.6508 115.092 87.7132 114.231V113.632L89.6474 113.807C90.0093 117.9 91.2946 128.619 94.901 131.564C97.3968 133.611 102.675 134.235 106.856 134.397C110.163 134.534 112.796 134.397 112.796 134.397L112.895 134.497Z" fill="#647CE2"/>
<path d="M267.521 72.4395C267.082 72.1194 266.77 71.6549 266.64 71.1277C266.51 70.6005 266.57 70.0443 266.809 69.5569C267.446 68.309 269.592 67.8972 269.592 67.8972C268.943 68.7208 268.656 71.1292 268.007 71.9528L267.521 72.4395Z" fill="#374263"/>
<path d="M272.862 88.9116C272.862 88.9116 275.282 83.5208 272.537 79.5151L277.466 76.7947C278.509 81.9723 280.185 87.0017 282.458 91.7693C279.837 94.1028 273.286 94.0155 272.862 88.9116Z" fill="#FFC49C"/>
<path d="M272.537 79.5149C273.386 80.8385 273.82 82.3854 273.785 83.9574C275.559 82.4728 277.03 80.6592 278.115 78.6165L272.537 79.5149Z" fill="#374263"/>
<path d="M278.602 79.3777C277.716 80.5008 273.847 83.7203 271.189 83.3834C267.82 82.9466 265.799 70.7922 268.619 68.4837C270.129 67.2358 274.334 67.4604 276.705 70.2307C279.076 73.001 279.775 77.8927 278.602 79.3777Z" fill="#FFC49C"/>
<path d="M257.924 200.822C260.77 202.012 263.824 202.625 266.909 202.625C269.994 202.625 273.048 202.012 275.894 200.822L266.635 197.977L257.924 200.822Z" fill="#374263"/>
<path d="M303.946 196.092C303.946 196.092 298.144 203.392 286.601 201.458L286.788 194.27L303.946 196.092Z" fill="#374263"/>
<path d="M304.246 201.034L301.438 194.857L294.687 197.166L298.268 202.881C299.791 205.077 304.208 203.817 304.246 201.034Z" fill="#FFC49C"/>
<path d="M269.392 205.663L270.64 198.912H263.502L263.166 205.476C263.877 208.059 268.469 208.284 269.392 205.663Z" fill="#FFC49C"/>
<path d="M303.946 196.092C298.628 199.131 292.706 200.963 286.601 201.458C286.601 201.458 262.055 165.968 267.371 123.378H285.34C285.34 123.378 280.973 156.26 303.946 196.092Z" fill="#3F5A9F"/>
<path d="M272.574 171.521C274.959 178.83 277.952 185.926 281.522 192.735L287.349 152.653C286.381 147.853 285.706 142.998 285.328 138.116L283.493 131.003L272.574 171.521Z" fill="#314B87"/>
<path d="M257.712 200.909C263.675 201.721 269.72 201.721 275.682 200.909L285.553 142.67C288.284 139.533 290.121 135.718 290.869 131.627C291.219 129.559 291.189 127.444 290.781 125.387C290.657 124.759 290.499 124.139 290.307 123.528L289.683 123.441L282.321 122.417L280.586 122.18L267.121 120.308L257.712 200.909Z" fill="#3F5A9F"/>
<path d="M270.329 124.252C274.784 129.543 286.339 131.165 290.869 131.602C291.219 129.534 291.189 127.42 290.781 125.362L289.683 123.416L282.321 122.405L280.586 122.168L270.329 124.252Z" fill="#314B87"/>
<path d="M265.399 122.929C266.527 123.602 267.703 124.19 268.918 124.688C270.692 125.407 272.509 126.011 274.359 126.498C280.776 128.099 287.333 129.073 293.939 129.405C290.058 116.44 293.327 104.61 290.619 95.2633C289.292 91.2879 286.504 87.965 282.82 85.9666C280.811 87.3018 275.545 89.7102 273.323 87.6886C273.258 87.6261 273.179 87.5781 273.094 87.5477C273.008 87.5174 272.917 87.5053 272.826 87.5124C272.736 87.5194 272.648 87.5454 272.568 87.5887C272.488 87.632 272.418 87.6915 272.363 87.7635C263.091 99.8305 265.799 105.421 265.924 114.343C265.907 117.213 265.732 120.079 265.399 122.929V122.929Z" fill="#BAC8F3"/>
<path d="M285.52 142.541L278.325 187.264L278.793 187.339L285.989 142.616L285.52 142.541Z" fill="white"/>
<path d="M267.596 69.7564C267.171 68.4212 268.02 67.8597 268.981 66.8364C269.511 66.3833 270.146 66.0705 270.829 65.9266C271.511 65.7827 272.219 65.8123 272.887 66.0128C274.159 66.2299 275.339 66.8156 276.281 67.6974C277.891 69.3072 278.24 73.6623 275.42 73.7996C270.965 73.9992 268.294 72.0525 267.596 69.7564Z" fill="#374263"/>
<path d="M277.317 76.7074C276.705 74.8855 275.22 73.7749 274.097 72.2275L268.082 68.4839C269.177 67.1922 270.613 66.2345 272.226 65.7203C273.839 65.2061 275.564 65.1562 277.204 65.5763C280.436 66.7493 282.321 70.0812 284.03 75.0602C284.801 77.2457 286.084 79.2143 287.774 80.8005C296.409 88.9991 296.696 97.3973 291.443 100.692C290.101 101.619 288.497 102.089 286.867 102.033C285.238 101.977 283.67 101.397 282.395 100.38C276.605 96.2243 276.618 80.9128 277.317 76.7074Z" fill="#374263"/>
<path d="M271.751 74.9853C272.96 75.152 274.192 75.0497 275.357 74.6858L275.245 74.3488C273.541 74.8959 271.695 74.7891 270.066 74.0494C269.466 73.6759 268.956 73.1747 268.572 72.5815C268.189 71.9884 267.94 71.3178 267.845 70.6177L267.496 70.6926C267.603 71.4418 267.874 72.1584 268.288 72.7921C268.701 73.4259 269.249 73.9615 269.892 74.3613C270.467 74.6834 271.098 74.895 271.751 74.9853V74.9853Z" fill="#374263"/>
<path d="M275.22 75.4468C275.175 75.7534 275.221 76.0665 275.354 76.3467C275.486 76.627 275.698 76.8619 275.963 77.022C276.229 77.1821 276.536 77.2602 276.845 77.2465C277.155 77.2328 277.453 77.1279 277.704 76.9451C277.954 76.7622 278.144 76.5094 278.251 76.2186C278.358 75.9277 278.377 75.6117 278.305 75.3103C278.233 75.0089 278.073 74.7355 277.847 74.5244C277.62 74.3134 277.335 74.1741 277.03 74.124C276.824 74.0921 276.614 74.1009 276.412 74.1501C276.209 74.1993 276.019 74.2878 275.851 74.4106C275.683 74.5335 275.541 74.6882 275.432 74.866C275.324 75.0438 275.252 75.2411 275.22 75.4468Z" fill="#FFC49C"/>
<path d="M292.067 212.789H300.477C300.596 212.791 300.713 212.769 300.823 212.724C300.932 212.679 301.031 212.612 301.114 212.527L308.963 204.291C309.107 204.142 309.188 203.943 309.188 203.735C309.188 203.528 309.107 203.329 308.963 203.18L305.357 199.661C304.92 199.212 303.884 199.324 303.934 199.936C304.159 202.956 300.59 203.467 298.393 202.993C298.26 202.966 298.121 202.991 298.005 203.063C297.889 203.135 297.805 203.248 297.769 203.38C297.499 204.885 297.081 206.361 296.522 207.785C295.584 208.746 294.422 209.458 293.14 209.856C292.609 210.103 292.197 210.551 291.996 211.1C291.795 211.65 291.82 212.258 292.067 212.789V212.789Z" fill="#374263"/>
<path d="M299.067 207.698C298.666 207.803 298.241 207.782 297.853 207.637C297.464 207.491 297.13 207.229 296.896 206.886L297.17 206.712C297.366 207 297.647 207.219 297.973 207.34C298.3 207.461 298.656 207.477 298.992 207.386L299.067 207.698Z" fill="white"/>
<path d="M298.244 209.183C297.86 209.27 297.46 209.244 297.092 209.106C296.724 208.969 296.404 208.726 296.172 208.409L296.434 208.234C296.635 208.494 296.907 208.691 297.217 208.801C297.526 208.912 297.861 208.932 298.181 208.858L298.244 209.183Z" fill="white"/>
<path d="M302.998 203.854C302.223 204.156 301.395 204.296 300.565 204.266V203.941C300.565 203.941 303.759 204.129 304.371 201.882L304.683 201.97C304.568 202.393 304.356 202.784 304.063 203.111C303.771 203.438 303.406 203.693 302.998 203.854V203.854Z" fill="white"/>
<path d="M306.84 204.482L300.338 211.109L300.569 211.336L307.072 204.709L306.84 204.482Z" fill="white"/>
<path d="M270.79 212.727L252.446 212.789C252.294 212.793 252.142 212.765 252.002 212.706C251.861 212.648 251.734 212.561 251.629 212.45C251.525 212.339 251.444 212.208 251.394 212.064C251.343 211.921 251.323 211.768 251.336 211.616V211.616C251.336 211.479 251.336 211.341 251.336 211.192C251.376 210.748 251.521 210.32 251.76 209.944C252.621 208.796 254.256 208.259 257.313 207.049C258.779 206.445 260.183 205.701 261.506 204.827C261.615 204.749 261.749 204.714 261.882 204.728C262.015 204.742 262.139 204.804 262.23 204.902C265.873 208.434 268.095 207.673 268.756 206.15C269.255 205.04 270.004 205.264 270.179 205.589C270.821 207.362 271.195 209.221 271.289 211.104C271.289 211.267 271.289 211.416 271.289 211.541C271.289 211.666 271.289 211.99 271.289 211.99C271.315 212.153 271.278 212.321 271.186 212.457C271.093 212.594 270.951 212.69 270.79 212.727V212.727Z" fill="#374263"/>
<path d="M258.449 208.908C258.078 208.736 257.77 208.452 257.569 208.096C257.367 207.741 257.282 207.331 257.326 206.924H257.65C257.61 207.263 257.679 207.605 257.848 207.901C258.016 208.198 258.275 208.433 258.586 208.571L258.449 208.908Z" fill="white"/>
<path d="M256.839 209.457C256.497 209.28 256.214 209.008 256.024 208.673C255.834 208.339 255.744 207.957 255.766 207.573H256.078C256.062 207.895 256.139 208.215 256.301 208.493C256.462 208.772 256.701 208.999 256.989 209.145L256.839 209.457Z" fill="white"/>
<path d="M267.184 208.621C266.368 208.597 265.565 208.406 264.825 208.059L264.975 207.772C264.975 207.772 267.795 209.182 269.218 207.398L269.468 207.598C269.192 207.933 268.842 208.2 268.446 208.378C268.05 208.555 267.618 208.638 267.184 208.621V208.621Z" fill="white"/>
<path d="M269.179 211.302L258.485 211.341L258.486 211.666L269.181 211.626L269.179 211.302Z" fill="white"/>
<path d="M257.1 211.358L254.567 211.368L254.568 211.692L257.101 211.683L257.1 211.358Z" fill="white"/>
<path d="M268.918 124.688C270.692 125.407 272.509 126.011 274.359 126.498C277.017 123.528 282.87 118.15 283.419 105.646L268.918 124.688Z" fill="#9AADE5"/>
<path d="M263.028 127.796C280.424 123.852 283.419 105.646 283.419 105.646C283.419 105.646 280.549 97.6469 277.03 97.3349H276.93C276.095 97.2688 275.256 97.3713 274.461 97.6364C273.667 97.9015 272.934 98.3238 272.307 98.8781C271.679 99.4323 271.169 100.107 270.808 100.863C270.447 101.618 270.241 102.438 270.204 103.275C269.904 109.589 268.656 117.438 260.795 122.093L263.028 127.796Z" fill="#BAC8F3"/>
<path d="M260.919 122.292L260.67 121.856C267.908 117.575 268.893 110.625 269.779 104.473L269.967 103.225C270.279 101.078 271.377 95.8373 274.646 93.4788L274.933 93.8781C271.826 96.1243 270.765 101.216 270.453 103.3L270.266 104.547C269.418 110.512 268.369 117.9 260.919 122.292Z" fill="#2E4882"/>
<path d="M278.34 117.875L277.966 117.551C280.973 114.119 283.044 106.644 283.069 106.569L283.556 106.707C283.469 107.019 281.422 114.369 278.34 117.875Z" fill="#2E4882"/>
<path d="M273.398 131.964C273.261 131.964 269.767 130.117 269.318 126.972L269.817 126.897C270.229 129.805 273.56 131.514 273.623 131.539L273.398 131.964Z" fill="white"/>
<path d="M256.402 127.733C256.402 127.871 253.357 128.52 253.532 128.981C253.707 129.443 256.252 128.457 256.39 128.744C256.527 129.031 255.516 129.143 254.967 129.381C254.668 129.505 254.718 129.767 254.967 129.792C257.251 130.005 260.495 127.646 260.882 127.571C261.539 127.438 262.176 127.288 262.791 127.122L261.144 122.904C260.832 123.116 260.52 123.316 260.183 123.516C259.552 123.943 258.857 124.267 258.124 124.476C257.675 124.476 255.242 124.239 255.242 124.763C255.242 125.288 256.939 125.125 256.864 125.562C256.789 125.999 253.47 126.236 253.719 126.81C253.881 127.209 255.866 126.685 255.878 126.922C255.891 127.159 253.295 127.272 253.495 127.883C253.694 128.495 256.327 127.434 256.402 127.733Z" fill="#FFBB8D"/>
<path d="M206.362 160.378L201.133 181.168C201.114 181.22 201.114 181.278 201.133 181.33C201.146 181.354 201.164 181.376 201.185 181.393C201.207 181.41 201.231 181.423 201.258 181.43L207.497 183.002C207.525 183.014 207.555 183.021 207.585 183.021C207.615 183.021 207.645 183.014 207.672 183.002C207.698 182.987 207.72 182.965 207.736 182.939C207.751 182.913 207.759 182.883 207.759 182.852L210.892 161.501C210.897 161.449 210.883 161.397 210.853 161.353C210.824 161.31 210.78 161.278 210.729 161.264L206.586 160.216C206.536 160.214 206.487 160.229 206.446 160.258C206.405 160.288 206.376 160.33 206.362 160.378Z" fill="#5A77D1"/>
<path d="M206.125 161.202L194.332 158.244L195.468 153.727C195.659 153.042 195.984 152.402 196.424 151.843C196.863 151.284 197.409 150.817 198.029 150.469C198.649 150.121 199.332 149.899 200.038 149.816C200.744 149.732 201.46 149.789 202.144 149.983L203.105 150.22C204.51 150.565 205.735 151.424 206.537 152.629C206.928 153.207 207.194 153.862 207.316 154.55C207.439 155.238 207.415 155.943 207.248 156.622L206.125 161.202ZM196.603 156.884L204.765 158.93L205.438 156.235C205.536 155.809 205.544 155.367 205.462 154.937C205.381 154.508 205.211 154.1 204.964 153.739C204.421 152.927 203.593 152.348 202.643 152.117L201.695 151.88C200.8 151.607 199.833 151.699 199.005 152.136C198.177 152.573 197.556 153.32 197.277 154.213L196.603 156.884Z" fill="#374263"/>
<path d="M180.381 175.952C180.362 176.008 180.362 176.07 180.381 176.126C180.415 176.177 180.462 176.216 180.518 176.239L201.283 181.442C201.334 181.454 201.388 181.447 201.434 181.422C201.481 181.396 201.516 181.355 201.533 181.305L208.845 160.977C208.861 160.95 208.869 160.92 208.869 160.89C208.869 160.859 208.861 160.829 208.845 160.802C208.815 160.749 208.766 160.709 208.708 160.69L187.956 155.486C187.931 155.477 187.903 155.473 187.876 155.475C187.849 155.476 187.823 155.484 187.799 155.497C187.776 155.51 187.755 155.528 187.739 155.55C187.723 155.572 187.712 155.597 187.706 155.624L180.381 175.952Z" fill="#6D92F0"/>
<path d="M203.405 162.312L191.612 159.342L193.172 153.103C193.343 152.427 193.653 151.796 194.083 151.248C194.513 150.7 195.053 150.247 195.668 149.921C196.944 149.234 198.433 149.056 199.836 149.421L200.784 149.659C202.193 150.003 203.421 150.862 204.228 152.067C204.621 152.647 204.888 153.304 205.01 153.994C205.133 154.684 205.109 155.392 204.939 156.073L203.405 162.312ZM193.896 157.982L202.044 160.028L203.142 155.648C203.245 155.223 203.256 154.781 203.177 154.351C203.097 153.921 202.928 153.513 202.681 153.153C202.145 152.333 201.313 151.752 200.36 151.53L199.399 151.281C198.454 151.037 197.452 151.157 196.591 151.618C196.198 151.818 195.853 152.1 195.578 152.444C195.302 152.788 195.103 153.187 194.994 153.614L193.896 157.982Z" fill="#374263"/>
<path d="M230.758 133.336L219.814 168.152C219.798 168.205 219.804 168.262 219.83 168.311C219.855 168.36 219.899 168.397 219.951 168.414L228.337 171.06C228.394 171.079 228.455 171.079 228.512 171.06C228.538 171.046 228.561 171.027 228.578 171.003C228.596 170.979 228.607 170.952 228.612 170.923L236.76 135.246C236.772 135.193 236.763 135.137 236.735 135.091C236.707 135.045 236.663 135.011 236.611 134.996L231.033 133.224C231.007 133.212 230.98 133.206 230.952 133.206C230.923 133.206 230.896 133.212 230.87 133.224C230.823 133.25 230.784 133.289 230.758 133.336V133.336Z" fill="#7C94D1"/>
<path d="M229.111 132.825L228.574 132.662L230.059 127.92C230.49 126.549 230.358 125.062 229.694 123.787C229.029 122.512 227.886 121.553 226.515 121.119L225.367 120.758C223.994 120.328 222.506 120.461 221.23 121.128C219.955 121.795 218.997 122.941 218.566 124.314L217.131 129.044L216.594 128.869L218.079 124.139C218.562 122.629 219.62 121.369 221.024 120.633C221.721 120.267 222.484 120.043 223.268 119.975C224.052 119.906 224.842 119.994 225.592 120.233L226.74 120.595C228.244 121.08 229.497 122.137 230.228 123.538C230.959 124.939 231.109 126.572 230.646 128.083L229.111 132.825Z" fill="#3F5A9F"/>
<path d="M191.886 159.342C191.868 159.399 191.868 159.46 191.886 159.517C191.915 159.566 191.959 159.606 192.011 159.629V159.629L219.939 168.364C219.99 168.381 220.046 168.377 220.095 168.354C220.143 168.331 220.181 168.29 220.201 168.24L233.928 134.322C233.94 134.297 233.946 134.269 233.946 134.241C233.946 134.213 233.94 134.185 233.928 134.16C233.928 134.16 233.853 134.073 233.79 134.035L205.875 125.3C205.824 125.286 205.769 125.291 205.721 125.314C205.673 125.337 205.635 125.376 205.613 125.425L191.886 159.342Z" fill="#9AADE5"/>
<path d="M225.604 134.16L225.068 133.998L227.264 127.047C227.694 125.675 227.563 124.189 226.898 122.914C226.234 121.639 225.091 120.679 223.72 120.246L222.559 119.884C221.188 119.454 219.701 119.585 218.426 120.25C217.151 120.914 216.192 122.057 215.758 123.428L213.575 130.379L213.038 130.217L215.234 123.253C215.711 121.744 216.767 120.484 218.17 119.752C219.574 119.02 221.211 118.874 222.722 119.348L223.87 119.709C225.38 120.186 226.639 121.242 227.371 122.645C228.103 124.049 228.249 125.686 227.776 127.197L225.604 134.16Z" fill="#3F5A9F"/>
<path d="M196.391 136.93L200.971 157.87C200.982 157.925 201.013 157.974 201.058 158.007C201.111 158.025 201.168 158.025 201.221 158.007V158.007L207.46 156.634C207.516 156.617 207.564 156.582 207.597 156.534C207.61 156.507 207.616 156.477 207.616 156.447C207.616 156.417 207.61 156.387 207.597 156.36L200.909 135.882C200.894 135.83 200.86 135.785 200.814 135.758C200.767 135.73 200.712 135.721 200.659 135.732L196.491 136.643C196.443 136.672 196.407 136.716 196.389 136.769C196.371 136.821 196.372 136.878 196.391 136.93Z" fill="#F49B51"/>
<path d="M185.11 139.314L184.312 135.695C184.184 135.099 184.183 134.483 184.31 133.888C184.437 133.292 184.688 132.73 185.048 132.238C185.789 131.188 186.898 130.457 188.155 130.192L189.116 129.979C190.366 129.701 191.675 129.901 192.785 130.541C193.318 130.837 193.783 131.243 194.148 131.731C194.514 132.219 194.772 132.779 194.906 133.374L195.693 136.993L195.156 137.117L194.357 133.486C194.241 132.964 194.017 132.472 193.699 132.042C193.381 131.612 192.976 131.254 192.51 130.99C191.515 130.425 190.345 130.251 189.228 130.504L188.268 130.716C187.15 130.95 186.161 131.596 185.497 132.525C185.187 132.957 184.97 133.448 184.86 133.968C184.751 134.488 184.751 135.025 184.861 135.545L185.647 139.176L185.11 139.314Z" fill="#3F5A9F"/>
<path d="M180.057 162.424C180.07 162.489 180.105 162.546 180.157 162.587C180.209 162.606 180.266 162.606 180.319 162.587L201.221 158.007C201.247 158.004 201.272 157.996 201.296 157.983C201.319 157.97 201.339 157.952 201.355 157.931C201.371 157.91 201.383 157.886 201.39 157.861C201.397 157.835 201.399 157.809 201.395 157.782L198.9 136.381C198.898 136.349 198.89 136.318 198.875 136.29C198.859 136.262 198.838 136.238 198.812 136.219C198.756 136.199 198.694 136.199 198.638 136.219L177.748 140.786C177.694 140.801 177.647 140.833 177.615 140.879C177.583 140.925 177.569 140.98 177.573 141.036L180.057 162.424Z" fill="#FCC659"/>
<path d="M183.139 141.535L181.966 136.206C181.838 135.611 181.837 134.995 181.964 134.399C182.091 133.803 182.343 133.241 182.702 132.75C183.447 131.704 184.555 130.975 185.809 130.703L186.77 130.491C188.044 130.198 189.382 130.398 190.514 131.053C191.044 131.351 191.505 131.758 191.868 132.246C192.232 132.733 192.489 133.292 192.623 133.885L193.796 139.214L193.247 139.326L192.074 133.998C191.962 133.474 191.74 132.98 191.421 132.549C191.103 132.119 190.695 131.761 190.227 131.502C189.236 130.937 188.07 130.763 186.957 131.015L185.997 131.227C184.879 131.463 183.891 132.108 183.226 133.037C182.909 133.465 182.688 133.956 182.576 134.477C182.464 134.997 182.464 135.536 182.577 136.057L183.75 141.385L183.139 141.535Z" fill="#3F5A9F"/>
<path d="M225.043 200.522H173.281V199.873H225.043C225.546 199.875 226.038 199.725 226.455 199.442C226.871 199.159 227.192 198.757 227.376 198.288C227.588 197.802 227.651 197.263 227.555 196.74C227.46 196.218 227.211 195.736 226.84 195.356L217.967 183.501L218.491 183.114L227.326 194.944C227.78 195.413 228.083 196.007 228.197 196.65C228.31 197.293 228.229 197.955 227.963 198.551C227.728 199.133 227.325 199.632 226.805 199.984C226.284 200.335 225.671 200.523 225.043 200.522V200.522Z" fill="#3F5A9F"/>
<path d="M179.033 208.172C179.033 209.087 179.305 209.982 179.814 210.744C180.322 211.505 181.045 212.098 181.891 212.449C182.737 212.799 183.668 212.891 184.566 212.712C185.464 212.534 186.289 212.093 186.937 211.445C187.584 210.798 188.025 209.973 188.204 209.075C188.382 208.177 188.291 207.246 187.94 206.4C187.59 205.554 186.997 204.831 186.235 204.322C185.474 203.814 184.579 203.542 183.663 203.542C182.435 203.542 181.258 204.03 180.389 204.898C179.521 205.766 179.033 206.944 179.033 208.172V208.172Z" fill="#374263"/>
<path d="M179.37 200.647L182.166 208.783C182.271 209.107 182.477 209.389 182.752 209.588C183.028 209.788 183.36 209.895 183.701 209.894C183.879 209.896 184.056 209.866 184.225 209.807C184.635 209.667 184.973 209.371 185.165 208.983C185.357 208.594 185.387 208.146 185.248 207.735L182.827 200.647H179.37Z" fill="#6D92F0"/>
<path d="M182.552 208.259C182.536 208.414 182.552 208.571 182.6 208.719C182.648 208.867 182.727 209.004 182.831 209.119C182.935 209.235 183.062 209.328 183.205 209.391C183.347 209.455 183.501 209.487 183.657 209.487C183.813 209.487 183.967 209.455 184.109 209.391C184.251 209.328 184.378 209.235 184.483 209.119C184.587 209.004 184.665 208.867 184.713 208.719C184.761 208.571 184.778 208.414 184.761 208.259C184.732 207.987 184.603 207.734 184.399 207.551C184.195 207.368 183.931 207.266 183.657 207.266C183.383 207.266 183.118 207.368 182.914 207.551C182.71 207.734 182.581 207.987 182.552 208.259Z" fill="#374263"/>
<path d="M212.963 208.172C212.963 209.087 213.235 209.982 213.744 210.744C214.252 211.505 214.975 212.098 215.821 212.449C216.667 212.799 217.598 212.891 218.496 212.712C219.394 212.534 220.219 212.093 220.867 211.445C221.514 210.798 221.955 209.973 222.134 209.075C222.312 208.177 222.221 207.246 221.87 206.4C221.52 205.554 220.926 204.831 220.165 204.322C219.404 203.814 218.509 203.542 217.593 203.542C216.365 203.542 215.188 204.03 214.319 204.898C213.451 205.766 212.963 206.944 212.963 208.172V208.172Z" fill="#374263"/>
<path d="M213.312 200.647L216.095 208.783C216.203 209.108 216.411 209.39 216.689 209.59C216.967 209.789 217.301 209.896 217.643 209.894C217.821 209.894 217.998 209.865 218.167 209.807C218.575 209.665 218.91 209.368 219.099 208.979C219.289 208.591 219.317 208.144 219.178 207.735L216.757 200.647H213.312Z" fill="#6D92F0"/>
<path d="M216.482 208.259C216.466 208.414 216.482 208.571 216.53 208.719C216.578 208.867 216.657 209.004 216.761 209.119C216.865 209.235 216.992 209.328 217.135 209.391C217.277 209.455 217.431 209.487 217.587 209.487C217.742 209.487 217.896 209.455 218.039 209.391C218.181 209.328 218.308 209.235 218.413 209.119C218.517 209.004 218.595 208.867 218.643 208.719C218.691 208.571 218.708 208.414 218.691 208.259C218.662 207.987 218.533 207.734 218.329 207.551C218.125 207.368 217.861 207.266 217.587 207.266C217.313 207.266 217.048 207.368 216.844 207.551C216.64 207.734 216.511 207.987 216.482 208.259Z" fill="#374263"/>
<path d="M237.397 148.885L236.785 148.648L245.259 127.059L253.881 126.273L253.931 126.91L245.708 127.671L237.397 148.885Z" fill="#3F5A9F"/>
<path d="M220.014 183.601H219.814L174.703 181.966C173.108 181.841 171.613 181.138 170.499 179.989C169.385 178.841 168.728 177.325 168.651 175.727L166.467 148.86H166.792L239.793 142.621L225.866 179.346C225.438 180.566 224.649 181.626 223.604 182.386C222.558 183.146 221.306 183.57 220.014 183.601V183.601ZM167.216 149.384L169.337 175.59C169.39 177.042 169.972 178.426 170.974 179.478C171.977 180.531 173.33 181.181 174.778 181.305L219.901 182.927C221.089 182.936 222.248 182.569 223.214 181.878C224.18 181.188 224.903 180.21 225.28 179.084L238.869 143.207L167.216 149.384Z" fill="#3F5A9F"/>
<path d="M222.304 169.818L168.96 171.55L168.982 172.199L222.325 170.467L222.304 169.818Z" fill="#3F5A9F"/>
<path d="M229.974 156.302L168.365 159.994L168.403 160.642L230.013 156.949L229.974 156.302Z" fill="#3F5A9F"/>
<path d="M224.792 144.053L211.995 182.432L212.611 182.637L225.408 144.258L224.792 144.053Z" fill="#3F5A9F"/>
<path d="M179.839 148.484L179.19 148.53L181.546 182.185L182.195 182.139L179.839 148.484Z" fill="#3F5A9F"/>
<path d="M209.208 145.427L201.718 182.272L202.354 182.402L209.843 145.557L209.208 145.427Z" fill="#3F5A9F"/>
<path d="M193.767 146.553L191.625 182.303L192.272 182.342L194.415 146.592L193.767 146.553Z" fill="#3F5A9F"/>
<path d="M250.974 129.468L255.192 129.056C255.82 128.996 256.399 128.689 256.802 128.202C257.204 127.716 257.397 127.089 257.338 126.461V126.461C257.275 125.831 256.965 125.252 256.477 124.85C255.988 124.448 255.36 124.255 254.73 124.314L250.512 124.726C249.884 124.777 249.301 125.075 248.892 125.554C248.483 126.034 248.28 126.656 248.328 127.284V127.284C248.355 127.603 248.445 127.913 248.593 128.196C248.741 128.479 248.944 128.73 249.191 128.934C249.437 129.137 249.722 129.289 250.028 129.381C250.334 129.473 250.656 129.502 250.974 129.468V129.468Z" fill="#374263"/>
<path d="M81.2619 21.3012L80.8625 21.0641C85.5172 13.2898 93.0169 8.02372 104.46 4.47974L104.597 4.9165C93.2665 8.43552 85.8541 13.6392 81.2619 21.3012Z" fill="white"/>
<path d="M73.9741 24.9576L73.5498 24.7954C79.5521 8.29842 94.9759 3.0074 109.277 0L109.377 0.449238C95.2006 3.43168 79.8641 8.73518 73.9741 24.9576Z" fill="white"/>
<path d="M335.468 101.728C330.327 91.0956 324.075 84.4693 315.814 81.1125L315.988 80.6882C324.362 84.1449 330.688 90.7836 335.88 101.578L335.468 101.728Z" fill="white"/>
<path d="M341.445 106.981C336.454 93.4164 328.966 79.0658 311.945 75.6092L312.033 75.1599C329.266 78.6165 336.791 93.1294 341.919 106.831L341.445 106.981Z" fill="white"/>
<path d="M82.6345 215.21C82.6345 216.395 91.3697 217.369 102.126 217.369C112.883 217.369 121.606 216.395 121.606 215.21C121.612 215.189 121.612 215.168 121.606 215.147V209.32H82.647V215.135C82.647 215.135 82.6345 215.185 82.6345 215.21Z" fill="#F49B51"/>
<path d="M102.126 211.541C112.885 211.541 121.606 210.575 121.606 209.382C121.606 208.19 112.885 207.223 102.126 207.223C91.3682 207.223 82.647 208.19 82.647 209.382C82.647 210.575 91.3682 211.541 102.126 211.541Z" fill="#FCC659"/>
<path d="M78.0298 208.184C78.0298 209.37 86.765 210.343 97.5217 210.343C108.278 210.343 117.001 209.37 117.001 208.184C117.007 208.164 117.007 208.142 117.001 208.122V202.294H78.0423V208.109C78.0423 208.109 78.0298 208.159 78.0298 208.184Z" fill="#F49B51"/>
<path d="M97.5217 204.503C108.28 204.503 117.001 203.536 117.001 202.344C117.001 201.152 108.28 200.185 97.5217 200.185C86.7635 200.185 78.0422 201.152 78.0422 202.344C78.0422 203.536 86.7635 204.503 97.5217 204.503Z" fill="#FCC659"/>
<path d="M82.6345 201.159C82.6345 202.407 91.3697 203.317 102.126 203.317C112.883 203.317 121.606 202.344 121.606 201.159V195.331H82.647V201.146C82.647 201.146 82.6345 201.134 82.6345 201.159Z" fill="#F49B51"/>
<path d="M102.126 197.477C112.885 197.477 121.606 196.511 121.606 195.319C121.606 194.126 112.885 193.16 102.126 193.16C91.3682 193.16 82.647 194.126 82.647 195.319C82.647 196.511 91.3682 197.477 102.126 197.477Z" fill="#FCC659"/>
<path d="M102.126 217.593C110.05 217.593 121.83 216.957 121.83 215.21H121.381C121.381 215.884 114.767 217.132 102.126 217.132H100.754V217.593H102.126Z" fill="#2E4882"/>
<path d="M94.4021 217.419V216.957C92.4304 216.87 90.6584 216.732 89.0237 216.583V217.032C90.596 217.194 92.4179 217.331 94.4021 217.419Z" fill="#2E4882"/>
<path d="M109.813 210.056C117.138 209.382 117.138 208.459 117.138 208.159H116.677C116.677 208.384 115.429 209.083 109.776 209.595L109.813 210.056Z" fill="#2E4882"/>
<path d="M97.422 210.543C99.6057 210.543 101.765 210.543 103.811 210.43V209.969C100.142 210.106 96.0867 210.118 92.3181 209.969V210.43C93.9653 210.518 95.6874 210.543 97.422 210.543Z" fill="#2E4882"/>
<path d="M87.4513 210.243V209.781C85.3798 209.644 83.5704 209.469 82.0729 209.257L81.998 209.707C83.5329 209.919 85.3549 210.106 87.4513 210.243Z" fill="#2E4882"/>
<path d="M115.229 197.165C121.718 196.504 121.718 195.668 121.718 195.356H121.256C121.256 195.356 121.094 196.105 115.179 196.716L115.229 197.165Z" fill="#2E4882"/>
<path d="M102.002 197.727C104.248 197.727 106.432 197.727 108.516 197.602V197.14C106.444 197.228 104.26 197.265 102.027 197.265C98.0333 197.265 94.1899 197.14 90.9204 196.878V197.34C94.1399 197.59 97.9959 197.727 102.002 197.727Z" fill="#2E4882"/>
<path d="M75.7336 194.133C75.7336 195.381 84.4688 196.292 95.2131 196.292C105.957 196.292 114.705 195.319 114.705 194.133V188.306H75.7461V194.121C75.7417 194.125 75.7376 194.129 75.7336 194.133V194.133Z" fill="#F49B51"/>
<path d="M95.2131 190.452C105.971 190.452 114.693 189.485 114.693 188.293C114.693 187.101 105.971 186.134 95.2131 186.134C84.4549 186.134 75.7336 187.101 75.7336 188.293C75.7336 189.485 84.4549 190.452 95.2131 190.452Z" fill="#FCC659"/>
<path d="M95.2132 189.741C103.98 189.741 111.086 189.092 111.086 188.293C111.086 187.494 103.98 186.845 95.2132 186.845C86.4467 186.845 79.3401 187.494 79.3401 188.293C79.3401 189.092 86.4467 189.741 95.2132 189.741Z" fill="#F49B51"/>
<path d="M50.4516 180.668C46.5626 180.564 42.7298 181.614 39.4377 183.687C36.1455 185.76 33.5416 188.763 31.955 192.315C30.3684 195.867 29.8703 199.81 30.5236 203.645C31.1769 207.48 32.9524 211.036 35.6256 213.862C38.2988 216.689 41.7498 218.66 45.5427 219.526C49.3355 220.392 53.2999 220.114 56.935 218.728C60.5701 217.342 63.7128 214.909 65.966 211.738C68.2192 208.566 69.4817 204.798 69.5941 200.909C69.6673 198.323 69.23 195.747 68.3074 193.33C67.3848 190.913 65.9949 188.702 64.2172 186.822C62.4394 184.942 60.3087 183.431 57.9467 182.375C55.5848 181.319 53.0379 180.739 50.4516 180.668V180.668ZM65.7507 200.772C65.6746 203.885 64.6819 206.908 62.8968 209.46C61.1117 212.013 58.6135 213.982 55.7147 215.122C52.816 216.262 49.6455 216.521 46.5999 215.868C43.5543 215.215 40.769 213.679 38.5923 211.451C36.4157 209.223 34.9445 206.402 34.3628 203.342C33.781 200.282 34.1146 197.119 35.3218 194.247C36.529 191.376 38.5562 188.924 41.1497 187.199C43.7432 185.474 46.7878 184.553 49.9026 184.549H50.3518C54.4734 184.663 58.388 186.38 61.2636 189.334C64.1392 192.289 65.749 196.249 65.7507 200.372V200.772Z" fill="#FCC659"/>
<path d="M65.763 200.335C65.763 200.485 65.763 200.635 65.763 200.772C65.6869 203.886 64.6942 206.908 62.9091 209.46C61.124 212.013 58.6258 213.982 55.727 215.122C52.8283 216.262 49.6578 216.522 46.6122 215.869C43.5666 215.216 40.7813 213.679 38.6047 211.451C36.428 209.223 34.9568 206.402 34.3751 203.342C33.7933 200.282 34.1269 197.119 35.3341 194.248C36.5413 191.376 38.5685 188.925 41.162 187.2C43.7555 185.475 46.8001 184.553 49.9149 184.549H50.3641C54.4782 184.666 58.3855 186.378 61.2594 189.325C64.1333 192.271 65.7484 196.219 65.763 200.335V200.335Z" fill="#F49B51"/>
<path d="M48.9167 212.465V209.482C47.3254 209.485 45.7634 209.054 44.3994 208.234L45.1107 206.25C46.3755 207.065 47.8487 207.499 49.3535 207.498C51.4499 207.498 52.8725 206.25 52.8725 204.603C52.8725 202.956 51.712 201.982 49.5282 201.096C46.5208 199.911 44.6615 198.601 44.6615 195.98C44.6796 194.777 45.1465 193.623 45.9705 192.746C46.7946 191.869 47.9165 191.331 49.1164 191.238V188.256H50.9508V191.113C52.2952 191.126 53.614 191.483 54.7818 192.149L54.0455 194.096C52.9136 193.424 51.618 193.079 50.3019 193.097C48.0308 193.097 47.1822 194.445 47.1822 195.593C47.1822 197.128 48.2678 197.902 50.8385 198.962C53.8708 200.21 55.4057 201.733 55.4057 204.353C55.372 205.61 54.8803 206.811 54.0231 207.73C53.1659 208.649 52.0022 209.224 50.7511 209.345V212.415L48.9167 212.465Z" fill="#FCC659"/>
<path d="M65.1016 196.379C65.1016 196.254 65.0392 196.117 65.0018 195.992C64.3822 193.848 63.3111 191.862 61.8604 190.166C60.4098 188.47 58.6131 187.104 56.5911 186.159L56.7782 185.772C58.8482 186.742 60.6877 188.142 62.1745 189.879C63.6613 191.615 64.7613 193.648 65.4011 195.843L65.5259 196.267L65.1016 196.379Z" fill="#2E4882"/>
<path d="M56.5912 186.159C53.2957 184.621 49.568 184.277 46.0466 185.186L45.9468 184.774C49.5635 183.837 53.3939 184.19 56.7784 185.772L56.5912 186.159Z" fill="#2E4882"/>
<path d="M63.829 208.396L63.4546 208.172C64.4993 206.406 65.1822 204.451 65.4637 202.419L65.888 202.481C65.5958 204.569 64.8962 206.579 63.829 208.396V208.396Z" fill="#2E4882"/>
<path d="M62.7307 185.71C61.216 184.379 59.5023 183.292 57.6519 182.49L57.8266 182.066C59.7202 182.89 61.4754 184.001 63.0302 185.361L62.7307 185.71Z" fill="#2E4882"/>
<path d="M61.0211 216.87L60.7715 216.483C64.9755 213.651 67.9091 209.29 68.9484 204.329C69.9878 199.368 69.0509 194.197 66.337 189.915L66.7239 189.666C68.8854 193.01 69.9858 196.929 69.881 200.909C69.7795 204.082 68.9227 207.185 67.3819 209.961C65.841 212.737 63.6604 215.105 61.0211 216.87V216.87Z" fill="#2E4882"/>
<path d="M108.902 54.7571H87.4137C87.3111 54.7571 87.2127 54.7163 87.1402 54.6438C87.0676 54.5712 87.0269 54.4728 87.0269 54.3702C87.0269 54.2676 87.0676 54.1693 87.1402 54.0967C87.2127 54.0242 87.3111 53.9834 87.4137 53.9834H108.902C109.005 53.9834 109.103 54.0242 109.176 54.0967C109.248 54.1693 109.289 54.2676 109.289 54.3702C109.289 54.4728 109.248 54.5712 109.176 54.6438C109.103 54.7163 109.005 54.7571 108.902 54.7571V54.7571Z" fill="#2E4882"/>
<path d="M38.1475 189.204C39.6474 189.963 40.8412 191.214 41.5292 192.748C42.2281 191.214 43.424 189.961 44.9235 189.191V189.191C43.4307 188.423 42.2397 187.175 41.5417 185.647V185.647C40.8428 187.181 39.6469 188.434 38.1475 189.204V189.204Z" fill="#FFE6A6"/>
<path d="M57.5645 210.268C58.4324 210.712 59.1233 211.438 59.5236 212.327V212.327C59.9329 211.44 60.6268 210.716 61.4953 210.268V210.268C60.6236 209.819 59.9289 209.09 59.5236 208.197V208.197C59.1274 209.091 58.4357 209.823 57.5645 210.268V210.268Z" fill="#FFE6A6"/>
<path d="M36.7998 206.612C37.6682 207.059 38.3622 207.784 38.7715 208.671C39.1718 207.782 39.8627 207.056 40.7306 206.612C39.8594 206.167 39.1677 205.435 38.7715 204.541V204.541C38.3661 205.433 37.6715 206.163 36.7998 206.612V206.612Z" fill="#FFE6A6"/>
</svg>
