<svg width="325" height="208" viewBox="0 0 325 208" fill="none" xmlns="http://www.w3.org/2000/svg">
<g clip-path="url(#clip0_209_182)">
<path d="M298.542 201.493C298.542 205.081 237.335 208 161.738 208C86.1408 208 24.9333 205.081 24.9333 201.493C24.9333 197.905 86.1408 194.974 161.738 194.974C237.335 194.974 298.542 197.893 298.542 201.493Z" fill="#E9ECF2"/>
<path d="M71.451 181.81C47.7187 174.46 15.579 137.678 28.6404 101.819C36.0662 81.4209 59.3943 79.8979 77.7334 76.5058C103.21 71.7985 114.689 56.8227 131.561 38.4317C150.42 17.8256 193.242 -6.23034 231.122 25.8327C241.331 34.4628 242.947 51.1577 256.113 62.8799C269.278 74.6021 286.613 74.6714 294.385 98.0696C300.436 116.253 274.383 154.085 256.725 165.357C224.042 186.159 124.99 198.447 71.451 181.81Z" fill="#244AD3"/>
<path d="M309.097 102.777V103.181C308.716 119.668 306.349 132.406 302.965 142.259L294.2 147.093L301.233 146.378H301.441C297.075 157.177 291.463 163.996 286.277 168.299C283.623 170.53 280.663 172.371 277.489 173.768L276.992 173.976C276.6 174.149 276.207 174.299 275.838 174.426H271.149L271.01 173.768C271.01 173.63 270.941 173.491 270.918 173.353C270.895 173.214 270.837 172.995 270.802 172.81C266.391 151.27 274.267 134.679 283.956 123.072L284.06 122.956C287.211 119.227 290.69 115.787 294.454 112.676L296.244 118.041L296.925 110.692C300.662 107.764 304.645 105.166 308.832 102.927L309.097 102.777Z" fill="#9AADE5"/>
<path d="M309.259 102.858L309.098 103.181L298.45 122.737L298.253 123.083L295.355 128.425L295.262 128.598L286.012 145.605L285.989 145.628L270.918 173.341L270.687 173.756L270.329 174.414H269.925L270.271 173.756L270.803 172.799L285.677 145.443L285.954 144.936L308.82 102.916L308.947 102.685L309.259 102.858Z" fill="white"/>
<path d="M307.54 120.976L295.217 128.532L295.38 128.797L307.703 121.241L307.54 120.976Z" fill="white"/>
<path d="M307.818 117.019L298.161 122.936L298.324 123.202L307.981 117.285L307.818 117.019Z" fill="white"/>
<path d="M284.256 122.943L283.946 122.967L285.69 145.664L286.001 145.64L284.256 122.943Z" fill="white"/>
<path d="M269.082 177.968C269.082 177.968 279.88 183.736 296.129 175.21L291.14 172.522L299.466 173.295C305.841 169.314 312.932 163.119 320.45 153.681L318.544 152.654L321.073 152.885C322.344 151.262 323.622 149.543 324.908 147.728C321.174 147.301 317.408 147.223 313.659 147.497L310.021 151.904L311.176 147.693C297.584 148.985 277.524 155.042 269.082 177.968Z" fill="#BAC8F3"/>
<path d="M324.826 147.516L268.215 176.72L268.379 177.038L324.991 147.833L324.826 147.516Z" fill="white"/>
<path d="M310.188 155.247L310.137 155.577L317.964 156.799L318.016 156.468L310.188 155.247Z" fill="white"/>
<path d="M306.337 157.176L306.261 157.502L315.349 159.615L315.425 159.289L306.337 157.176Z" fill="white"/>
<path d="M283.079 158.469L282.824 158.146C287.917 154.153 293.761 151.222 300.009 149.528L300.124 149.92C293.929 151.608 288.134 154.514 283.079 158.469Z" fill="#2E4882"/>
<path d="M276.519 50.3733H206.662C204.678 50.3733 203.07 51.9798 203.07 53.9615V195.943C203.07 197.925 204.678 199.531 206.662 199.531H276.519C278.503 199.531 280.111 197.925 280.111 195.943V53.9615C280.111 51.9798 278.503 50.3733 276.519 50.3733Z" fill="#446BD0"/>
<path d="M273.193 50.3733H203.336C201.352 50.3733 199.744 51.9798 199.744 53.9615V195.943C199.744 197.925 201.352 199.531 203.336 199.531H273.193C275.177 199.531 276.785 197.925 276.785 195.943V53.9615C276.785 51.9798 275.177 50.3733 273.193 50.3733Z" fill="#A2C3F2"/>
<path d="M271.495 68.6833V181.221C271.526 182.285 271.134 183.319 270.405 184.095C269.676 184.871 268.668 185.327 267.603 185.363H208.914C207.85 185.327 206.843 184.871 206.116 184.094C205.388 183.317 204.999 182.284 205.033 181.221V68.6833C205.015 68.156 205.1 67.6302 205.285 67.1359C205.471 66.6417 205.751 66.1888 206.112 65.803C206.472 65.4172 206.905 65.1062 207.386 64.8878C207.867 64.6693 208.386 64.5477 208.914 64.5298H267.603C268.671 64.5659 269.68 65.0236 270.409 65.8023C271.139 66.581 271.53 67.6172 271.495 68.6833Z" fill="#E1EAFF"/>
<path d="M247.971 57.215H228.558C228.466 57.215 228.378 57.1785 228.313 57.1136C228.248 57.0487 228.211 56.9606 228.211 56.8688C228.211 56.777 228.248 56.689 228.313 56.6241C228.378 56.5592 228.466 56.5227 228.558 56.5227H247.971C248.063 56.5227 248.151 56.5592 248.216 56.6241C248.281 56.689 248.317 56.777 248.317 56.8688C248.317 56.9606 248.281 57.0487 248.216 57.1136C248.151 57.1785 248.063 57.215 247.971 57.215Z" fill="#2E4882"/>
<path d="M255.466 138.786H221.063C218.926 138.786 217.194 140.516 217.194 142.651V144.128C217.194 146.262 218.926 147.993 221.063 147.993H255.466C257.603 147.993 259.335 146.262 259.335 144.128V142.651C259.335 140.516 257.603 138.786 255.466 138.786Z" fill="#608BE2"/>
<path d="M268.354 186.194H208.163C207.52 186.184 206.885 186.047 206.295 185.791C205.705 185.535 205.171 185.166 204.724 184.704C204.277 184.243 203.925 183.697 203.689 183.1C203.453 182.502 203.337 181.864 203.347 181.221V68.6835C203.326 67.3849 203.821 66.1308 204.723 65.1964C205.626 64.2619 206.863 63.7235 208.163 63.6992H268.354C269.654 63.7235 270.891 64.2619 271.794 65.1964C272.697 66.1308 273.192 67.3849 273.17 68.6835V181.221C273.181 181.864 273.065 182.502 272.828 183.1C272.592 183.697 272.24 184.243 271.793 184.704C271.346 185.166 270.812 185.535 270.222 185.791C269.632 186.047 268.997 186.184 268.354 186.194ZM208.163 65.3606C207.304 65.3848 206.49 65.7481 205.899 66.371C205.308 66.9939 204.989 67.8255 205.01 68.6835V181.221C204.992 182.077 205.313 182.906 205.903 183.526C206.494 184.147 207.306 184.508 208.163 184.533H268.354C268.779 184.522 269.197 184.428 269.586 184.256C269.974 184.084 270.325 183.837 270.617 183.53C270.91 183.222 271.139 182.86 271.292 182.464C271.445 182.068 271.518 181.646 271.507 181.221V68.6835C271.529 67.8255 271.209 66.9939 270.618 66.371C270.027 65.7481 269.213 65.3848 268.354 65.3606H208.163Z" fill="white"/>
<path d="M210.473 124.202H266.102C267.25 124.202 268.181 123.273 268.181 122.126V86.359C268.181 85.2121 267.25 84.2823 266.102 84.2823H210.473C209.325 84.2823 208.394 85.2121 208.394 86.359V122.126C208.394 123.273 209.325 124.202 210.473 124.202Z" fill="#446BD0"/>
<path d="M223.442 108.673H213.429C213.117 108.673 212.863 108.926 212.863 109.238V111.153C212.863 111.466 213.117 111.719 213.429 111.719H223.442C223.754 111.719 224.008 111.466 224.008 111.153V109.238C224.008 108.926 223.754 108.673 223.442 108.673Z" fill="white"/>
<path d="M236.676 108.673H226.664C226.351 108.673 226.098 108.926 226.098 109.238V111.153C226.098 111.466 226.351 111.719 226.664 111.719H236.676C236.989 111.719 237.242 111.466 237.242 111.153V109.238C237.242 108.926 236.989 108.673 236.676 108.673Z" fill="white"/>
<path d="M249.911 108.673H239.898C239.586 108.673 239.333 108.926 239.333 109.238V111.153C239.333 111.466 239.586 111.719 239.898 111.719H249.911C250.224 111.719 250.477 111.466 250.477 111.153V109.238C250.477 108.926 250.224 108.673 249.911 108.673Z" fill="white"/>
<path d="M263.146 108.673H253.133C252.821 108.673 252.567 108.926 252.567 109.238V111.153C252.567 111.466 252.821 111.719 253.133 111.719H263.146C263.458 111.719 263.712 111.466 263.712 111.153V109.238C263.712 108.926 263.458 108.673 263.146 108.673Z" fill="white"/>
<path d="M263.03 114.638H249.842C249.465 114.638 249.16 114.942 249.16 115.318V117.003C249.16 117.379 249.465 117.684 249.842 117.684H263.03C263.407 117.684 263.712 117.379 263.712 117.003V115.318C263.712 114.942 263.407 114.638 263.03 114.638Z" fill="white"/>
<path d="M215.404 96.0623V92.0472C215.407 91.6269 215.576 91.2249 215.875 90.9288C216.173 90.6327 216.577 90.4665 216.998 90.4666H224.781C225.199 90.4696 225.599 90.6375 225.893 90.9336C226.187 91.2297 226.352 91.63 226.352 92.0472V96.0623C226.352 96.4815 226.185 96.8835 225.889 97.18C225.592 97.4764 225.19 97.6429 224.77 97.6429H216.998C216.577 97.6429 216.173 97.4768 215.875 97.1807C215.576 96.8846 215.407 96.4826 215.404 96.0623ZM216.998 90.8934C216.691 90.8934 216.398 91.015 216.181 91.2314C215.965 91.4477 215.843 91.7412 215.843 92.0472V96.0623C215.843 96.3683 215.965 96.6618 216.181 96.8781C216.398 97.0945 216.691 97.2161 216.998 97.2161H224.781C225.088 97.2161 225.382 97.0945 225.598 96.8781C225.815 96.6618 225.936 96.3683 225.936 96.0623V92.0472C225.936 91.7412 225.815 91.4477 225.598 91.2314C225.382 91.015 225.088 90.8934 224.781 90.8934H216.998Z" fill="white"/>
<path d="M261.864 93.4546C261.865 93.4028 261.886 93.3535 261.922 93.3161C262.758 92.4715 263.227 91.3314 263.227 90.1433C263.227 88.9552 262.758 87.815 261.922 86.9704C261.902 86.9531 261.886 86.9318 261.875 86.9079C261.865 86.8841 261.859 86.8582 261.859 86.832C261.859 86.8058 261.865 86.7799 261.875 86.756C261.886 86.7322 261.902 86.7109 261.922 86.6935C261.958 86.6603 262.005 86.6418 262.054 86.6418C262.104 86.6418 262.151 86.6603 262.187 86.6935C262.644 87.1471 263.006 87.6864 263.254 88.2804C263.501 88.8744 263.628 89.5115 263.628 90.1548C263.628 90.7982 263.501 91.4352 263.254 92.0292C263.006 92.6232 262.644 93.1625 262.187 93.6161C262.151 93.6493 262.104 93.6678 262.054 93.6678C262.005 93.6678 261.958 93.6493 261.922 93.6161C261.883 93.5711 261.863 93.5136 261.864 93.4546Z" fill="white"/>
<path d="M260.894 87.9858C260.895 87.934 260.916 87.8847 260.952 87.8473C260.99 87.8133 261.039 87.7944 261.09 87.7944C261.141 87.7944 261.191 87.8133 261.229 87.8473C261.537 88.1548 261.781 88.5199 261.948 88.9218C262.114 89.3237 262.2 89.7544 262.2 90.1895C262.2 90.6245 262.114 91.0552 261.948 91.4571C261.781 91.859 261.537 92.2241 261.229 92.5316C261.211 92.5512 261.19 92.567 261.166 92.5777C261.142 92.5885 261.116 92.5941 261.09 92.5941C261.064 92.5941 261.038 92.5885 261.014 92.5777C260.99 92.567 260.969 92.5512 260.952 92.5316C260.917 92.4935 260.899 92.4442 260.899 92.3931C260.899 92.3421 260.917 92.2928 260.952 92.2547C261.223 91.9836 261.439 91.6616 261.586 91.3073C261.733 90.9529 261.808 90.5731 261.808 90.1895C261.808 89.8058 261.733 89.426 261.586 89.0716C261.439 88.7173 261.223 88.3953 260.952 88.1242C260.918 88.0853 260.898 88.0369 260.894 87.9858Z" fill="white"/>
<path d="M259.97 91.3779C259.953 91.3333 259.953 91.2841 259.97 91.2395C260.248 90.9606 260.404 90.5831 260.404 90.1896C260.404 89.796 260.248 89.4185 259.97 89.1396C259.951 89.1234 259.935 89.1031 259.924 89.0802C259.914 89.0572 259.908 89.0322 259.908 89.0069C259.908 88.9816 259.914 88.9567 259.924 88.9337C259.935 88.9108 259.951 88.8905 259.97 88.8743C259.987 88.8546 260.009 88.8389 260.033 88.8281C260.056 88.8173 260.082 88.8118 260.109 88.8118C260.135 88.8118 260.161 88.8173 260.185 88.8281C260.208 88.8389 260.23 88.8546 260.247 88.8743C260.42 89.0468 260.558 89.2518 260.652 89.4775C260.745 89.7032 260.794 89.9452 260.794 90.1896C260.794 90.4339 260.745 90.6759 260.652 90.9016C260.558 91.1273 260.42 91.3323 260.247 91.5048C260.23 91.5245 260.208 91.5402 260.185 91.551C260.161 91.5618 260.135 91.5673 260.109 91.5673C260.082 91.5673 260.056 91.5618 260.033 91.551C260.009 91.5402 259.987 91.5245 259.97 91.5048C259.955 91.4639 259.955 91.4189 259.97 91.3779Z" fill="white"/>
<path d="M277.097 167.849H276.473V53.9615C276.473 53.0925 276.127 52.259 275.512 51.6445C274.897 51.03 274.063 50.6848 273.193 50.6848H203.336C202.466 50.6848 201.632 51.03 201.017 51.6445C200.402 52.259 200.056 53.0925 200.056 53.9615V151.512H199.432V53.9615C199.432 53.4494 199.533 52.9423 199.729 52.4691C199.926 51.996 200.213 51.5661 200.576 51.204C200.938 50.8418 201.368 50.5546 201.842 50.3586C202.316 50.1626 202.823 50.0618 203.336 50.0618H273.193C274.227 50.0648 275.219 50.4766 275.95 51.2073C276.681 51.938 277.093 52.9281 277.097 53.9615V167.849Z" fill="#2E4882"/>
<path d="M211.339 199.843H203.255C202.22 199.843 201.227 199.432 200.495 198.701C199.763 197.97 199.352 196.978 199.352 195.943V179.525H199.975V195.943C199.975 196.812 200.321 197.646 200.936 198.26C201.551 198.875 202.385 199.22 203.255 199.22H211.339V199.843Z" fill="#2E4882"/>
<path d="M243.236 199.22H235.799V199.843H243.236V199.22Z" fill="#2E4882"/>
<path d="M281.693 198.908C281.693 199.981 273.817 200.847 264.093 200.847C254.369 200.847 246.493 199.981 246.493 198.908V193.59H281.681V198.828C281.691 198.853 281.695 198.881 281.693 198.908Z" fill="#F49B51"/>
<path d="M281.693 193.636C281.693 194.709 273.817 195.586 264.093 195.586C254.369 195.586 246.493 194.709 246.493 193.636C246.493 192.563 254.369 191.698 264.093 191.698C273.817 191.698 281.693 192.563 281.693 193.636Z" fill="#FCC659"/>
<path d="M285.862 192.563C285.862 193.636 277.974 194.501 268.25 194.501C258.526 194.501 250.604 193.636 250.604 192.563V187.244H285.793V192.494C285.822 192.509 285.846 192.533 285.862 192.563Z" fill="#F49B51"/>
<path d="M285.85 187.29C285.85 188.363 277.974 189.24 268.25 189.24C258.526 189.24 250.604 188.363 250.604 187.29C250.604 186.217 258.48 185.352 268.204 185.352C277.928 185.352 285.85 186.217 285.85 187.29Z" fill="#FCC659"/>
<path d="M281.693 186.217C281.693 187.29 273.817 188.167 264.093 188.167C254.369 188.167 246.493 187.29 246.493 186.217V180.898H281.681V186.148C281.69 186.17 281.694 186.193 281.693 186.217Z" fill="#F49B51"/>
<path d="M264.093 182.906C273.813 182.906 281.693 182.033 281.693 180.956C281.693 179.879 273.813 179.006 264.093 179.006C254.372 179.006 246.493 179.879 246.493 180.956C246.493 182.033 254.372 182.906 264.093 182.906Z" fill="#FCC659"/>
<path d="M264.093 201.054C256.933 201.054 246.285 200.478 246.285 198.897H246.701C246.701 199.508 252.671 200.639 264.093 200.639H265.329V201.054H264.093Z" fill="#2E4882"/>
<path d="M271.068 200.893V200.477C272.847 200.397 274.533 200.281 275.919 200.131V200.547C274.51 200.754 272.858 200.812 271.068 200.893Z" fill="#2E4882"/>
<path d="M257.14 194.247C250.535 193.647 250.535 192.805 250.535 192.54H250.95C250.95 192.736 252.105 193.37 257.187 193.832L257.14 194.247Z" fill="#2E4882"/>
<path d="M268.343 194.686C266.368 194.686 264.416 194.686 262.568 194.582V194.167C265.883 194.293 269.498 194.305 272.962 194.167V194.582C271.472 194.663 269.913 194.686 268.343 194.686Z" fill="#2E4882"/>
<path d="M277.351 194.42V194.005C279.221 193.878 280.815 193.717 282.213 193.532L282.27 193.936C280.884 194.132 279.233 194.293 277.351 194.42Z" fill="#2E4882"/>
<path d="M252.255 182.606C246.389 182.006 246.389 181.256 246.389 180.968H246.804C246.804 180.968 246.955 181.648 252.302 182.191L252.255 182.606Z" fill="#2E4882"/>
<path d="M264.197 183.125C262.176 183.125 260.201 183.125 258.318 183.01V182.594C260.201 182.675 262.164 182.71 264.185 182.71C267.8 182.71 271.276 182.583 274.221 182.364V182.779C271.299 182.998 267.823 183.125 264.197 183.125Z" fill="#2E4882"/>
<path d="M287.941 179.871C287.941 180.944 280.053 181.821 270.329 181.821C260.605 181.821 252.729 180.944 252.729 179.871C252.723 179.852 252.723 179.832 252.729 179.814V174.564H287.917V179.802C287.917 179.802 287.941 179.848 287.941 179.871Z" fill="#F49B51"/>
<path d="M270.329 176.56C280.049 176.56 287.929 175.687 287.929 174.61C287.929 173.533 280.049 172.66 270.329 172.66C260.609 172.66 252.729 173.533 252.729 174.61C252.729 175.687 260.609 176.56 270.329 176.56Z" fill="#FCC659"/>
<path d="M270.329 175.914C278.251 175.914 284.672 175.33 284.672 174.61C284.672 173.89 278.251 173.306 270.329 173.306C262.407 173.306 255.986 173.89 255.986 174.61C255.986 175.33 262.407 175.914 270.329 175.914Z" fill="#F49B51"/>
<path d="M224.654 165.242C221.139 165.152 217.676 166.105 214.703 167.981C211.729 169.857 209.38 172.571 207.95 175.781C206.52 178.99 206.075 182.551 206.671 186.014C207.267 189.476 208.877 192.684 211.297 195.233C213.717 197.782 216.84 199.556 220.269 200.332C223.699 201.109 227.282 200.852 230.565 199.594C233.849 198.337 236.685 196.135 238.716 193.267C240.748 190.399 241.882 186.994 241.977 183.483C242.04 181.148 241.642 178.824 240.805 176.644C239.968 174.463 238.71 172.469 237.101 170.774C235.492 169.08 233.565 167.72 231.429 166.77C229.293 165.821 226.991 165.301 224.654 165.242ZM238.513 183.39C238.438 186.202 237.535 188.93 235.916 191.232C234.298 193.534 232.036 195.309 229.414 196.333C226.791 197.358 223.925 197.588 221.172 196.993C218.42 196.399 215.904 195.007 213.939 192.992C211.975 190.977 210.648 188.428 210.126 185.664C209.603 182.899 209.908 180.042 211.003 177.45C212.097 174.858 213.932 172.646 216.278 171.09C218.624 169.534 221.377 168.704 224.192 168.703H224.597C228.322 168.808 231.86 170.36 234.458 173.029C237.057 175.698 238.511 179.275 238.513 182.998V183.39Z" fill="#FCC659"/>
<path d="M238.478 182.998V183.448C238.403 186.26 237.5 188.988 235.881 191.29C234.263 193.592 232.001 195.366 229.379 196.391C226.757 197.416 223.89 197.645 221.138 197.051C218.385 196.457 215.87 195.065 213.905 193.05C211.94 191.035 210.613 188.486 210.091 185.721C209.569 182.957 209.874 180.1 210.968 177.508C212.062 174.916 213.897 172.704 216.243 171.148C218.589 169.592 221.342 168.762 224.158 168.761H224.562C228.277 168.866 231.807 170.409 234.403 173.066C237 175.723 238.461 179.285 238.478 182.998Z" fill="#F49B51"/>
<path d="M223.269 193.936V191.247C221.825 191.251 220.409 190.852 219.18 190.094L219.827 188.317C220.969 189.059 222.299 189.459 223.661 189.471C225.555 189.471 226.837 188.375 226.837 186.863C226.837 185.352 225.798 184.486 223.823 183.69C221.109 182.617 219.423 181.383 219.423 179.075C219.44 177.988 219.863 176.947 220.608 176.155C221.354 175.363 222.368 174.878 223.453 174.795V172.095H225.105V174.679C226.32 174.693 227.512 175.014 228.569 175.614L227.9 177.379C226.889 176.771 225.73 176.456 224.551 176.468C222.495 176.468 221.721 177.691 221.721 178.775C221.721 180.16 222.703 180.852 225.024 181.81C227.773 182.963 229.158 184.313 229.158 186.679C229.143 187.822 228.703 188.918 227.924 189.756C227.145 190.594 226.083 191.113 224.943 191.213V193.982L223.269 193.936Z" fill="#FCC659"/>
<path d="M237.901 179.421L237.797 179.075C237.239 177.14 236.272 175.346 234.961 173.815C233.65 172.285 232.026 171.053 230.198 170.203L230.371 169.845C232.243 170.722 233.907 171.988 235.251 173.557C236.595 175.127 237.589 176.965 238.166 178.948L238.27 179.329L237.901 179.421Z" fill="#2E4882"/>
<path d="M230.198 170.203C227.226 168.806 223.858 168.496 220.682 169.326L220.578 168.945C223.848 168.101 227.31 168.419 230.371 169.845L230.198 170.203Z" fill="#2E4882"/>
<path d="M236.746 190.371L236.411 190.174C237.362 188.58 237.983 186.81 238.236 184.971H238.617C238.36 186.877 237.724 188.713 236.746 190.371Z" fill="#2E4882"/>
<path d="M235.741 169.787C234.362 168.585 232.803 167.604 231.122 166.88L231.283 166.499C232.993 167.245 234.579 168.249 235.984 169.476L235.741 169.787Z" fill="#2E4882"/>
<path d="M234.205 197.916L233.974 197.57C237.783 195.022 240.445 191.089 241.394 186.609C242.343 182.128 241.504 177.455 239.055 173.583L239.402 173.364C241.333 176.383 242.307 179.914 242.197 183.494C242.111 186.36 241.341 189.164 239.951 191.673C238.561 194.182 236.591 196.322 234.205 197.916Z" fill="#2E4882"/>
<path d="M268.389 94.0432H267.927V86.1399C267.936 85.645 267.75 85.1664 267.408 84.8079C267.067 84.4493 266.597 84.2398 266.102 84.2247H230.671V83.8093H266.102C266.715 83.8093 267.302 84.0524 267.735 84.4852C268.169 84.9179 268.412 85.5049 268.412 86.1168L268.389 94.0432Z" fill="#2E4882"/>
<path d="M268.389 98.2083H267.973V102.789H268.389V98.2083Z" fill="#2E4882"/>
<path d="M226.087 83.8438H218.869V84.2591H226.087V83.8438Z" fill="#2E4882"/>
<path d="M28.3978 90.2935L28.0398 90.0858C32.2435 83.0709 39.0225 78.3174 49.37 75.0869L49.4855 75.4792C39.265 78.6866 32.5437 83.3825 28.3978 90.2935Z" fill="white"/>
<path d="M23.0162 93.0277L22.6235 92.8777C28.0514 77.9711 41.9905 73.1946 54.9595 70.4717L55.0519 70.887C42.1868 73.5753 28.3747 78.3057 23.0162 93.0277Z" fill="white"/>
<path d="M210.265 9.28782C200.726 4.40741 192.642 3.09213 184.858 5.14582L184.777 4.75354C192.688 2.66524 200.864 3.99206 210.496 8.91862L210.265 9.28782Z" fill="white"/>
<path d="M217.437 9.80703C206.396 2.8037 193.185 -3.44968 179.072 3.34597L178.887 2.97677C193.196 -3.9458 206.523 2.38835 217.656 9.4609L217.437 9.80703Z" fill="white"/>
<path d="M166.172 25.625C162.657 25.535 159.194 26.4882 156.221 28.364C153.247 30.2399 150.898 32.9542 149.468 36.1639C148.039 39.3737 147.593 42.9348 148.189 46.3972C148.785 49.8595 150.395 53.0677 152.815 55.6163C155.235 58.1649 158.358 59.9395 161.787 60.7158C165.217 61.4921 168.8 61.2352 172.083 59.9776C175.367 58.7201 178.203 56.5183 180.235 53.6505C182.266 50.7828 183.401 47.3778 183.495 43.8659C183.558 41.5315 183.16 39.2075 182.323 37.0269C181.487 34.8463 180.228 32.8519 178.619 31.1578C177.01 29.4636 175.083 28.103 172.947 27.1536C170.811 26.2042 168.509 25.6848 166.172 25.625ZM180.031 43.7736C179.956 46.5858 179.053 49.3135 177.434 51.6156C175.816 53.9177 173.554 55.692 170.932 56.7167C168.309 57.7414 165.443 57.9709 162.69 57.3767C159.938 56.7824 157.422 55.3907 155.458 53.3755C153.493 51.3604 152.166 48.8112 151.644 46.0469C151.122 43.2826 151.426 40.4257 152.521 37.8337C153.615 35.2416 155.45 33.0293 157.796 31.4734C160.142 29.9176 162.895 29.0872 165.71 29.0863H166.103C169.827 29.1943 173.361 30.7476 175.957 33.4165C178.553 36.0854 180.006 39.6599 180.008 43.3814L180.031 43.7736Z" fill="#FCC659"/>
<path d="M180.007 43.3815V43.7738C179.933 46.586 179.029 49.3136 177.411 51.6157C175.793 53.9178 173.531 55.6922 170.908 56.7169C168.286 57.7415 165.419 57.9711 162.667 57.3768C159.915 56.7826 157.399 55.3908 155.434 53.3757C153.47 51.3605 152.143 48.8114 151.621 46.0471C151.098 43.2827 151.403 40.4259 152.497 37.8338C153.592 35.2417 155.426 33.0294 157.772 31.4736C160.118 29.9178 162.871 29.0874 165.687 29.0864H166.08C169.807 29.1886 173.348 30.7393 175.949 33.4088C178.55 36.0784 180.006 39.6562 180.007 43.3815Z" fill="#F49B51"/>
<path d="M164.787 54.3191V51.6308C163.346 51.6351 161.934 51.2354 160.71 50.4771L161.345 48.7003C162.492 49.4411 163.825 49.8412 165.191 49.854C167.085 49.854 168.367 48.7003 168.367 47.2465C168.367 45.7928 167.327 44.8698 165.352 44.0737C162.627 43.0122 160.952 41.7662 160.952 39.4587C160.969 38.3735 161.39 37.3336 162.133 36.542C162.877 35.7505 163.889 35.2642 164.971 35.1782V32.4553H166.634V35.0282C167.85 35.0429 169.041 35.3644 170.099 35.9628L169.429 37.728C168.415 37.1185 167.252 36.8029 166.068 36.8165C164.013 36.8165 163.239 38.0395 163.239 39.1241C163.239 40.5086 164.232 41.2008 166.554 42.1585C169.291 43.3122 170.688 44.6621 170.688 47.0389C170.669 48.18 170.228 49.2739 169.45 50.1091C168.671 50.9444 167.611 51.4619 166.473 51.5616V54.3306L164.787 54.3191Z" fill="#FCC659"/>
<path d="M179.442 39.8394C179.414 39.7145 179.379 39.5912 179.338 39.4702C178.779 37.538 177.813 35.7477 176.504 34.2194C175.195 32.6911 173.574 31.4602 171.75 30.6093L171.912 30.2632C173.785 31.1369 175.451 32.3998 176.797 33.9676C178.143 35.5354 179.139 37.372 179.719 39.3548L179.823 39.7356L179.442 39.8394Z" fill="#2E4882"/>
<path d="M171.75 30.6094C168.772 29.2243 165.404 28.9144 162.223 29.7325L162.13 29.3633C165.396 28.5117 168.857 28.8301 171.912 30.2633L171.75 30.6094Z" fill="#2E4882"/>
<path d="M151.737 47.0273C151.254 45.1858 151.141 43.2671 151.405 41.3818C151.668 39.4966 152.303 37.6822 153.273 36.0435L153.607 36.2396C152.663 37.8349 152.044 39.6019 151.789 41.438C151.533 43.274 151.645 45.1425 152.118 46.935L151.737 47.0273Z" fill="#2E4882"/>
<path d="M177.271 30.494C175.889 29.2937 174.331 28.3131 172.651 27.5866L172.813 27.2058C174.523 27.9515 176.108 28.9554 177.513 30.1825L177.271 30.494Z" fill="#2E4882"/>
<path d="M175.735 58.6226L175.504 58.288C179.306 55.7306 181.959 51.7912 182.897 47.3088C183.835 42.8264 182.985 38.1552 180.527 34.2898L180.885 34.0706C183.399 38.0264 184.268 42.8065 183.305 47.3926C182.343 51.9786 179.627 56.0081 175.735 58.6226Z" fill="#2E4882"/>
<path d="M163.227 81.6517L164.798 74.9138L171.231 72.2371L172.385 81.6517C172.032 83.5078 171.216 85.2449 170.013 86.7028C168.81 88.1607 167.259 89.2924 165.503 89.9934C159.59 92.1625 163.227 81.6517 163.227 81.6517Z" fill="#FCB47E"/>
<path d="M160.698 63.9183C160.698 63.9183 158.389 76.6097 162.13 76.702C165.872 76.7943 168.898 75.3636 169.66 74.4983C170.422 73.633 171 69.4564 171 69.4564C171 69.4564 171.473 64.0222 169.187 62.9723C166.9 61.9223 161.934 60.1109 160.698 63.9183Z" fill="#FCB47E"/>
<path d="M172.94 71.9831C172.212 73.333 171.485 74.6599 171.485 74.6599C170.867 74.4683 170.311 74.1181 169.871 73.6443C169.431 73.1706 169.124 72.5898 168.979 71.9601C168.979 71.9601 165.514 71.637 165.445 67.4142C165.445 67.4142 159.497 67.4142 159.359 62.3031C159.22 57.1919 165.133 58.4726 167.131 59.9956C168.921 61.5933 171.043 62.7754 173.344 63.4568C176.566 64.4491 173.875 70.2525 172.94 71.9831Z" fill="#374263"/>
<path d="M170.157 194.466L169.429 186.967H161.507L163.228 194.247C163.524 194.946 164.024 195.54 164.662 195.952C165.301 196.363 166.048 196.573 166.808 196.555C167.507 196.561 168.194 196.368 168.787 195.998C169.38 195.629 169.855 195.097 170.157 194.466Z" fill="#FCB47E"/>
<path d="M209.202 171.022L203.105 166.592L197.839 172.499L205.645 176.456C205.645 176.456 206.604 176.641 208.567 174.945C209.104 174.461 209.46 173.808 209.576 173.095C209.691 172.382 209.559 171.65 209.202 171.022Z" fill="#FCB47E"/>
<path d="M176.832 189.309C172.212 191.04 166.38 190.567 160.063 189.309C159.878 188.871 159.694 188.421 159.52 187.982C147.475 157.569 156.056 113.403 156.056 113.403H174.995L174.568 127.998C173.733 131.828 173.128 135.704 172.755 139.605C170.341 165.103 176.832 189.309 176.832 189.309Z" fill="#3F5A9F"/>
<path d="M176.832 189.298C176.531 188.698 165.745 166.799 168.956 142.097L172.42 144.855C171.833 159.801 173.317 174.757 176.832 189.298Z" fill="#385087"/>
<path d="M207.436 163.107C205.703 167.976 203.844 171.761 201.834 173.976C201.065 174.899 200.059 175.597 198.924 175.995C196.15 174.581 193.48 172.973 190.933 171.184L189.951 170.48C189.512 170.168 189.085 169.845 188.681 169.522C188.484 169.384 188.3 169.234 188.115 169.084L187.018 168.195L186.071 167.399C184.487 166.025 182.976 164.569 181.544 163.038L181.151 162.611L180.862 162.288C161.761 141.071 165.26 113.403 165.26 113.403H181.879C183.299 139.94 207.436 163.107 207.436 163.107Z" fill="#3F5A9F"/>
<path d="M185.597 55.946C184.188 54.9192 183.195 54.3423 182.952 54.1693C182.71 53.9962 182.583 53.4193 182.236 52.877C181.416 51.6425 179.73 49.4158 177.986 48.8273C177.767 48.7466 177.594 48.9889 177.836 49.2427C178.264 49.7157 179.06 50.3965 178.991 50.5003C178.922 50.6041 176.832 48.4581 176.3 48.9773C175.769 49.4965 178.61 51.4002 178.529 51.5271C178.448 51.6541 176.22 49.4619 175.758 49.9926C175.296 50.5234 177.744 51.7925 177.64 52.0117C177.536 52.2309 175.815 50.858 175.48 51.1349C174.972 51.631 178.056 53.5347 177.975 53.8231C177.894 54.1116 176.266 53.327 176.035 53.8231C175.804 54.3192 178.033 55.2884 178.46 55.4961C179.43 55.9922 180.146 55.773 180.92 56.9844L182.202 58.992L185.597 55.946Z" fill="#FCB47E"/>
<path d="M146.47 57.469C147.775 56.3152 148.688 55.6114 148.907 55.4153C149.127 55.2191 149.196 54.6307 149.496 54.0538C150.166 52.727 151.61 50.3618 153.284 49.5772C153.492 49.4734 153.688 49.6811 153.48 49.9695C153.111 50.4772 152.326 51.2387 152.51 51.331C152.695 51.4233 154.439 49.0234 155.016 49.5426C155.594 50.0618 152.961 52.1963 153.076 52.3117C153.192 52.427 155.12 50.0041 155.675 50.4887C156.229 50.9733 153.885 52.4847 154.012 52.6924C154.139 52.9001 155.698 51.3079 156.067 51.5386C156.622 51.9655 153.758 54.2038 153.873 54.4692C154.035 54.9192 155.513 53.8 155.813 54.3077C156.114 54.8153 153.977 55.9806 153.584 56.2344C152.66 56.8229 151.933 56.6959 151.275 57.9882C150.917 58.6919 150.57 59.3957 150.224 60.1111L146.47 57.469Z" fill="#FCB47E"/>
<path d="M182.052 115.561C179.738 117.03 177.304 118.299 174.776 119.357C171.686 120.671 168.416 121.514 165.075 121.86C161.607 122.235 158.102 121.66 154.936 120.199C155.143 118.641 155.351 117.326 155.513 116.276C158.456 117.768 161.706 118.557 165.006 118.584C168.323 118.629 171.631 118.214 174.834 117.349C177.273 116.7 179.662 115.874 181.982 114.88C182.005 115.134 182.017 115.376 182.052 115.561Z" fill="#385087"/>
<path d="M151.829 113.553V92.6701C151.829 92.6701 133.04 89.4857 136.724 71.314C139.033 59.7764 147.325 55.6459 147.325 55.6459L151.945 59.3264C151.945 59.3264 142.221 74.1753 155.016 79.3326C155.016 79.3326 162.223 79.1134 164.094 81.1325C164.094 81.1325 168.228 84.4322 172.57 78.9634C172.57 78.9634 177.005 77.2327 180.77 78.2481C183.876 79.0788 187.872 71.3832 180.446 58.3457L185.066 54.146C185.066 54.146 212.297 80.3017 185.597 93.27L184.096 114.13C184.096 114.13 163.424 125.852 151.829 113.553Z" fill="#6D92F0"/>
<path d="M169.637 71.2332C169.637 71.5253 169.55 71.8108 169.388 72.0536C169.225 72.2965 168.994 72.4858 168.724 72.5976C168.454 72.7093 168.157 72.7386 167.87 72.6816C167.584 72.6246 167.32 72.484 167.113 72.2774C166.907 72.0709 166.766 71.8077 166.709 71.5213C166.652 71.2348 166.681 70.9379 166.793 70.668C166.905 70.3982 167.094 70.1675 167.337 70.0052C167.58 69.843 167.866 69.7563 168.159 69.7563C168.551 69.7563 168.927 69.9119 169.204 70.1889C169.481 70.4659 169.637 70.8415 169.637 71.2332Z" fill="#FCB47E"/>
<path d="M172.201 149.989C168.64 142.984 166.341 135.407 165.41 127.606H165.734C166.664 135.368 168.955 142.905 172.501 149.874L172.201 149.989Z" fill="white"/>
<path d="M181.128 126.118C179.643 126.128 178.19 125.694 176.955 124.872C175.72 124.049 174.76 122.876 174.199 121.503L174.511 121.399C175.067 122.758 176.033 123.91 177.275 124.695C178.516 125.481 179.972 125.861 181.44 125.783V126.118H181.128Z" fill="white"/>
<path d="M166.669 83.8554H166.38C163.99 83.6246 162.835 80.8672 162.835 80.7633L163.135 80.6249C163.135 80.6249 164.29 83.3247 166.473 83.5208C168.286 83.6939 170.295 82.1248 172.443 78.9058L172.721 79.0788C170.549 82.2401 168.54 83.8554 166.669 83.8554Z" fill="#2E4882"/>
<path d="M151.829 92.6702C151.829 92.6702 133.04 89.4858 136.724 71.314C136.931 70.3218 137.174 69.3757 137.451 68.4989L137.601 68.3489C137.289 72.4563 137.139 76.0445 138.964 79.8865C142.763 88.0551 152.083 92.6586 151.829 92.6702Z" fill="#608BE2"/>
<path d="M185.574 93.27L184.084 114.142C180.9 115.842 177.523 117.155 174.025 118.053C175.019 117.303 179.222 110.876 179.927 107.669C181.015 102.62 181.546 97.466 181.509 92.3008C185.311 91.208 188.761 89.1432 191.52 86.3104C194.278 83.4776 196.249 79.9749 197.238 76.1482C197.792 82.2862 195.171 88.6203 185.574 93.27Z" fill="#608BE2"/>
<path d="M165.722 116.98H165.618V116.645C171.367 116.558 177.001 115.018 181.994 112.169L182.167 112.446C177.153 115.311 171.498 116.87 165.722 116.98Z" fill="#2E4882"/>
<path d="M201.834 173.976C201.065 174.899 200.059 175.597 198.924 175.995C196.15 174.581 193.48 172.973 190.932 171.184L189.951 170.48C189.512 170.168 189.085 169.845 188.68 169.522C188.484 169.384 188.299 169.234 188.115 169.084L187.017 168.195L186.07 167.399C184.487 166.025 182.976 164.569 181.543 163.038L181.151 162.611L180.862 162.288C192.226 171.668 199.49 173.583 201.834 173.976Z" fill="#385087"/>
<path d="M204.976 162.438C196.984 157.246 191.903 147.878 191.845 147.785L192.122 147.635C192.122 147.728 197.215 157.038 205.149 162.173L204.976 162.438Z" fill="white"/>
<path d="M171.161 200.431H153.18C153.032 200.432 152.886 200.402 152.75 200.343C152.614 200.284 152.492 200.197 152.391 200.089C152.29 199.981 152.213 199.853 152.164 199.713C152.115 199.573 152.095 199.425 152.106 199.278C152.106 199.139 152.106 199.001 152.106 198.862C152.147 198.417 152.29 197.987 152.522 197.605C153.377 196.451 155.028 195.955 157.985 194.789C159.423 194.203 160.8 193.476 162.096 192.62C162.206 192.549 162.338 192.517 162.468 192.532C162.599 192.547 162.72 192.607 162.812 192.701C166.369 196.162 168.586 195.435 169.198 193.993C169.695 192.909 170.353 193.128 170.607 193.451C171.208 194.455 171.531 197.385 171.658 198.862C171.658 199.012 171.658 199.162 171.658 199.278C171.658 199.393 171.658 199.716 171.658 199.716C171.682 199.876 171.644 200.039 171.552 200.172C171.46 200.305 171.32 200.398 171.161 200.431Z" fill="#374263"/>
<path d="M159.047 196.647C158.684 196.478 158.383 196.198 158.188 195.848C157.993 195.498 157.914 195.095 157.961 194.697L158.273 194.755C158.232 195.086 158.298 195.422 158.462 195.713C158.627 196.004 158.88 196.234 159.186 196.37L159.047 196.647Z" fill="white"/>
<path d="M157.465 197.178C157.128 197.008 156.849 196.741 156.664 196.413C156.479 196.084 156.396 195.708 156.425 195.332H156.737C156.717 195.648 156.791 195.964 156.949 196.238C157.107 196.513 157.343 196.736 157.626 196.878L157.465 197.178Z" fill="white"/>
<path d="M167.616 196.393C166.816 196.371 166.029 196.182 165.306 195.839L165.445 195.562C165.445 195.562 168.205 196.947 169.614 195.205L169.856 195.401C169.585 195.728 169.241 195.987 168.852 196.159C168.464 196.331 168.041 196.411 167.616 196.393Z" fill="white"/>
<path d="M169.545 199.035H159.07V199.347H169.545V199.035Z" fill="white"/>
<path d="M157.73 199.035H155.247V199.347H157.73V199.035Z" fill="white"/>
<path d="M214.561 172.107L205.772 187.775C205.701 187.905 205.604 188.02 205.486 188.11C205.368 188.201 205.233 188.267 205.088 188.302C204.944 188.338 204.794 188.344 204.647 188.318C204.5 188.293 204.361 188.238 204.237 188.155L203.89 187.913C203.522 187.659 203.218 187.323 203.001 186.932C202.435 185.64 202.793 183.944 203.209 180.794C203.398 179.264 203.437 177.718 203.324 176.179C203.314 176.048 203.35 175.918 203.426 175.811C203.502 175.703 203.613 175.626 203.74 175.591C208.509 174.183 208.925 171.922 208.001 170.653C207.285 169.684 207.828 169.176 208.209 169.165C210.03 169.47 211.794 170.049 213.441 170.884C213.575 170.933 213.706 170.991 213.833 171.057L214.238 171.241C214.318 171.273 214.392 171.322 214.453 171.384C214.514 171.447 214.561 171.521 214.591 171.602C214.622 171.684 214.635 171.771 214.63 171.858C214.624 171.945 214.601 172.029 214.561 172.107Z" fill="#374263"/>
<path d="M203.705 180.99C203.524 181.004 203.343 181.004 203.162 180.99L203.232 180.679C203.576 180.751 203.932 180.735 204.269 180.635C204.606 180.534 204.912 180.351 205.16 180.102L205.414 180.298C205.2 180.535 204.935 180.721 204.639 180.84C204.343 180.96 204.024 181.012 203.705 180.99Z" fill="white"/>
<path d="M203.555 182.687C203.378 182.7 203.201 182.7 203.024 182.687V182.375C203.369 182.454 203.728 182.443 204.067 182.344C204.407 182.245 204.716 182.061 204.964 181.81L205.207 181.994C204.999 182.224 204.744 182.405 204.458 182.525C204.173 182.645 203.864 182.7 203.555 182.687Z" fill="white"/>
<path d="M208.001 174.979L207.805 174.749C207.805 174.749 210.115 172.718 209.052 170.768L209.318 170.618C210.53 172.799 208.036 174.956 208.001 174.979Z" fill="white"/>
<path d="M212.314 173.165L207.296 182.351L207.57 182.5L212.587 173.314L212.314 173.165Z" fill="white"/>
<path d="M206.649 183.521L205.46 185.699L205.733 185.848L206.923 183.671L206.649 183.521Z" fill="white"/>
<path d="M154.913 79.5287C152.405 78.7027 150.292 76.9813 148.977 74.6944C147.602 72.1677 147.464 69.0756 148.572 65.4644L148.965 65.5797C147.903 69.041 148.03 72.0408 149.346 74.4637C150.649 76.6494 152.7 78.2891 155.12 79.0787L154.913 79.5287Z" fill="#2E4882"/>
<path d="M164.648 67.6566C163.729 67.6572 162.82 67.4703 161.976 67.1072C161.132 66.7442 160.371 66.2126 159.74 65.5452C159.001 64.6337 158.4 63.0069 159.74 60.4917L160.017 60.6417C159.012 62.5339 159.001 64.103 160.017 65.3606C160.704 66.0843 161.553 66.6344 162.495 66.9654C163.437 67.2964 164.444 67.3989 165.433 67.2643L165.514 67.5643C165.231 67.6331 164.939 67.6641 164.648 67.6566Z" fill="#374263"/>
<path d="M163.32 67.9567C162.076 67.9233 160.87 67.5217 159.855 66.8029L160.028 66.5491C160.885 67.2122 161.926 67.5956 163.009 67.6472C164.091 67.6988 165.164 67.4161 166.08 66.8375L166.265 67.0798C165.398 67.6715 164.369 67.9781 163.32 67.9567Z" fill="#374263"/>
<path d="M13.6389 119.426C13.6389 119.541 13.6389 119.657 13.6389 119.783C13.9623 134.079 16.0179 145.166 18.9513 153.681L26.5618 157.869L20.4526 157.258H20.2793C24.0557 166.626 28.9292 172.545 33.4332 176.283C35.7316 178.223 38.2989 179.82 41.0552 181.025L41.4825 181.21C41.829 181.36 42.1639 181.487 42.4873 181.602H46.5524C46.5524 181.406 46.6332 181.221 46.6794 181.025L46.7487 180.667C46.7487 180.517 46.818 180.356 46.8526 180.194C50.6867 161.527 43.8846 147.093 35.4542 137.032L35.3618 136.928C32.6312 133.693 29.6166 130.708 26.3539 128.01L24.8064 132.625L24.2521 126.291C20.9894 123.748 17.5117 121.494 13.8583 119.553L13.6389 119.426Z" fill="#9AADE5"/>
<path d="M13.5002 119.507L13.6504 119.772L22.8777 136.755L23.0394 137.055L25.557 141.682L25.6493 141.832L33.6756 156.589L33.6872 156.6L46.7601 180.644L46.9565 181.002L47.2683 181.579H47.6263L47.3145 181.002L46.8641 180.171L33.9528 156.45L33.7218 156.012L13.8813 119.553L13.7774 119.357L13.5002 119.507Z" fill="white"/>
<path d="M14.9989 135.203L14.854 135.439L25.5465 141.988L25.6913 141.752L14.9989 135.203Z" fill="white"/>
<path d="M14.7582 131.769L14.6133 132.005L22.9911 137.138L23.136 136.902L14.7582 131.769Z" fill="white"/>
<path d="M34.946 157.823L36.4935 138.232L36.1933 138.209L34.6458 157.8L34.946 157.823Z" fill="white"/>
<path d="M48.5041 185.479C48.5041 185.479 39.1382 190.521 25.0489 183.09L29.3681 180.783L22.1502 181.452C16.6184 177.991 10.4746 172.626 3.94966 164.399L5.58956 163.511L3.46462 163.684C2.30976 162.277 1.1549 160.788 0.0693359 159.219C3.31299 158.852 6.58366 158.787 9.83943 159.023L12.9922 162.853L11.9644 159.219C23.7901 160.373 41.1823 165.599 48.5041 185.479Z" fill="#BAC8F3"/>
<path d="M0.136956 159.07L-0.00610352 159.347L49.1047 184.682L49.2477 184.405L0.136956 159.07Z" fill="white"/>
<path d="M12.8393 165.791L6.05029 166.851L6.09486 167.136L12.8839 166.076L12.8393 165.791Z" fill="white"/>
<path d="M16.1879 167.454L8.30298 169.287L8.36842 169.568L16.2533 167.735L16.1879 167.454Z" fill="white"/>
<path d="M129.887 128.229H44.1386C42.0402 128.229 40.3391 129.928 40.3391 132.025V190.347C40.3391 192.444 42.0402 194.143 44.1386 194.143H129.887C131.985 194.143 133.686 192.444 133.686 190.347V132.025C133.686 129.928 131.985 128.229 129.887 128.229Z" fill="#6D92F0"/>
<path d="M130.845 135.071V187.302C130.847 187.827 130.745 188.347 130.545 188.833C130.344 189.319 130.05 189.76 129.679 190.132C129.308 190.504 128.867 190.799 128.381 191C127.896 191.202 127.375 191.305 126.85 191.305H120.798V134.459H45.4899C45.0396 134.459 44.6078 134.281 44.2895 133.963C43.9711 133.645 43.7922 133.213 43.7922 132.763C43.7922 132.314 43.9711 131.882 44.2895 131.564C44.6078 131.246 45.0396 131.067 45.4899 131.067H126.85C127.91 131.07 128.927 131.494 129.676 132.244C130.425 132.995 130.845 134.011 130.845 135.071Z" fill="#2E4882"/>
<path d="M101.397 120.96C97.9933 120.07 94.4023 120.209 91.0777 121.358C87.7531 122.507 84.8444 124.615 82.7193 127.416C80.5942 130.217 79.3483 133.584 79.1391 137.093C78.93 140.601 79.767 144.093 81.5443 147.126C83.3216 150.159 85.9593 152.597 89.1239 154.132C92.2884 155.667 95.8376 156.231 99.3225 155.75C102.807 155.27 106.072 153.768 108.702 151.434C111.332 149.101 113.211 146.04 114.1 142.639C114.692 140.383 114.832 138.032 114.514 135.72C114.196 133.409 113.425 131.183 112.245 129.17C111.065 127.157 109.5 125.395 107.638 123.987C105.777 122.578 103.656 121.55 101.397 120.96ZM110.739 141.728C110.264 143.545 109.434 145.251 108.299 146.747C107.163 148.244 105.743 149.502 104.121 150.451C102.498 151.399 100.704 152.018 98.8417 152.274C96.9792 152.529 95.0847 152.415 93.2663 151.939C90.5224 151.228 88.0518 149.719 86.1684 147.602C84.2851 145.486 83.074 142.858 82.6891 140.052C82.3042 137.246 82.7628 134.389 84.0066 131.845C85.2504 129.3 87.2233 127.182 89.6747 125.76C92.826 123.9 96.5751 123.33 100.138 124.168L100.519 124.272C104.138 125.21 107.247 127.524 109.18 130.722C111.114 133.919 111.719 137.745 110.866 141.382C110.866 141.509 110.774 141.636 110.739 141.763V141.728Z" fill="#FCC659"/>
<path d="M110.866 141.382C110.866 141.509 110.866 141.636 110.774 141.763C110.298 143.58 109.469 145.285 108.333 146.782C107.198 148.279 105.778 149.537 104.155 150.485C102.532 151.434 100.739 152.053 98.8762 152.308C97.0138 152.564 95.1192 152.45 93.3008 151.974C89.6162 151.063 86.4445 148.728 84.4833 145.481C82.5222 142.234 81.9324 138.342 82.8436 134.661C83.7548 130.98 86.0924 127.811 89.3422 125.852C92.5919 123.893 96.4876 123.304 100.172 124.214L100.553 124.306C104.159 125.252 107.253 127.565 109.179 130.753C111.104 133.942 111.71 137.755 110.866 141.382Z" fill="#F49B51"/>
<path d="M93.5435 148.593L94.1556 145.974C92.7527 145.641 91.4696 144.926 90.4485 143.909L91.4763 142.305C92.4168 143.287 93.619 143.98 94.9409 144.301C96.7887 144.728 98.2784 143.955 98.6249 142.466C98.9713 140.978 98.1514 139.928 96.4076 138.705C94.0055 137.044 92.6427 135.475 93.174 133.213C93.4376 132.158 94.0853 131.239 94.9907 130.635C95.896 130.032 96.9941 129.787 98.0705 129.948L98.6826 127.329L100.288 127.71L99.6989 130.225C100.883 130.507 101.973 131.092 102.863 131.921L101.812 133.479C100.964 132.657 99.9049 132.086 98.7519 131.829C96.754 131.367 95.7146 132.383 95.4837 133.421C95.1603 134.771 95.9687 135.728 98.0128 137.136C100.426 138.844 101.477 140.505 100.923 142.813C100.648 143.921 99.9722 144.888 99.0251 145.528C98.0781 146.167 96.9273 146.433 95.7955 146.274L95.1719 148.974L93.5435 148.593Z" fill="#FCC659"/>
<path d="M70.8389 107.115C67.3236 107.025 63.8605 107.978 60.8872 109.854C57.914 111.73 55.5641 114.444 54.1345 117.654C52.705 120.864 52.26 124.425 52.8557 127.887C53.4515 131.35 55.0612 134.558 57.4815 137.107C59.9019 139.655 63.0241 141.43 66.4537 142.206C69.8832 142.982 73.4662 142.725 76.7497 141.468C80.0331 140.21 82.8698 138.009 84.901 135.141C86.9323 132.273 88.067 128.868 88.1618 125.356C88.2263 123.021 87.8291 120.697 86.9929 118.515C86.1568 116.334 84.898 114.339 83.2888 112.645C81.6797 110.95 79.7517 109.59 77.6153 108.641C75.4789 107.692 73.1762 107.174 70.8389 107.115ZM84.6972 125.264C84.6223 128.076 83.7191 130.804 82.1008 133.106C80.4824 135.408 78.2206 137.182 75.5982 138.207C72.9758 139.232 70.1092 139.461 67.3569 138.867C64.6047 138.273 62.0888 136.881 60.124 134.866C58.1593 132.851 56.8328 130.301 56.3104 127.537C55.788 124.773 56.093 121.916 57.1872 119.324C58.2813 116.732 60.1161 114.52 62.4621 112.964C64.8081 111.408 67.5612 110.577 70.377 110.576H70.7812C74.5067 110.682 78.0444 112.234 80.6428 114.903C83.2412 117.572 84.6957 121.148 84.6972 124.872V125.264Z" fill="#FCC659"/>
<path d="M84.6625 124.872V125.264C84.5876 128.076 83.6844 130.804 82.066 133.106C80.4477 135.408 78.1858 137.182 75.5635 138.207C72.9411 139.232 70.0745 139.461 67.3222 138.867C64.5699 138.273 62.0541 136.881 60.0893 134.866C58.1245 132.851 56.798 130.301 56.2757 127.537C55.7533 124.773 56.0583 121.916 57.1524 119.324C58.2466 116.732 60.0814 114.519 62.4274 112.964C64.7734 111.408 67.5264 110.577 70.3423 110.576H70.7465C74.4719 110.682 78.0096 112.234 80.6081 114.903C83.2065 117.572 84.661 121.148 84.6625 124.872Z" fill="#F49B51"/>
<path d="M69.4416 135.809V133.121C68.0022 133.12 66.5912 132.72 65.365 131.967L66.0117 130.179C67.1511 130.926 68.483 131.327 69.8458 131.333C71.7398 131.333 73.0217 130.179 73.0217 128.714C73.0217 127.248 71.9823 126.348 70.0075 125.552C67.2821 124.479 65.6075 123.245 65.6075 120.937C65.6242 119.849 66.0465 118.806 66.7919 118.012C67.5372 117.219 68.552 116.731 69.638 116.645V113.934H71.2894V116.53C72.5047 116.544 73.6965 116.866 74.754 117.464L74.0842 119.218C73.0664 118.619 71.9047 118.308 70.7235 118.318C68.6679 118.318 67.8941 119.541 67.8941 120.626C67.8941 122.01 68.8873 122.714 71.2086 123.672C73.9571 124.825 75.343 126.175 75.343 128.54C75.3273 129.684 74.8875 130.78 74.1087 131.618C73.33 132.456 72.2677 132.975 71.1277 133.075V135.844L69.4416 135.809Z" fill="#FCC659"/>
<path d="M81.9256 111.776C80.5443 110.576 78.9862 109.596 77.3062 108.869L77.4678 108.488C79.1803 109.23 80.7663 110.234 82.1681 111.465L81.9256 111.776Z" fill="#2E4882"/>
<path d="M80.3897 139.905L80.1587 139.559C83.9626 137.006 86.617 133.068 87.5555 128.587C88.4941 124.105 87.6424 119.435 85.1823 115.572L85.5403 115.353C87.4709 118.372 88.4449 121.902 88.3351 125.483C88.2515 128.344 87.4873 131.145 86.1057 133.653C84.7241 136.161 82.7647 138.304 80.3897 139.905Z" fill="#2E4882"/>
<path d="M83.9465 121.226L83.8425 120.868C83.2778 118.932 82.3057 117.139 80.9912 115.609C79.6767 114.079 78.0501 112.847 76.2205 111.996L76.3821 111.649C78.2556 112.521 79.9206 113.784 81.2651 115.352C82.6097 116.92 83.6027 118.758 84.1774 120.741L84.3045 121.145L83.9465 121.226Z" fill="#2E4882"/>
<path d="M76.2206 111.996C73.2418 110.611 69.8749 110.301 66.6931 111.119L66.6238 110.761C69.8933 109.911 73.3576 110.229 76.417 111.661L76.2206 111.996Z" fill="#2E4882"/>
<path d="M82.7802 132.117L82.4453 131.921C83.4087 130.329 84.0411 128.559 84.3046 126.718H84.6857C84.4181 128.627 83.7702 130.463 82.7802 132.117Z" fill="#2E4882"/>
<path d="M123.916 134.517H44.0231C41.9885 134.517 40.3391 136.165 40.3391 138.198V195.92C40.3391 197.953 41.9885 199.601 44.0231 199.601H123.916C125.951 199.601 127.6 197.953 127.6 195.92V138.198C127.6 136.165 125.951 134.517 123.916 134.517Z" fill="#6D92F0"/>
<path d="M73.6569 197.039H47.407C46.4575 197.039 45.5469 196.662 44.8755 195.992C44.2041 195.321 43.8269 194.411 43.8269 193.463V188.421H44.2427V193.463C44.2427 194.301 44.576 195.105 45.1695 195.698C45.7629 196.291 46.5677 196.624 47.407 196.624H73.6569V197.039Z" fill="#2E4882"/>
<path d="M88.1155 196.624H80.0315V197.039H88.1155V196.624Z" fill="#2E4882"/>
<path d="M124.113 147.612H123.697V140.69C123.697 139.851 123.363 139.047 122.77 138.454C122.177 137.861 121.372 137.528 120.533 137.528H86.2563V137.113H120.533C121.482 137.113 122.393 137.49 123.064 138.161C123.735 138.831 124.113 139.741 124.113 140.69V147.612Z" fill="#2E4882"/>
<path d="M80.0893 137.078H72.3633V137.494H80.0893V137.078Z" fill="#2E4882"/>
<path d="M44.2427 173.076H43.8269V182.894H44.2427V173.076Z" fill="#2E4882"/>
<path d="M133.571 153.693V172.084C133.572 172.633 133.465 173.177 133.256 173.685C133.046 174.194 132.739 174.655 132.35 175.044C131.962 175.433 131.501 175.742 130.993 175.953C130.485 176.163 129.94 176.272 129.39 176.272H113.465C111.014 176.272 108.664 175.299 106.932 173.568C105.199 171.837 104.226 169.49 104.226 167.042C104.226 164.594 105.199 162.246 106.932 160.515C108.664 158.784 111.014 157.812 113.465 157.812H129.344H129.69C130.736 157.734 131.714 157.268 132.432 156.505C133.15 155.743 133.556 154.739 133.571 153.693Z" fill="#3F5A9F"/>
<path d="M112.622 171.357C114.994 171.357 116.918 169.435 116.918 167.065C116.918 164.694 114.994 162.773 112.622 162.773C110.249 162.773 108.326 164.694 108.326 167.065C108.326 169.435 110.249 171.357 112.622 171.357Z" fill="white"/>
<path d="M112.622 171.564V171.149C113.178 171.178 113.734 171.094 114.256 170.902C114.778 170.71 115.256 170.414 115.66 170.031C116.064 169.648 116.386 169.187 116.606 168.676C116.825 168.165 116.939 167.615 116.939 167.059C116.939 166.503 116.825 165.952 116.606 165.441C116.386 164.93 116.064 164.469 115.66 164.087C115.256 163.704 114.778 163.408 114.256 163.215C113.734 163.023 113.178 162.939 112.622 162.969V162.553C113.233 162.522 113.844 162.616 114.418 162.829C114.993 163.041 115.517 163.368 115.961 163.789C116.405 164.211 116.758 164.718 116.999 165.28C117.241 165.842 117.365 166.447 117.365 167.059C117.365 167.67 117.241 168.276 116.999 168.838C116.758 169.4 116.405 169.907 115.961 170.328C115.517 170.75 114.993 171.077 114.418 171.289C113.844 171.502 113.233 171.595 112.622 171.564Z" fill="#2E4882"/>
<path d="M108.557 167.065H108.141C108.127 166.467 108.235 165.872 108.457 165.317C108.679 164.762 109.012 164.257 109.434 163.834L109.723 164.122C109.341 164.51 109.042 164.97 108.841 165.475C108.641 165.981 108.544 166.521 108.557 167.065Z" fill="#2E4882"/>
<path d="M38.6416 170.584C36.3617 168.449 33.8292 166.601 31.1003 165.08L31.2967 164.722C34.0612 166.249 36.6221 168.117 38.9187 170.284L38.6416 170.584Z" fill="#2E4882"/>
<path d="M26.5617 162.9C25.0108 162.263 23.4263 161.713 21.8152 161.25L21.9307 160.857C23.5566 161.326 25.1564 161.881 26.7233 162.519L26.5617 162.9Z" fill="#2E4882"/>
<path d="M46.8756 164.422C43.4707 165.309 40.4055 167.184 38.0678 169.811C35.73 172.438 34.2248 175.699 33.7426 179.181C33.2603 182.663 33.8227 186.21 35.3586 189.372C36.8945 192.535 39.3348 195.171 42.3709 196.948C45.4069 198.725 48.9022 199.562 52.4145 199.353C55.9268 199.144 59.2983 197.9 62.1024 195.776C64.9065 193.653 67.0171 190.747 68.1673 187.425C69.3174 184.102 69.4554 180.514 68.5638 177.114C67.3696 172.559 64.4147 168.664 60.3482 166.285C56.2817 163.905 51.4361 163.235 46.8756 164.422ZM65.2032 178.025C65.9079 180.745 65.7951 183.611 64.8789 186.267C63.9626 188.922 62.2836 191.249 60.0514 192.957C57.8192 194.665 55.1328 195.678 52.3277 195.87C49.5226 196.062 46.7232 195.424 44.279 194.035C41.8348 192.647 39.8542 190.57 38.5846 188.064C37.3149 185.557 36.8124 182.733 37.14 179.943C37.4675 177.153 38.6104 174.522 40.4261 172.377C42.2418 170.232 44.6497 168.669 47.3491 167.884L47.7302 167.78C51.3344 166.859 55.1559 167.373 58.388 169.213C61.6201 171.054 64.0099 174.077 65.0531 177.645L65.2032 178.025Z" fill="#FCC659"/>
<path d="M65.0992 177.679L65.2031 178.06C65.9012 180.78 65.7821 183.645 64.8606 186.298C63.9391 188.95 62.2561 191.273 60.0215 192.976C57.7869 194.679 55.0997 195.687 52.2954 195.874C49.491 196.061 46.6937 195.419 44.2524 194.027C41.8112 192.636 39.8342 190.557 38.5681 188.05C37.3021 185.543 36.803 182.719 37.1333 179.931C37.4636 177.142 38.6086 174.513 40.4253 172.37C42.2421 170.228 44.6501 168.668 47.349 167.884L47.7301 167.78C51.3455 166.847 55.1826 167.359 58.426 169.207C61.6695 171.056 64.0634 174.095 65.0992 177.679Z" fill="#F49B51"/>
<path d="M53.516 192.378L52.7769 189.794C51.3877 190.188 49.9163 190.188 48.5271 189.794L48.6425 187.902C49.9516 188.28 51.3409 188.28 52.6499 187.902C54.4746 187.371 55.3985 185.963 54.9596 184.51C54.5208 183.056 53.3082 182.514 51.1832 182.294C48.273 182.029 46.3213 181.314 45.6746 179.098C45.3864 178.049 45.5014 176.929 45.9972 175.96C46.4929 174.991 47.3335 174.242 48.3538 173.86L47.6032 171.276L49.1969 170.814L49.9129 173.295C51.0847 172.967 52.3209 172.943 53.5045 173.226L53.3544 175.106C52.2163 174.806 51.0172 174.826 49.8898 175.164C47.9265 175.729 47.5801 177.126 47.8111 178.152C48.2037 179.479 49.3355 179.871 51.8415 180.148C54.7864 180.46 56.4609 181.406 57.1654 183.69C57.4674 184.795 57.3475 185.973 56.8288 186.994C56.3102 188.016 55.4299 188.808 54.3591 189.217L55.1329 191.882L53.516 192.378Z" fill="#FCC659"/>
<path d="M63.8059 194.582L63.5172 194.293C66.5882 191.341 68.4857 187.378 68.8594 183.136C69.233 178.895 68.0574 174.661 65.5498 171.218L65.8616 170.999C67.1904 172.819 68.1622 174.875 68.7256 177.056C69.535 180.151 69.5059 183.405 68.6414 186.485C67.7769 189.564 66.108 192.359 63.8059 194.582ZM61.4962 167.249C59.8257 166.072 57.9611 165.197 55.9875 164.665L56.0915 164.284C58.1077 164.836 60.014 165.73 61.7272 166.926L61.4962 167.249Z" fill="#2E4882"/>
<path d="M65.0185 178.072L64.9146 177.702C64.3528 175.773 63.3854 173.986 62.077 172.459C60.7686 170.933 59.1492 169.704 57.3271 168.853L57.4888 168.495C59.3622 169.37 61.0269 170.635 62.3713 172.205C63.7157 173.775 64.7088 175.614 65.2841 177.599C65.2841 177.714 65.3188 177.841 65.3881 177.979L65.0185 178.072Z" fill="#2E4882"/>
<path d="M57.3271 168.853C54.3513 167.457 50.9803 167.147 47.7995 167.976L47.6956 167.595C50.9656 166.751 54.4278 167.069 57.4887 168.495L57.3271 168.853Z" fill="#2E4882"/>
<path d="M37.3133 185.271C36.8259 183.429 36.7097 181.508 36.9714 179.621C37.2331 177.733 37.8675 175.916 38.8377 174.276L39.1726 174.472C38.2307 176.068 37.6141 177.835 37.3584 179.671C37.1028 181.506 37.213 183.374 37.6829 185.167L37.3133 185.271Z" fill="#2E4882"/>
<path d="M63.852 188.963L63.5171 188.767C64.4684 187.172 65.0889 185.403 65.3418 183.563L65.7229 183.621C65.4585 185.508 64.8226 187.323 63.852 188.963Z" fill="#2E4882"/>
<path d="M130.037 47.5811C121.541 45.2406 112.542 45.4594 104.169 48.2099C95.797 50.9604 88.4243 56.1201 82.9765 63.0415C80.8215 65.8005 78.996 68.8014 77.5371 71.9831C77.1676 72.7792 76.8442 73.5868 76.5093 74.3945C76.1744 75.2021 75.8972 76.0328 75.6431 76.8635C75.1041 78.5213 74.6607 80.2085 74.3151 81.917C74.1534 82.7708 74.0032 83.6361 73.8878 84.5014C73.8878 84.7206 73.8185 84.9283 73.7954 85.1475V85.3783V85.5283C73.7954 85.7129 73.7954 85.909 73.7954 86.1051L70.4463 85.7936C71.748 89.1071 73.463 92.2432 75.5508 95.1276C76.8665 92.1497 78.567 89.3569 80.609 86.8205L77.3754 86.532C77.3754 86.359 77.3754 86.1744 77.4332 86.0013V85.8744V85.6552C77.4332 85.459 77.4332 85.2629 77.514 85.0552C77.618 84.2707 77.7565 83.4746 77.9067 82.7477C78.2201 81.187 78.625 79.646 79.1193 78.1327C79.3618 77.3712 79.662 76.6212 79.9161 75.8251C80.1702 75.029 80.5282 74.3368 80.8631 73.6099C83.5345 67.7455 87.5691 62.6033 92.6311 58.611C97.6823 54.6014 103.611 51.8423 109.933 50.5589C116.256 49.2756 122.792 49.5045 129.009 51.227L130.037 47.5811Z" fill="#7D9EF2"/>
<path d="M95.8531 51.9192L95.6567 51.5846C96.7308 50.9385 97.851 50.327 98.9827 49.7732C101.897 48.3834 104.962 47.3343 108.118 46.6465C111.273 45.9615 114.498 45.6517 117.726 45.7235C120.955 45.7817 124.166 46.2271 127.288 47.0503L127.196 47.4311C124.125 46.6297 120.969 46.1997 117.795 46.1504C111.368 45.9999 104.997 47.3718 99.2022 50.154C98.0819 50.6962 97.0079 51.2962 95.8531 51.9192Z" fill="#2E4882"/>
<path d="M87.619 58.5303L87.3303 58.265C87.6883 57.8842 88.0694 57.5266 88.4274 57.1112L89.0626 56.5113L89.5938 56.0498C90.0096 55.669 90.4484 55.2883 90.8988 54.896L91.1413 55.196C90.7025 55.5536 90.2637 55.9344 89.8479 56.3497L89.3282 56.8112L88.7046 57.4112C88.335 57.8035 87.9655 58.1611 87.619 58.5303Z" fill="#2E4882"/>
<path d="M75.5968 95.5083L75.4005 95.2429C73.6055 92.8113 72.0799 90.1923 70.8503 87.432L71.2083 87.282C72.3802 89.9096 73.8239 92.4077 75.516 94.7353C76.4055 92.7197 77.4763 90.7888 78.7149 88.9665L79.0383 89.1857C77.7529 91.0867 76.6472 93.1029 75.7354 95.2083L75.5968 95.5083Z" fill="#2E4882"/>
<path d="M73.9107 86.1398H73.5181C73.7174 83.6166 74.1859 81.1218 74.9154 78.698L75.285 78.8134C74.5712 81.2006 74.1105 83.6563 73.9107 86.1398Z" fill="#2E4882"/>
<path d="M58.1355 115.307C59.5189 116.021 60.6213 117.179 61.2652 118.595C61.9058 117.173 63.0142 116.013 64.4064 115.307C63.0187 114.595 61.9119 113.437 61.2652 112.019C60.6213 113.435 59.5189 114.593 58.1355 115.307Z" fill="#FFE6A6"/>
<path d="M76.9712 131.275C77.7776 131.685 78.4209 132.356 78.7959 133.179C79.174 132.355 79.816 131.681 80.6205 131.264C79.8119 130.857 79.1677 130.185 78.7959 129.36C78.4246 130.188 77.7807 130.864 76.9712 131.275Z" fill="#FFE6A6"/>
<path d="M153.896 33.6669C155.291 34.3603 156.407 35.508 157.061 36.9205C157.704 35.5043 158.807 34.3459 160.19 33.6323C158.813 32.9274 157.711 31.782 157.061 30.3787C156.408 31.8004 155.293 32.9594 153.896 33.6669Z" fill="#FFE6A6"/>
<path d="M230.971 185.513C232.355 186.227 233.457 187.385 234.101 188.802C234.745 187.385 235.847 186.227 237.231 185.513C235.847 184.8 234.745 183.641 234.101 182.225C233.457 183.641 232.355 184.8 230.971 185.513Z" fill="#FFE6A6"/>
<path d="M228.315 192.494C229.118 192.904 229.758 193.575 230.128 194.397C230.507 193.577 231.149 192.907 231.953 192.494C231.149 192.08 230.507 191.41 230.128 190.59C229.758 191.412 229.118 192.083 228.315 192.494Z" fill="#FFE6A6"/>
</g>
<defs>
<clipPath id="clip0_209_182">
<rect width="325" height="208" fill="white"/>
</clipPath>
</defs>
</svg>
