<svg width="322" height="226" viewBox="0 0 322 226" fill="none" xmlns="http://www.w3.org/2000/svg">
<path d="M236.498 200.438C264.039 202.376 298.471 191.458 313.648 167.507C319.939 157.599 324.115 144.865 319.734 133.907C316.418 125.595 302.402 116.165 299.372 107.785C296.342 99.4056 296.738 89.6203 298.308 80.6266C302.839 54.8191 277.659 14.5316 224.475 10.2327C184.16 6.9709 165.913 38.3056 131.59 42.5909C96.9658 46.9036 56.3507 21.0006 31.5805 42.5909C0.818968 69.3947 15.2035 96.2257 18.9975 108.781C23.8151 124.913 0.300364 143.282 5.14524 167.07C15.9814 220.159 94.7822 184.361 117.874 182.082C141.334 179.817 164.603 186.49 187.585 191.84C210.568 197.19 234.915 201.23 257.392 193.874L236.498 200.438Z" fill="#244AD3"/>
<path d="M158.789 226C246.486 226 317.578 222.468 317.578 218.112C317.578 213.755 246.486 210.223 158.789 210.223C71.0922 210.223 0 213.755 0 218.112C0 222.468 71.0922 226 158.789 226Z" fill="#E9ECF2"/>
<path d="M7.86099 82.7558H7.35603C6.23694 72.9159 9.25304 63.3626 16.9093 52.7312L17.3187 53.0314C9.74435 63.5946 6.82378 73.0387 7.86099 82.7558Z" fill="white"/>
<path d="M4.68105 89.3472L4.20339 89.4973C-1.55586 71.155 8.29765 56.2929 18.7517 44.1875L19.1338 44.515C8.80261 56.5249 -0.996316 71.2369 4.68105 89.3472Z" fill="white"/>
<path d="M247.648 11.2289C236.102 5.31955 226.317 3.73643 216.873 6.22028L216.736 5.74262C226.29 3.21783 236.211 4.81459 247.88 10.7786L247.648 11.2289Z" fill="white"/>
<path d="M256.328 11.8703C242.926 3.38158 226.985 -4.1928 209.885 4.0776L209.667 3.62723C226.985 -4.75235 243.117 2.87662 256.573 11.4473L256.328 11.8703Z" fill="white"/>
<path d="M109.535 62.1752H108.798C108.798 61.7931 108.798 61.4246 108.798 61.0562H109.535C109.562 61.3973 109.549 61.8204 109.535 62.1752Z" fill="#3F5A9F"/>
<path d="M159.471 56.0475C159.267 55.3378 159.035 54.6827 158.775 53.9321L159.458 53.6728C159.735 54.3868 159.972 55.1158 160.167 55.8564L159.471 56.0475ZM109.835 58.8862L109.18 58.7633C109.303 58.0127 109.467 57.2621 109.644 56.5251L110.354 56.7026C110.108 57.4259 109.958 58.1492 109.835 58.8862ZM157.902 51.844C157.588 51.189 157.233 50.4793 156.865 49.8924L157.492 49.5103C157.875 50.1654 158.243 50.8751 158.571 51.5301L157.902 51.844ZM110.927 54.5735L110.231 54.3279C110.477 53.6182 110.763 52.9631 111.077 52.2125L111.746 52.5128C111.446 53.2088 111.173 53.8775 110.927 54.5735ZM155.582 48.0637C155.159 47.4768 154.695 46.8763 154.217 46.3168L154.763 45.8391C155.268 46.426 155.746 47.0265 156.128 47.6406L155.582 48.0637ZM112.742 50.4793L112.101 50.1245C112.469 49.4557 112.879 48.7597 113.302 48.1729L113.916 48.5823C113.493 49.2374 113.097 49.8788 112.742 50.4793ZM152.743 44.6654C152.211 44.1468 151.651 43.6419 151.092 43.1779L151.556 42.6047C152.143 43.096 152.716 43.6009 153.248 44.1332L152.743 44.6654ZM115.24 46.8354L114.639 46.385C115.12 45.7866 115.63 45.2127 116.168 44.6654L116.686 45.184C116.176 45.7092 115.693 46.2603 115.24 46.8354ZM149.358 41.8813C148.744 41.4719 148.117 41.0761 147.475 40.7077L147.83 40.0799C148.485 40.4484 149.195 40.8578 149.768 41.2809L149.358 41.8813ZM118.338 43.6555L117.846 43.096C118.433 42.6047 119.034 42.127 119.648 41.7312L120.098 42.2908C119.47 42.7002 118.897 43.1642 118.338 43.6555ZM145.428 39.7114C144.759 39.3975 144.063 39.1245 143.367 38.8789L143.613 38.1965C144.323 38.4422 144.978 38.7288 145.728 39.0427L145.428 39.7114ZM121.927 41.0761L121.558 40.4484C122.214 40.0526 122.923 39.6841 123.565 39.3566L123.892 40.0253C123.223 40.3119 122.568 40.6667 121.927 41.0488V41.0761ZM141.238 38.1965C140.515 38.0191 139.792 37.869 139.055 37.7461L139.177 37.0228C139.928 37.1457 140.679 37.2958 141.416 37.4868L141.238 38.1965ZM125.926 39.07L125.666 38.3876C126.376 38.1146 127.113 37.8826 127.85 37.6779L128.041 38.3739C127.331 38.6196 126.622 38.8516 125.926 39.1109V39.07ZM136.844 37.4868C136.107 37.4868 135.356 37.405 134.619 37.4186V36.6816C135.383 36.6816 136.148 36.6816 136.898 36.6816L136.844 37.4868ZM130.197 37.869L130.061 37.1457C130.798 37.0092 131.562 36.9 132.326 36.8181V37.5414C131.671 37.6643 130.934 37.7734 130.211 37.9099L130.197 37.869Z" fill="#3F5A9F"/>
<path d="M160.877 59.2136L160.154 59.3091C160.154 58.9543 160.045 58.5995 159.976 58.2446L160.7 58.1082C160.768 58.4766 160.822 58.8451 160.877 59.2136Z" fill="#3F5A9F"/>
<path d="M111.773 62.4072L109.112 63.6764L106.355 62.6529L109.344 68.958L111.773 62.4072Z" fill="#3F5A9F"/>
<path d="M86.812 98.6412C86.7028 96.9762 87.3851 95.011 87.8219 95.2157C88.2586 95.4204 87.8219 96.9626 88.1631 97.4266C88.4458 97.799 88.6354 98.2336 88.7161 98.6941C88.7968 99.1547 88.7663 99.6278 88.6271 100.074L86.812 98.6412Z" fill="#FCB47E"/>
<path d="M71.7859 215.027L70.4485 204.287H78.3231L78.6779 215.027H71.7859Z" fill="#FCB47E"/>
<path d="M78.528 210.387C75.5528 211.165 71.131 209.746 71.131 209.746L70.8171 207.208L78.4461 207.849L78.528 210.387Z" fill="#FCA377"/>
<path d="M34.2144 215.027L34.9377 204.287H42.8123L41.1064 215.027H34.2144Z" fill="#FCB47E"/>
<path d="M42.4439 206.58L41.9117 209.978C39.3751 210.149 36.8478 209.529 34.6785 208.204L34.8968 204.901L42.4439 206.58Z" fill="#FCA377"/>
<path d="M88.5316 208.299C88.5316 208.299 83.25 142.231 69.0702 110.105L55.8594 110.774C57.1067 143.51 60.788 176.109 66.8729 208.299C66.8729 208.299 79.2922 211.233 88.5316 208.299Z" fill="#3F5A9F"/>
<path d="M51.11 208.299C51.11 208.299 38.1175 210.401 30.6387 205.351C30.6387 205.351 34.5828 133.715 46.6745 110.228H60.9498C60.9498 110.228 60.4858 148.851 51.11 208.299Z" fill="#3F5A9F"/>
<path d="M47.0567 76.2184C47.4115 74.9765 48.0666 73.3797 48.0666 73.3797C47.883 74.4475 47.8144 75.5318 47.8619 76.6142C50.9462 77.9789 57.4151 79.876 67.3915 77.4194C67.2687 76.3958 67.2141 75.4269 67.2141 75.4269C67.398 76.0651 67.626 76.6899 67.8964 77.2966L68.9746 77.01C68.7558 75.8607 68.6145 74.6981 68.5515 73.5299C68.8829 74.6517 69.3408 75.7322 69.9163 76.7507C70.5304 76.5732 71.1445 76.3685 71.786 76.1638C71.786 76.1638 69.7934 73.1068 68.4833 65.2458C67.4051 58.7359 64.0615 55.6925 58.93 55.7881C48.4897 56.0747 45.7056 75.4405 45.7056 75.4405C46.1326 75.7384 46.5847 75.9986 47.0567 76.2184Z" fill="#374263"/>
<path d="M83.1543 99.201C83.1543 99.201 78.9645 80.3675 62.3282 79.3985C36.7255 77.8972 28.8508 94.5472 28.8508 94.5472L83.1543 99.201Z" fill="white"/>
<path d="M56.6373 60.5098C59.476 58.8994 64.43 58.8311 65.5628 62.6525C66.6136 66.1872 66.4498 76.8322 61.7278 76.6275C60.0107 76.5916 58.3638 75.9388 57.0883 74.7886C55.8128 73.6384 54.9939 72.0676 54.7812 70.3633C54.5901 69.5854 53.8122 62.1202 56.6373 60.5098Z" fill="#FCB47E"/>
<path d="M54.904 70.1724C54.904 70.1724 52.6931 70.8548 52.2837 68.8077C51.8742 66.7606 54.0442 66.3102 54.7266 67.1017L54.904 70.1724Z" fill="#FCB47E"/>
<path d="M85.4745 121.897C88.6408 115.687 91.111 101.221 91.111 101.221C92.1184 99.7426 92.8021 98.0683 93.1171 96.3076C93.1171 95.4614 92.735 94.9428 92.1618 95.243C91.9571 94.5607 91.5613 94.4378 91.0154 94.8336C90.7152 94.2468 90.3467 94.2741 89.9782 94.5607C89.1594 93.1959 87.549 97.4949 87.5626 98.0408C87.5762 98.5867 87.6718 99.7194 87.7264 100.102C87.781 100.484 78.1731 116.929 78.1731 116.929L85.4745 121.897Z" fill="#FCB47E"/>
<path d="M33.2864 206.511H32.8633C32.8633 205.802 37.7218 134.616 49.9363 111.484L50.3185 111.675C38.2131 134.698 33.3409 205.802 33.2864 206.511Z" fill="white"/>
<path d="M43.6721 98.7643L39.1685 124.394C50.8644 127.902 64.0615 124.749 74.8567 117.571L70.3803 92.309L62.069 79.6441C61.5495 80.2777 60.894 80.7862 60.1511 81.1319C59.4083 81.4776 58.5972 81.6517 57.7779 81.6412C56.9586 81.6307 56.1522 81.4359 55.4185 81.0713C54.6847 80.7067 54.0424 80.1816 53.5393 79.5349L41.898 84.4207L43.6721 98.7643Z" fill="white"/>
<path d="M86.2252 104.319L83.8642 98.4637C83.8642 98.4637 77.9548 86.4403 73.0963 83.3423L69.9846 104.359L86.2252 104.319Z" fill="white"/>
<path d="M58.6025 150.707H58.1931C58.8618 143.528 59.4214 136.513 59.8581 129.84H60.2675C59.8445 136.459 59.2849 143.528 58.6025 150.707Z" fill="#47393D"/>
<path d="M70.0528 208.449C69.9709 208.026 61.1955 165.964 58.7117 144.77H59.1211C61.6186 165.937 70.3803 207.971 70.4622 208.395L70.0528 208.449Z" fill="white"/>
<path d="M70.588 92.2762L70.1848 92.3474L74.6514 117.627L75.0545 117.556L70.588 92.2762Z" fill="#3F5A9F"/>
<path d="M53.1025 66.7743C53.3678 66.6458 53.6695 66.6137 53.9559 66.6835C54.2423 66.7532 54.4955 66.9204 54.672 67.1564C54.7971 66.2136 55.0592 65.2941 55.4499 64.4269L55.8047 66.2966C57.259 66.5316 58.7269 66.6729 60.1993 66.7197H62.3419L62.6967 63.6081L63.3791 66.6515C63.8431 66.6515 64.198 66.5696 64.5665 66.5286L64.8394 64.6862L65.3444 66.4195C65.8493 66.3376 66.1905 66.2557 66.3543 66.2147C66.4635 64.85 66.5044 61.3835 64.1707 59.391C61.4412 57.0436 55.832 58.3265 54.5082 61.1379C53.7075 62.9179 53.2315 64.8267 53.1025 66.7743Z" fill="#374263"/>
<path d="M58.3977 81.6909C59.1321 81.6495 59.848 81.4442 60.4927 81.0899C61.1374 80.7357 61.6947 80.2416 62.1235 79.6438L61.5366 72.8201L55.095 68.9851L53.4573 79.4937C54.7693 80.8211 56.5332 81.6056 58.3977 81.6909Z" fill="#FCB47E"/>
<path d="M61.5094 77.0102V76.6008C60.2476 76.4442 59.0466 75.9685 58.0198 75.2187C56.9929 74.4689 56.1742 73.4697 55.641 72.3154L55.2861 72.5065C55.8515 73.7269 56.7206 74.7818 57.8102 75.5703C58.8998 76.3588 60.1735 76.8546 61.5094 77.0102Z" fill="#374263"/>
<path d="M69.9845 220.091L89.8963 220.159C90.0593 220.159 90.2207 220.126 90.3704 220.061C90.52 219.997 90.6548 219.902 90.7662 219.783C90.8776 219.664 90.9632 219.523 91.0179 219.369C91.0725 219.216 91.0948 219.052 91.0836 218.89C91.0836 218.74 91.0836 218.589 91.0836 218.426C91.042 217.942 90.8878 217.474 90.6332 217.061C89.6916 215.805 87.9037 215.232 84.601 213.922C83.0071 213.27 81.4843 212.456 80.0564 211.493C79.9328 211.378 79.769 211.316 79.6004 211.322C79.4319 211.327 79.2721 211.398 79.1557 211.52C75.2115 215.355 72.7959 214.536 72.0726 212.885C71.5267 211.67 70.7078 211.929 70.5304 212.271C69.8336 214.197 69.4288 216.216 69.3294 218.262C69.3294 218.439 69.3294 218.603 69.3294 218.726C69.3294 218.849 69.3294 219.217 69.3294 219.217C69.3026 219.319 69.2992 219.425 69.3193 219.528C69.3394 219.631 69.3826 219.728 69.4456 219.813C69.5086 219.897 69.5898 219.965 69.6832 220.013C69.7765 220.062 69.8795 220.088 69.9845 220.091Z" fill="#374263"/>
<path d="M83.4138 215.955C83.8157 215.767 84.1488 215.458 84.3666 215.072C84.5844 214.685 84.6759 214.24 84.6284 213.799H84.2872C84.3288 214.172 84.2507 214.549 84.0643 214.876C83.8779 215.202 83.5928 215.46 83.25 215.614L83.4138 215.955Z" fill="white"/>
<path d="M85.1606 216.542C85.5337 216.353 85.8428 216.057 86.0491 215.693C86.2554 215.329 86.3498 214.912 86.3206 214.495H85.9794C85.9958 214.845 85.9105 215.193 85.7337 215.495C85.5569 215.798 85.2962 216.043 84.9832 216.201L85.1606 216.542Z" fill="white"/>
<path d="M73.9287 215.614C74.8126 215.599 75.6829 215.395 76.4808 215.014L76.3307 214.7C76.3307 214.7 73.2736 216.228 71.7178 214.291L71.4585 214.509C71.755 214.874 72.1329 215.164 72.562 215.356C72.991 215.548 73.4592 215.636 73.9287 215.614Z" fill="white"/>
<path d="M71.7693 218.538L71.7681 218.879L83.3684 218.922L83.3696 218.58L71.7693 218.538Z" fill="white"/>
<path d="M84.8616 218.595L84.8604 218.936L87.6035 218.946L87.6047 218.605L84.8616 218.595Z" fill="white"/>
<path d="M32.754 220.091L52.6521 220.159C52.8163 220.161 52.9792 220.13 53.1304 220.066C53.2817 220.002 53.4181 219.907 53.531 219.788C53.6439 219.669 53.7308 219.527 53.7862 219.373C53.8416 219.218 53.8644 219.054 53.853 218.89C53.853 218.74 53.853 218.59 53.853 218.426C53.8115 217.942 53.6572 217.475 53.4027 217.061C52.461 215.805 50.6732 215.232 47.3705 213.922C45.7766 213.27 44.2538 212.456 42.8258 211.493C42.704 211.415 42.5595 211.381 42.4158 211.396C42.2722 211.411 42.1377 211.474 42.0343 211.575C38.0902 215.41 35.6745 214.591 34.9512 212.94C34.4053 211.725 33.5865 211.984 33.4091 212.325C32.7122 214.251 32.3074 216.271 32.2081 218.317C32.1969 218.471 32.1969 218.626 32.2081 218.781V219.272C32.1719 219.453 32.2091 219.641 32.3115 219.794C32.4138 219.948 32.573 220.055 32.754 220.091Z" fill="#374263"/>
<path d="M46.1286 215.955C46.5306 215.767 46.8637 215.458 47.0815 215.072C47.2992 214.685 47.3908 214.24 47.3433 213.799H46.9884C47.0356 214.168 46.9629 214.542 46.7811 214.867C46.5992 215.191 46.3178 215.448 45.9785 215.601L46.1286 215.955Z" fill="white"/>
<path d="M47.8754 216.542C48.2463 216.35 48.5533 216.054 48.7593 215.691C48.9652 215.327 49.0612 214.912 49.0355 214.495H48.6943C48.7107 214.845 48.6253 215.193 48.4485 215.495C48.2717 215.798 48.0111 216.043 47.698 216.201L47.8754 216.542Z" fill="white"/>
<path d="M36.6435 215.614C37.5274 215.599 38.3978 215.395 39.1956 215.014L39.0455 214.7C39.0455 214.7 35.9885 216.228 34.4326 214.291L34.1733 214.509C34.4698 214.874 34.8478 215.164 35.2768 215.356C35.7059 215.548 36.174 215.636 36.6435 215.614Z" fill="white"/>
<path d="M34.4839 218.538L34.4827 218.879L46.083 218.921L46.0842 218.58L34.4839 218.538Z" fill="white"/>
<path d="M47.5764 218.595L47.5752 218.936L50.3183 218.946L50.3196 218.605L47.5764 218.595Z" fill="white"/>
<path d="M103.478 94.8815L36.9785 105.378C35.6012 105.596 34.6609 106.889 34.8783 108.266L41.6322 151.053C41.8496 152.431 43.1424 153.371 44.5198 153.154L111.02 142.657C112.397 142.439 113.337 141.147 113.12 139.769L106.366 96.9817C106.149 95.6044 104.856 94.664 103.478 94.8815Z" fill="#6D92F0"/>
<path d="M57.0835 132.124L45.1128 134.013C44.7405 134.072 44.4864 134.421 44.5451 134.794L44.909 137.099C44.9677 137.471 45.3172 137.725 45.6894 137.666L57.6602 135.777C58.0325 135.718 58.2866 135.369 58.2278 134.996L57.864 132.691C57.8052 132.319 57.4558 132.065 57.0835 132.124Z" fill="white"/>
<path d="M72.9051 129.633L60.9343 131.523C60.562 131.581 60.3079 131.931 60.3666 132.303L60.7305 134.608C60.7893 134.98 61.1387 135.235 61.5109 135.176L73.4817 133.286C73.854 133.227 74.1081 132.878 74.0494 132.506L73.6855 130.201C73.6267 129.828 73.2773 129.574 72.9051 129.633Z" fill="white"/>
<path d="M88.74 127.127L76.7692 129.017C76.397 129.075 76.1428 129.425 76.2016 129.797L76.5655 132.102C76.6242 132.475 76.9736 132.729 77.3459 132.67L89.3167 130.78C89.689 130.722 89.9431 130.372 89.8843 130L89.5205 127.695C89.4617 127.322 89.1123 127.068 88.74 127.127Z" fill="white"/>
<path d="M104.548 124.637L92.5771 126.526C92.2049 126.585 91.9507 126.934 92.0095 127.307L92.3733 129.612C92.4321 129.984 92.7815 130.238 93.1538 130.179L105.125 128.29C105.497 128.231 105.751 127.882 105.692 127.509L105.328 125.204C105.27 124.832 104.92 124.578 104.548 124.637Z" fill="white"/>
<path d="M105.536 131.799L89.7903 134.284C89.3362 134.356 89.0261 134.782 89.0978 135.236L89.4149 137.245C89.4866 137.699 89.9128 138.009 90.367 137.937L106.112 135.452C106.567 135.38 106.877 134.954 106.805 134.5L106.488 132.491C106.416 132.037 105.99 131.727 105.536 131.799Z" fill="white"/>
<path d="M45.105 118.54L44.3407 113.749C44.2621 113.246 44.386 112.733 44.6853 112.321C44.9845 111.909 45.4348 111.633 45.9375 111.552L55.2587 110.078C55.7612 110.003 56.273 110.128 56.6839 110.427C57.0949 110.726 57.3721 111.174 57.456 111.675L58.2066 116.479C58.2515 116.731 58.2455 116.989 58.1892 117.239C58.1329 117.489 58.0273 117.725 57.8786 117.933C57.7299 118.142 57.541 118.319 57.3232 118.453C57.1053 118.588 56.8628 118.677 56.6098 118.717L47.3022 120.082C46.8068 120.165 46.2984 120.05 45.8871 119.762C45.4759 119.473 45.1949 119.034 45.105 118.54ZM46.0194 112.057C45.8352 112.082 45.6579 112.143 45.4985 112.239C45.3391 112.334 45.2008 112.461 45.0922 112.612C44.9836 112.763 44.9069 112.934 44.8669 113.116C44.8268 113.297 44.8242 113.485 44.8593 113.667L45.6099 118.458C45.6328 118.643 45.6934 118.822 45.7882 118.983C45.8829 119.144 46.0097 119.284 46.1606 119.394C46.3116 119.504 46.4836 119.582 46.6658 119.623C46.8481 119.663 47.0368 119.666 47.2203 119.631L56.528 118.157C56.7134 118.135 56.8921 118.074 57.0531 117.979C57.2141 117.884 57.354 117.758 57.464 117.607C57.574 117.456 57.6519 117.284 57.6928 117.102C57.7337 116.919 57.7367 116.731 57.7016 116.547L56.9374 111.757C56.9129 111.573 56.851 111.395 56.7555 111.236C56.66 111.076 56.533 110.938 56.3823 110.83C56.2315 110.721 56.0601 110.644 55.8786 110.604C55.6972 110.564 55.5095 110.562 55.327 110.597L46.0194 112.057Z" fill="white"/>
<path d="M107.087 100.097L106.629 100.169L108.248 110.428L108.707 110.355L107.087 100.097Z" fill="#2E4882"/>
<path d="M73.3555 148.837V148.373L111.064 142.422C111.662 142.325 112.197 141.995 112.553 141.504C112.908 141.013 113.055 140.401 112.961 139.802L109.685 119.058L110.149 118.976L113.425 139.734C113.532 140.454 113.356 141.188 112.933 141.781C112.722 142.076 112.453 142.325 112.144 142.515C111.835 142.705 111.491 142.831 111.132 142.886L73.3555 148.837Z" fill="#2E4882"/>
<path d="M66.8069 149.399L52.8418 151.609L52.9143 152.067L66.8795 149.858L66.8069 149.399Z" fill="#2E4882"/>
<path d="M92.5984 95.2024C92.6666 95.2246 92.7293 95.261 92.7823 95.3094C92.8353 95.3577 92.8774 95.4167 92.9058 95.4826C92.9342 95.5484 92.9483 95.6196 92.947 95.6913C92.9458 95.763 92.9293 95.8336 92.8987 95.8984C92.6666 96.3897 92.2845 96.9083 92.0252 96.9356C91.5475 96.9356 91.7796 96.1441 92.0252 95.5709C92.0423 95.5062 92.0725 95.4457 92.1138 95.3931C92.1551 95.3405 92.2068 95.2969 92.2655 95.2649C92.3243 95.233 92.389 95.2134 92.4556 95.2073C92.5223 95.2013 92.5894 95.2089 92.653 95.2297L92.5984 95.2024Z" fill="#FCB47E"/>
<path d="M91.7796 95.1887C91.874 95.2562 91.9439 95.3528 91.9784 95.4636C92.0129 95.5745 92.0101 95.6936 91.9706 95.8028C91.7659 96.3487 91.3156 97.1676 90.8652 97.072C90.4148 96.9765 90.7696 96.1713 90.9471 95.4616C90.9763 95.3827 91.023 95.3113 91.0837 95.2529C91.1444 95.1945 91.2174 95.1505 91.2975 95.1243C91.3775 95.098 91.4624 95.0902 91.5459 95.1014C91.6293 95.1125 91.7092 95.1424 91.7796 95.1887Z" fill="#FCB47E"/>
<path d="M90.5923 94.9017C90.6574 94.9131 90.7195 94.9375 90.775 94.9734C90.8304 95.0094 90.878 95.0561 90.915 95.1109C90.9519 95.1657 90.9775 95.2274 90.99 95.2923C91.0026 95.3572 91.0019 95.4239 90.9881 95.4885C90.9591 95.8158 90.8507 96.131 90.6723 96.4068C90.494 96.6827 90.251 96.9109 89.9645 97.0716C89.4459 97.2491 89.7462 96.0208 89.9645 95.2565C89.9938 95.13 90.0719 95.0202 90.1819 94.9512C90.2919 94.8822 90.4247 94.8594 90.5514 94.888L90.5923 94.9017Z" fill="#FCB47E"/>
<path d="M89.6232 94.2468C89.7202 94.265 89.8115 94.3059 89.8898 94.3661C89.968 94.4263 90.031 94.5041 90.0736 94.5931C90.1161 94.6822 90.137 94.7801 90.1347 94.8788C90.1323 94.9775 90.1067 95.0742 90.0599 95.1611C89.8279 95.748 89.4185 96.4167 89.05 96.5259C88.6815 96.6351 88.8726 95.6388 89.05 94.8745C89.0636 94.5197 89.3229 94.1512 89.6232 94.2468Z" fill="#FCB47E"/>
<path d="M38.9638 121.078C38.9638 121.078 31.1847 109.682 43.2355 101.562L50.0592 82.1551V82.0322C41.9799 82.0322 33.3001 86.9317 28.5917 93.851C20.7307 105.438 21.5223 119.29 34.6921 126.441L38.9638 121.078Z" fill="white"/>
<path d="M42.9214 103.991L42.4983 103.909L43.672 97.9453L44.0951 98.0136L42.9214 103.991Z" fill="#3F5A9F"/>
<path d="M37.64 126.619C35.0247 125.334 32.7152 123.503 30.8671 121.25C29.0191 118.997 27.6754 116.374 26.9267 113.558C25.4118 107.321 27.0222 100.279 31.4713 93.7417L31.8262 93.9737C27.4453 100.429 25.8485 107.348 27.3498 113.462C28.0821 116.219 29.3966 118.786 31.2045 120.992C33.0125 123.198 35.272 124.991 37.8311 126.25L37.64 126.619Z" fill="#3F5A9F"/>
<path d="M38.2131 122.02C38.8474 122.608 39.5648 123.1 40.3421 123.48C40.8062 123.562 43.3582 123.657 43.29 124.203C43.2218 124.749 41.4749 124.326 41.4885 124.79C41.5022 125.254 44.9004 125.977 44.5456 126.578C44.3272 126.974 42.3483 126.127 42.3074 126.373C42.2664 126.619 44.9277 127.124 44.6275 127.738C44.3272 128.352 41.7478 126.783 41.6114 127.083C41.4749 127.383 44.6548 128.338 44.3409 128.83C44.027 129.321 41.6114 127.888 41.4203 128.161C41.2292 128.434 42.2801 128.707 42.785 129.021C43.0716 129.198 42.9761 129.457 42.785 129.444C40.3831 129.348 37.326 126.428 36.9985 126.291C36.671 126.155 35.8657 125.868 35.3335 125.65L38.2131 122.02Z" fill="#FCB47E"/>
<path d="M38.3087 106.884L37.9402 106.666C39.2427 104.537 41.0112 102.731 43.1126 101.385L43.3446 101.739C41.2986 103.052 39.5768 104.811 38.3087 106.884Z" fill="#3F5A9F"/>
<path d="M291.934 83.1106C291.934 83.2744 291.934 83.4245 291.934 83.5883C292.521 103.568 290.474 119.14 287.007 131.273L276.703 137.673L285.179 136.309H285.411C280.825 149.642 274.493 158.254 268.474 163.795C265.41 166.668 261.949 169.085 258.197 170.973C258.006 171.083 257.815 171.164 257.624 171.26C257.147 171.492 256.682 171.697 256.259 171.874L250.596 172.174C250.514 171.915 250.446 171.656 250.377 171.383C250.309 171.11 250.282 171.055 250.241 170.891C250.2 170.728 250.118 170.455 250.063 170.236C243.376 144.456 251.81 123.835 262.824 109.232C262.856 109.179 262.892 109.129 262.933 109.082C266.506 104.376 270.488 99.9964 274.834 95.9939L277.331 102.34L277.7 93.4008C282.031 89.6139 286.684 86.2119 291.606 83.2334L291.934 83.1106Z" fill="#9AADE5"/>
<path d="M292.139 83.2057L291.948 83.5878L280.32 107.935L280.116 108.372L276.949 115.004L276.84 115.223L266.727 136.39L266.714 136.417L250.241 170.905L249.995 171.423L249.6 172.242L249.108 172.269L249.491 171.451L250.064 170.25L266.318 136.213L266.632 135.585L291.607 83.3012L291.743 83.001L292.139 83.2057Z" fill="white"/>
<path d="M291.182 105.226L276.768 115.144L276.984 115.458L291.398 105.541L291.182 105.226Z" fill="white"/>
<path d="M291.276 100.379L279.974 108.149L280.19 108.464L291.493 100.693L291.276 100.379Z" fill="white"/>
<path d="M263.191 109.047L262.812 109.096L266.36 136.448L266.739 136.399L263.191 109.047Z" fill="white"/>
<path d="M248.385 176.61C248.385 176.61 261.814 182.956 280.907 171.574L274.711 168.626L284.824 169.035C292.275 163.822 300.45 155.879 308.939 143.924L306.578 142.805L309.635 142.927C311 140.88 312.515 138.724 313.961 136.431C309.408 136.158 304.84 136.304 300.314 136.868L296.22 142.436L297.393 137.264C280.934 139.748 257.065 148.332 248.385 176.61Z" fill="#BAC8F3"/>
<path d="M313.786 136.228L247.206 175.15L247.42 175.515L314 136.593L313.786 136.228Z" fill="white"/>
<path d="M296.589 146.553L296.548 146.947L306.078 147.93L306.119 147.536L296.589 146.553Z" fill="white"/>
<path d="M291.999 149.096L291.929 149.486L303.041 151.465L303.11 151.075L291.999 149.096Z" fill="white"/>
<path d="M264.011 152.14L263.67 151.758C269.569 146.612 276.436 142.696 283.869 140.239L284.032 140.717C276.666 143.155 269.859 147.039 264.011 152.14Z" fill="#2E4882"/>
<path d="M130.661 120.341L130.73 120.818C133.459 140.621 138.113 155.62 143.558 167.002L154.777 171.601L146.206 171.724H146.028C152.852 184.102 160.481 191.54 167.319 196.003C170.825 198.321 174.643 200.127 178.66 201.366L179.274 201.544C179.779 201.694 180.27 201.817 180.734 201.926L186.371 201.271L186.452 200.452C186.452 200.288 186.452 200.111 186.452 199.947C186.452 199.783 186.452 199.496 186.521 199.264C188.813 172.734 177.063 153.859 163.757 141.249L163.62 141.126C159.316 137.078 154.657 133.424 149.7 130.208L148.335 136.909L146.493 128.161C141.573 125.143 136.394 122.572 131.016 120.477L130.661 120.341Z" fill="#9AADE5"/>
<path d="M130.484 120.464L130.73 120.819L146.26 142.887L146.533 143.282L150.764 149.287L150.914 149.492L164.412 168.667L164.425 168.694L186.425 199.947L186.766 200.411L187.285 201.161L187.776 201.093L187.258 200.356L186.493 199.264L164.78 168.435L164.384 167.862L131.016 120.477L130.839 120.218L130.484 120.464Z" fill="white"/>
<path d="M135.079 142.011L134.918 142.358L150.787 149.727L150.948 149.381L135.079 142.011Z" fill="white"/>
<path d="M134.198 137.274L134.037 137.62L146.477 143.395L146.638 143.049L134.198 137.274Z" fill="white"/>
<path d="M163.733 141.11L163.351 141.125L164.424 168.686L164.806 168.671L163.733 141.11Z" fill="white"/>
<path d="M189.278 205.256C189.278 205.256 177.104 213.745 156.387 205.706L161.996 201.776L152.102 203.864C143.913 199.974 134.483 193.505 124.124 183.133L126.267 181.632L123.265 182.26C121.509 180.44 119.73 178.552 117.928 176.596C122.36 175.56 126.879 174.939 131.426 174.74L136.407 179.544L134.401 174.672C150.969 174.358 175.93 178.834 189.278 205.256Z" fill="#BAC8F3"/>
<path d="M117.987 176.392L117.838 176.788L189.986 204.036L190.136 203.64L117.987 176.392Z" fill="white"/>
<path d="M136.674 183.659L127.441 186.219L127.547 186.6L136.779 184.04L136.674 183.659Z" fill="white"/>
<path d="M141.588 185.431L130.964 189.24L131.097 189.612L141.722 185.804L141.588 185.431Z" fill="white"/>
<path d="M169.721 183.734L169.994 183.31C163.317 179.228 155.894 176.518 148.158 175.34L148.076 175.832C155.743 177.005 163.1 179.691 169.721 183.734Z" fill="#2E4882"/>
<path d="M191.952 217.552H178.305C176.2 217.555 174.175 216.746 172.65 215.295C171.126 213.844 170.218 211.862 170.116 209.759L162.446 76.1228C162.41 75.0248 162.595 73.9305 162.99 72.9053C163.385 71.8802 163.982 70.9449 164.746 70.1554C165.51 69.3659 166.425 68.7382 167.437 68.3097C168.449 67.8813 169.536 67.6608 170.635 67.6614H186.289L191.952 217.552Z" fill="#446BD0"/>
<path d="M259.03 76.1231L255.018 209.76C254.916 211.862 254.009 213.845 252.484 215.296C250.959 216.747 248.934 217.555 246.829 217.552H186.78C182.358 217.552 177.145 214.113 176.968 209.76L172.914 76.1231C172.878 75.025 173.062 73.9308 173.457 72.9056C173.852 71.8804 174.45 70.9452 175.214 70.1557C175.978 69.3661 176.893 68.7384 177.905 68.31C178.916 67.8815 180.004 67.661 181.103 67.6616H250.705C251.815 67.6425 252.918 67.8493 253.945 68.2695C254.973 68.6898 255.905 69.3146 256.683 70.106C257.462 70.8975 258.072 71.839 258.475 72.8734C258.878 73.9078 259.067 75.0134 259.03 76.1231Z" fill="#DCE8FF"/>
<path d="M189.496 76.9006H186.275C185.851 76.9002 185.444 77.0669 185.142 77.3647C184.844 77.6714 184.677 78.083 184.678 78.511C184.678 78.9345 184.846 79.3407 185.146 79.6401C185.445 79.9396 185.851 80.1078 186.275 80.1078H245.219C245.643 80.1078 246.051 79.94 246.353 79.641C246.654 79.3419 246.825 78.9358 246.829 78.511C246.829 78.0839 246.659 77.6743 246.357 77.3723C246.055 77.0703 245.646 76.9006 245.219 76.9006H189.496Z" fill="#3F5A9F"/>
<path d="M244.564 129.485H187.381C186.856 129.482 186.353 129.278 185.975 128.915C185.596 128.551 185.372 128.057 185.347 127.533L183.982 90.3436C183.971 90.0698 184.016 89.7965 184.113 89.5403C184.21 89.284 184.358 89.0501 184.548 88.8525C184.738 88.6549 184.966 88.4978 185.218 88.3905C185.47 88.2832 185.742 88.2281 186.016 88.2283H246.065C246.338 88.228 246.609 88.2832 246.861 88.3906C247.112 88.498 247.339 88.6554 247.528 88.8532C247.717 89.051 247.864 89.2851 247.959 89.5413C248.055 89.7975 248.098 90.0705 248.085 90.3436L246.72 127.533C246.711 127.804 246.648 128.071 246.534 128.318C246.42 128.564 246.258 128.785 246.057 128.967C245.855 129.149 245.619 129.289 245.363 129.378C245.106 129.467 244.835 129.503 244.564 129.485Z" fill="white"/>
<path d="M201.629 144.961H192.785C191.232 144.961 189.974 146.22 189.974 147.772V151.798C189.974 153.351 191.232 154.61 192.785 154.61H201.629C203.181 154.61 204.44 153.351 204.44 151.798V147.772C204.44 146.22 203.181 144.961 201.629 144.961Z" fill="#647CE2"/>
<path d="M201.629 160.697H192.785C191.232 160.697 189.974 161.955 189.974 163.508V167.534C189.974 169.087 191.232 170.346 192.785 170.346H201.629C203.181 170.346 204.44 169.087 204.44 167.534V163.508C204.44 161.955 203.181 160.697 201.629 160.697Z" fill="#647CE2"/>
<path d="M201.629 176.446H192.785C191.232 176.446 189.974 177.705 189.974 179.257V183.283C189.974 184.836 191.232 186.095 192.785 186.095H201.629C203.181 186.095 204.44 184.836 204.44 183.283V179.257C204.44 177.705 203.181 176.446 201.629 176.446Z" fill="#647CE2"/>
<path d="M201.629 192.182H192.785C191.232 192.182 189.974 193.44 189.974 194.993V199.019C189.974 200.572 191.232 201.83 192.785 201.83H201.629C203.181 201.83 204.44 200.572 204.44 199.019V194.993C204.44 193.44 203.181 192.182 201.629 192.182Z" fill="#3F5A9F"/>
<path d="M219.998 144.961H211.155C209.602 144.961 208.343 146.22 208.343 147.772V151.798C208.343 153.351 209.602 154.61 211.155 154.61H219.998C221.551 154.61 222.81 153.351 222.81 151.798V147.772C222.81 146.22 221.551 144.961 219.998 144.961Z" fill="#647CE2"/>
<path d="M219.998 160.697H211.155C209.602 160.697 208.343 161.955 208.343 163.508V167.534C208.343 169.087 209.602 170.346 211.155 170.346H219.998C221.551 170.346 222.81 169.087 222.81 167.534V163.508C222.81 161.955 221.551 160.697 219.998 160.697Z" fill="#647CE2"/>
<path d="M219.998 176.446H211.155C209.602 176.446 208.343 177.705 208.343 179.257V183.283C208.343 184.836 209.602 186.095 211.155 186.095H219.998C221.551 186.095 222.81 184.836 222.81 183.283V179.257C222.81 177.705 221.551 176.446 219.998 176.446Z" fill="#647CE2"/>
<path d="M219.998 192.182H211.155C209.602 192.182 208.343 193.44 208.343 194.993V199.019C208.343 200.572 209.602 201.83 211.155 201.83H219.998C221.551 201.83 222.81 200.572 222.81 199.019V194.993C222.81 193.44 221.551 192.182 219.998 192.182Z" fill="#647CE2"/>
<path d="M238.368 144.961H229.524C227.971 144.961 226.713 146.22 226.713 147.772V151.798C226.713 153.351 227.971 154.61 229.524 154.61H238.368C239.92 154.61 241.179 153.351 241.179 151.798V147.772C241.179 146.22 239.92 144.961 238.368 144.961Z" fill="#647CE2"/>
<path d="M238.368 160.697H229.524C227.971 160.697 226.713 161.955 226.713 163.508V167.534C226.713 169.087 227.971 170.346 229.524 170.346H238.368C239.92 170.346 241.179 169.087 241.179 167.534V163.508C241.179 161.955 239.92 160.697 238.368 160.697Z" fill="#647CE2"/>
<path d="M238.368 176.446H229.524C227.971 176.446 226.713 177.705 226.713 179.257V183.283C226.713 184.836 227.971 186.095 229.524 186.095H238.368C239.92 186.095 241.179 184.836 241.179 183.283V179.257C241.179 177.705 239.92 176.446 238.368 176.446Z" fill="#647CE2"/>
<path d="M238.368 192.182H229.524C227.971 192.182 226.713 193.44 226.713 194.993V199.019C226.713 200.572 227.971 201.83 229.524 201.83H238.368C239.92 201.83 241.179 200.572 241.179 199.019V194.993C241.179 193.44 239.92 192.182 238.368 192.182Z" fill="#3F5A9F"/>
<path d="M204.262 144.961H195.419C193.866 144.961 192.607 146.22 192.607 147.772V151.798C192.607 153.351 193.866 154.61 195.419 154.61H204.262C205.815 154.61 207.074 153.351 207.074 151.798V147.772C207.074 146.22 205.815 144.961 204.262 144.961Z" fill="#6D92F0"/>
<path d="M204.262 160.697H195.419C193.866 160.697 192.607 161.955 192.607 163.508V167.534C192.607 169.087 193.866 170.346 195.419 170.346H204.262C205.815 170.346 207.074 169.087 207.074 167.534V163.508C207.074 161.955 205.815 160.697 204.262 160.697Z" fill="#6D92F0"/>
<path d="M204.262 176.446H195.419C193.866 176.446 192.607 177.705 192.607 179.257V183.283C192.607 184.836 193.866 186.095 195.419 186.095H204.262C205.815 186.095 207.074 184.836 207.074 183.283V179.257C207.074 177.705 205.815 176.446 204.262 176.446Z" fill="#6D92F0"/>
<path d="M204.262 192.182H195.419C193.866 192.182 192.607 193.44 192.607 194.993V199.019C192.607 200.572 193.866 201.83 195.419 201.83H204.262C205.815 201.83 207.074 200.572 207.074 199.019V194.993C207.074 193.44 205.815 192.182 204.262 192.182Z" fill="#3F5A9F"/>
<path d="M222.618 144.961H213.775C212.222 144.961 210.963 146.22 210.963 147.772V151.798C210.963 153.351 212.222 154.61 213.775 154.61H222.618C224.171 154.61 225.43 153.351 225.43 151.798V147.772C225.43 146.22 224.171 144.961 222.618 144.961Z" fill="#6D92F0"/>
<path d="M222.618 160.697H213.775C212.222 160.697 210.963 161.955 210.963 163.508V167.534C210.963 169.087 212.222 170.346 213.775 170.346H222.618C224.171 170.346 225.43 169.087 225.43 167.534V163.508C225.43 161.955 224.171 160.697 222.618 160.697Z" fill="#6D92F0"/>
<path d="M222.618 176.446H213.775C212.222 176.446 210.963 177.705 210.963 179.257V183.283C210.963 184.836 212.222 186.095 213.775 186.095H222.618C224.171 186.095 225.43 184.836 225.43 183.283V179.257C225.43 177.705 224.171 176.446 222.618 176.446Z" fill="#6D92F0"/>
<path d="M222.618 192.182H213.775C212.222 192.182 210.963 193.44 210.963 194.993V199.019C210.963 200.572 212.222 201.83 213.775 201.83H222.618C224.171 201.83 225.43 200.572 225.43 199.019V194.993C225.43 193.44 224.171 192.182 222.618 192.182Z" fill="#6D92F0"/>
<path d="M240.988 144.961H232.144C230.592 144.961 229.333 146.22 229.333 147.772V151.798C229.333 153.351 230.592 154.61 232.144 154.61H240.988C242.541 154.61 243.799 153.351 243.799 151.798V147.772C243.799 146.22 242.541 144.961 240.988 144.961Z" fill="#6D92F0"/>
<path d="M240.988 160.697H232.144C230.592 160.697 229.333 161.955 229.333 163.508V167.534C229.333 169.087 230.592 170.346 232.144 170.346H240.988C242.541 170.346 243.799 169.087 243.799 167.534V163.508C243.799 161.955 242.541 160.697 240.988 160.697Z" fill="#6D92F0"/>
<path d="M240.988 176.446H232.144C230.592 176.446 229.333 177.705 229.333 179.257V183.283C229.333 184.836 230.592 186.095 232.144 186.095H240.988C242.541 186.095 243.799 184.836 243.799 183.283V179.257C243.799 177.705 242.541 176.446 240.988 176.446Z" fill="#6D92F0"/>
<path d="M240.988 192.182H232.144C230.592 192.182 229.333 193.44 229.333 194.993V199.019C229.333 200.572 230.592 201.83 232.144 201.83H240.988C242.541 201.83 243.799 200.572 243.799 199.019V194.993C243.799 193.44 242.541 192.182 240.988 192.182Z" fill="#3F5A9F"/>
<path d="M204.262 154.869H195.419C194.603 154.869 193.821 154.546 193.243 153.971C192.665 153.395 192.338 152.614 192.334 151.798V147.772C192.338 146.957 192.665 146.176 193.243 145.6C193.821 145.025 194.603 144.702 195.419 144.702H204.262C205.077 144.702 205.858 145.025 206.434 145.601C207.01 146.177 207.333 146.958 207.333 147.772V151.798C207.333 152.613 207.01 153.394 206.434 153.97C205.858 154.546 205.077 154.869 204.262 154.869ZM195.419 145.22C194.742 145.22 194.093 145.489 193.614 145.968C193.136 146.446 192.867 147.095 192.867 147.772V151.798C192.867 152.475 193.136 153.124 193.614 153.603C194.093 154.082 194.742 154.35 195.419 154.35H204.262C204.939 154.35 205.588 154.082 206.067 153.603C206.546 153.124 206.814 152.475 206.814 151.798V147.772C206.814 147.095 206.546 146.446 206.067 145.968C205.588 145.489 204.939 145.22 204.262 145.22H195.419Z" fill="white"/>
<path d="M204.262 170.578H195.419C194.603 170.578 193.821 170.254 193.243 169.679C192.665 169.104 192.338 168.323 192.334 167.507V163.494C192.334 162.676 192.659 161.892 193.238 161.314C193.816 160.735 194.601 160.41 195.419 160.41H204.262C205.078 160.414 205.859 160.74 206.435 161.318C207.01 161.896 207.333 162.679 207.333 163.494V167.507C207.333 168.321 207.01 169.102 206.434 169.678C205.858 170.254 205.077 170.578 204.262 170.578ZM195.419 161.024C194.742 161.024 194.093 161.293 193.614 161.772C193.136 162.25 192.867 162.9 192.867 163.576V167.589C192.867 168.266 193.136 168.915 193.614 169.393C194.093 169.872 194.742 170.141 195.419 170.141H204.262C204.939 170.141 205.588 169.872 206.067 169.393C206.546 168.915 206.814 168.266 206.814 167.589V163.576C206.814 162.9 206.546 162.25 206.067 161.772C205.588 161.293 204.939 161.024 204.262 161.024H195.419Z" fill="white"/>
<path d="M204.262 186.354H195.419C194.601 186.354 193.816 186.029 193.238 185.45C192.659 184.872 192.334 184.087 192.334 183.269V179.257C192.338 178.441 192.665 177.66 193.243 177.085C193.821 176.509 194.603 176.186 195.419 176.186H204.262C205.077 176.186 205.858 176.51 206.434 177.086C207.01 177.662 207.333 178.443 207.333 179.257V183.269C207.333 184.085 207.01 184.867 206.435 185.445C205.859 186.024 205.078 186.35 204.262 186.354ZM195.419 176.705C194.742 176.705 194.093 176.974 193.614 177.452C193.136 177.931 192.867 178.58 192.867 179.257V183.269C192.867 183.946 193.136 184.595 193.614 185.074C194.093 185.553 194.742 185.821 195.419 185.821H204.262C204.939 185.821 205.588 185.553 206.067 185.074C206.546 184.595 206.814 183.946 206.814 183.269V179.257C206.814 178.58 206.546 177.931 206.067 177.452C205.588 176.974 204.939 176.705 204.262 176.705H195.419Z" fill="white"/>
<path d="M204.262 202.09H195.419C194.603 202.09 193.821 201.767 193.243 201.191C192.665 200.616 192.338 199.835 192.334 199.019V194.925C192.338 194.109 192.665 193.328 193.243 192.753C193.821 192.177 194.603 191.854 195.419 191.854H204.262C205.077 191.854 205.858 192.178 206.434 192.753C207.01 193.329 207.333 194.11 207.333 194.925V199.019C207.333 199.833 207.01 200.614 206.434 201.19C205.858 201.766 205.077 202.09 204.262 202.09ZM195.419 192.414C194.742 192.414 194.093 192.682 193.614 193.161C193.136 193.64 192.867 194.289 192.867 194.966V199.06C192.867 199.737 193.136 200.386 193.614 200.865C194.093 201.343 194.742 201.612 195.419 201.612H204.262C204.939 201.612 205.588 201.343 206.067 200.865C206.546 200.386 206.814 199.737 206.814 199.06V194.966C206.814 194.289 206.546 193.64 206.067 193.161C205.588 192.682 204.939 192.414 204.262 192.414H195.419Z" fill="white"/>
<path d="M222.618 154.869H213.775C212.96 154.869 212.179 154.546 211.603 153.97C211.028 153.394 210.704 152.613 210.704 151.798V147.772C210.704 146.958 211.028 146.177 211.603 145.601C212.179 145.025 212.96 144.702 213.775 144.702H222.618C223.434 144.702 224.217 145.025 224.795 145.6C225.373 146.176 225.699 146.957 225.703 147.772V151.798C225.699 152.614 225.373 153.395 224.795 153.971C224.217 154.546 223.434 154.869 222.618 154.869ZM213.775 145.22C213.1 145.224 212.455 145.494 211.979 145.973C211.503 146.451 211.236 147.098 211.236 147.772V151.798C211.236 152.473 211.503 153.12 211.979 153.598C212.455 154.076 213.1 154.347 213.775 154.35H222.618C223.295 154.35 223.944 154.082 224.423 153.603C224.902 153.124 225.17 152.475 225.17 151.798V147.772C225.17 147.095 224.902 146.446 224.423 145.968C223.944 145.489 223.295 145.22 222.618 145.22H213.775Z" fill="white"/>
<path d="M222.618 170.578H213.775C212.96 170.578 212.179 170.254 211.603 169.678C211.028 169.102 210.704 168.321 210.704 167.507V163.494C210.704 162.679 211.027 161.896 211.603 161.318C212.178 160.74 212.959 160.414 213.775 160.41H222.618C223.436 160.41 224.221 160.735 224.799 161.314C225.378 161.892 225.703 162.676 225.703 163.494V167.507C225.699 168.323 225.373 169.104 224.795 169.679C224.217 170.254 223.434 170.578 222.618 170.578ZM213.775 161.024C213.44 161.024 213.109 161.09 212.8 161.219C212.491 161.347 212.211 161.535 211.975 161.773C211.739 162.01 211.552 162.291 211.426 162.601C211.299 162.91 211.235 163.242 211.236 163.576V167.589C211.236 168.263 211.503 168.91 211.979 169.389C212.455 169.867 213.1 170.137 213.775 170.141H222.618C223.295 170.141 223.944 169.872 224.423 169.393C224.902 168.915 225.17 168.266 225.17 167.589V163.576C225.17 162.9 224.902 162.25 224.423 161.772C223.944 161.293 223.295 161.024 222.618 161.024H213.775Z" fill="white"/>
<path d="M222.618 186.354H213.775C212.959 186.35 212.178 186.024 211.603 185.445C211.027 184.867 210.704 184.085 210.704 183.269V179.257C210.704 178.443 211.028 177.662 211.603 177.086C212.179 176.51 212.96 176.186 213.775 176.186H222.618C223.434 176.186 224.217 176.509 224.795 177.085C225.373 177.66 225.699 178.441 225.703 179.257V183.269C225.703 184.087 225.378 184.872 224.799 185.45C224.221 186.029 223.436 186.354 222.618 186.354ZM213.775 176.705C213.1 176.708 212.455 176.979 211.979 177.457C211.503 177.935 211.236 178.582 211.236 179.257V183.269C211.236 183.944 211.503 184.591 211.979 185.069C212.455 185.547 213.1 185.818 213.775 185.821H222.618C222.955 185.823 223.288 185.759 223.599 185.631C223.91 185.504 224.193 185.316 224.432 185.079C224.67 184.842 224.859 184.56 224.989 184.249C225.118 183.939 225.184 183.606 225.184 183.269V179.257C225.184 178.58 224.915 177.931 224.437 177.452C223.958 176.974 223.309 176.705 222.632 176.705H213.775Z" fill="white"/>
<path d="M222.618 202.09H213.775C212.96 202.09 212.179 201.766 211.603 201.19C211.028 200.614 210.704 199.833 210.704 199.019V194.925C210.704 194.11 211.028 193.329 211.603 192.753C212.179 192.178 212.96 191.854 213.775 191.854H222.618C223.434 191.854 224.217 192.177 224.795 192.753C225.373 193.328 225.699 194.109 225.703 194.925V199.019C225.699 199.835 225.373 200.616 224.795 201.191C224.217 201.767 223.434 202.09 222.618 202.09ZM213.775 192.414C213.1 192.417 212.455 192.688 211.979 193.166C211.503 193.644 211.236 194.291 211.236 194.966V199.06C211.236 199.734 211.503 200.381 211.979 200.86C212.455 201.338 213.1 201.608 213.775 201.612H222.618C223.295 201.612 223.944 201.343 224.423 200.865C224.902 200.386 225.17 199.737 225.17 199.06V194.966C225.17 194.289 224.902 193.64 224.423 193.161C223.944 192.682 223.295 192.414 222.618 192.414H213.775Z" fill="white"/>
<path d="M240.988 154.869H232.144C231.33 154.869 230.549 154.545 229.973 153.97C229.397 153.394 229.074 152.613 229.074 151.798V147.772C229.066 147.364 229.141 146.959 229.292 146.58C229.443 146.202 229.668 145.857 229.954 145.566C230.239 145.275 230.58 145.044 230.957 144.886C231.333 144.728 231.737 144.647 232.144 144.647H240.988C241.802 144.647 242.583 144.97 243.159 145.546C243.735 146.122 244.059 146.903 244.059 147.718V151.744C244.066 152.152 243.992 152.557 243.841 152.936C243.69 153.314 243.465 153.659 243.179 153.95C242.893 154.241 242.552 154.472 242.176 154.63C241.8 154.788 241.396 154.869 240.988 154.869ZM232.144 145.22C231.468 145.22 230.818 145.489 230.34 145.968C229.861 146.446 229.592 147.095 229.592 147.772V151.798C229.592 152.475 229.861 153.124 230.34 153.603C230.818 154.081 231.468 154.35 232.144 154.35H240.988C241.665 154.35 242.314 154.081 242.793 153.603C243.271 153.124 243.54 152.475 243.54 151.798V147.772C243.54 147.095 243.271 146.446 242.793 145.968C242.314 145.489 241.665 145.22 240.988 145.22H232.144Z" fill="white"/>
<path d="M240.988 170.578H232.144C231.33 170.578 230.549 170.254 229.973 169.678C229.397 169.102 229.074 168.321 229.074 167.507V163.494C229.074 162.679 229.397 161.896 229.972 161.318C230.548 160.74 231.329 160.414 232.144 160.41H240.988C241.804 160.414 242.585 160.74 243.16 161.318C243.736 161.896 244.059 162.679 244.059 163.494V167.507C244.059 168.321 243.735 169.102 243.159 169.678C242.583 170.254 241.802 170.578 240.988 170.578ZM232.144 161.024C231.468 161.024 230.818 161.293 230.34 161.772C229.861 162.25 229.592 162.9 229.592 163.576V167.589C229.592 168.266 229.861 168.915 230.34 169.393C230.818 169.872 231.468 170.141 232.144 170.141H240.988C241.665 170.141 242.314 169.872 242.793 169.393C243.271 168.915 243.54 168.266 243.54 167.589V163.576C243.54 162.9 243.271 162.25 242.793 161.772C242.314 161.293 241.665 161.024 240.988 161.024H232.144Z" fill="white"/>
<path d="M240.988 186.354H232.144C231.329 186.35 230.548 186.024 229.972 185.445C229.397 184.867 229.074 184.085 229.074 183.269V179.257C229.074 178.443 229.397 177.662 229.973 177.086C230.549 176.51 231.33 176.186 232.144 176.186H240.988C241.802 176.186 242.583 176.51 243.159 177.086C243.735 177.662 244.059 178.443 244.059 179.257V183.269C244.059 184.085 243.736 184.867 243.16 185.445C242.585 186.024 241.804 186.35 240.988 186.354ZM232.144 176.705C231.468 176.705 230.818 176.974 230.34 177.452C229.861 177.931 229.592 178.58 229.592 179.257V183.269C229.592 183.946 229.861 184.595 230.34 185.074C230.818 185.553 231.468 185.821 232.144 185.821H240.988C241.665 185.821 242.314 185.553 242.793 185.074C243.271 184.595 243.54 183.946 243.54 183.269V179.257C243.54 178.58 243.271 177.931 242.793 177.452C242.314 176.974 241.665 176.705 240.988 176.705H232.144Z" fill="white"/>
<path d="M240.988 202.09H232.144C231.33 202.09 230.549 201.766 229.973 201.19C229.397 200.614 229.074 199.833 229.074 199.019V194.925C229.074 194.11 229.397 193.329 229.973 192.753C230.549 192.178 231.33 191.854 232.144 191.854H240.988C241.802 191.854 242.583 192.178 243.159 192.753C243.735 193.329 244.059 194.11 244.059 194.925V199.019C244.059 199.833 243.735 200.614 243.159 201.19C242.583 201.766 241.802 202.09 240.988 202.09ZM232.144 192.414C231.468 192.414 230.818 192.682 230.34 193.161C229.861 193.64 229.592 194.289 229.592 194.966V199.06C229.592 199.737 229.861 200.386 230.34 200.865C230.818 201.343 231.468 201.612 232.144 201.612H240.988C241.665 201.612 242.314 201.343 242.793 200.865C243.271 200.386 243.54 199.737 243.54 199.06V194.966C243.54 194.289 243.271 193.64 242.793 193.161C242.314 192.682 241.665 192.414 240.988 192.414H232.144Z" fill="white"/>
<path d="M239.487 217.907H186.739C182.195 217.907 176.763 214.359 176.572 209.719L172.559 76.1367C172.51 75.0008 172.693 73.8667 173.096 72.8038C173.5 71.7408 174.116 70.7713 174.907 69.9544C175.714 69.112 176.685 68.4428 177.76 67.9876C178.834 67.5324 179.99 67.3008 181.157 67.3068H250.76C251.927 67.3016 253.082 67.5336 254.157 67.9887C255.231 68.4438 256.202 69.1126 257.01 69.9544C257.797 70.7738 258.409 71.7441 258.81 72.8066C259.211 73.8692 259.393 75.002 259.344 76.1367L259.126 83.4245H258.43L258.648 76.1231C258.705 75.0856 258.55 74.0473 258.194 73.0714C257.837 72.0955 257.286 71.2022 256.574 70.4457C255.835 69.6693 254.946 69.0522 253.96 68.6321C252.974 68.212 251.913 67.9978 250.842 68.0028H181.239C180.168 67.9978 179.107 68.212 178.121 68.6321C177.135 69.0522 176.246 69.6693 175.507 70.4457C174.774 71.1896 174.202 72.0762 173.827 73.0506C173.451 74.0249 173.28 75.0661 173.324 76.1094L177.336 209.746C177.5 213.949 182.563 217.198 186.794 217.198H239.541L239.487 217.907Z" fill="#3F5A9F"/>
<path d="M257.834 103.938L255.514 181.64L256.223 181.661L258.543 103.96L257.834 103.938Z" fill="#3F5A9F"/>
<path d="M241.984 51.1892V80.1083H189.564V51.1892C189.438 49.2541 188.573 47.4415 187.149 46.1259C185.716 44.7962 183.835 44.0554 181.881 44.0515H234.301C236.255 44.0554 238.136 44.7962 239.569 46.1259C240.993 47.4415 241.858 49.2541 241.984 51.1892Z" fill="white"/>
<path d="M189.564 51.1888H174.183C174.309 49.2507 175.179 47.4363 176.613 46.1256C178.043 44.7921 179.925 44.0505 181.881 44.0505C183.836 44.0505 185.718 44.7921 187.149 46.1256C188.573 47.4411 189.438 49.2537 189.564 51.1888Z" fill="#2E4882"/>
<path d="M242.216 80.3403H189.332V51.1892C189.199 49.3185 188.354 47.5699 186.971 46.3034C185.587 45.0075 183.763 44.2855 181.867 44.2836V43.8195H234.287C236.312 43.8048 238.266 44.5667 239.746 45.9486C241.223 47.3027 242.118 49.1759 242.244 51.1756L242.216 80.3403ZM189.796 79.8763H241.752V51.2165C241.629 49.3422 240.788 47.5875 239.405 46.317C238.021 45.0211 236.197 44.2992 234.301 44.2972H184.569C185.581 44.6638 186.51 45.23 187.299 45.9622C188.773 47.318 189.668 49.1903 189.796 51.1892V79.8763Z" fill="#2E4882"/>
<path d="M245.219 80.3401H186.275C185.904 80.3586 185.535 80.2635 185.219 80.0675C184.904 79.8714 184.655 79.5837 184.507 79.2427C184.358 78.9018 184.318 78.5237 184.39 78.1589C184.462 77.7942 184.643 77.4601 184.91 77.2011C185.086 77.0186 185.299 76.8755 185.534 76.7814C185.769 76.6873 186.022 76.6443 186.275 76.6552H189.496V77.1329H186.275C186.095 77.1319 185.917 77.1663 185.751 77.2342C185.585 77.3021 185.434 77.4022 185.306 77.5287C185.109 77.7188 184.973 77.9638 184.917 78.232C184.861 78.5001 184.887 78.779 184.991 79.0322C185.096 79.2854 185.274 79.5014 185.503 79.6519C185.732 79.8024 186.001 79.8805 186.275 79.876H245.219C245.581 79.876 245.928 79.7323 246.184 79.4763C246.44 79.2204 246.583 78.8732 246.583 78.5113C246.583 78.1493 246.44 77.8022 246.184 77.5463C245.928 77.2903 245.581 77.1465 245.219 77.1465H241.998V76.6689H245.219C245.699 76.683 246.155 76.8829 246.491 77.2265C246.827 77.5702 247.017 78.0307 247.02 78.5113C247.031 78.7645 246.988 79.0171 246.894 79.2524C246.8 79.4877 246.657 79.7002 246.474 79.876C246.129 80.1838 245.681 80.3496 245.219 80.3401Z" fill="#2E4882"/>
<path d="M247.457 219.586C247.457 220.95 257.01 221.947 268.761 221.947C280.511 221.947 290.078 220.896 290.078 219.586V213.212H247.471V219.572C247.466 219.576 247.461 219.581 247.457 219.586Z" fill="#F49B51"/>
<path d="M268.761 215.573C280.527 215.573 290.065 214.516 290.065 213.212C290.065 211.908 280.527 210.851 268.761 210.851C256.995 210.851 247.457 211.908 247.457 213.212C247.457 214.516 256.995 215.573 268.761 215.573Z" fill="#FCC659"/>
<path d="M242.421 211.902C242.421 213.199 251.974 214.263 263.725 214.263C275.475 214.263 285.042 213.199 285.042 211.902C285.042 211.902 285.042 211.902 285.042 211.834V205.46H242.435V211.82C242.424 211.846 242.419 211.874 242.421 211.902Z" fill="#F49B51"/>
<path d="M263.725 207.89C275.49 207.89 285.028 206.833 285.028 205.529C285.028 204.225 275.49 203.168 263.725 203.168C251.959 203.168 242.421 204.225 242.421 205.529C242.421 206.833 251.959 207.89 263.725 207.89Z" fill="#FCC659"/>
<path d="M247.457 204.218C247.457 205.515 257.01 206.58 268.761 206.58C280.511 206.58 290.078 205.515 290.078 204.218C290.078 204.218 290.078 204.219 290.078 204.15V197.777H247.471V204.137C247.46 204.162 247.455 204.19 247.457 204.218Z" fill="#F49B51"/>
<path d="M268.761 200.192C280.527 200.192 290.065 199.135 290.065 197.831C290.065 196.528 280.527 195.47 268.761 195.47C256.995 195.47 247.457 196.528 247.457 197.831C247.457 199.135 256.995 200.192 268.761 200.192Z" fill="#FCC659"/>
<path d="M268.761 222.192C277.427 222.192 290.324 221.496 290.324 219.586H289.819C289.819 220.323 282.586 221.687 268.761 221.687H267.26V222.192H268.761Z" fill="#2E4882"/>
<path d="M260.313 222.001V221.496C258.156 221.401 256.218 221.251 254.431 221.087V221.578C256.164 221.756 258.143 221.906 260.313 222.001Z" fill="#2E4882"/>
<path d="M277.168 213.949C285.179 213.212 285.179 212.203 285.179 211.875H284.674C284.674 212.121 283.309 212.885 277.127 213.444L277.168 213.949Z" fill="#2E4882"/>
<path d="M263.616 214.481C266.018 214.481 268.365 214.481 270.617 214.358V213.854C266.604 214.004 262.183 214.017 258.047 213.854V214.358C259.835 214.454 261.719 214.481 263.616 214.481Z" fill="#2E4882"/>
<path d="M252.711 214.154V213.649C250.432 213.499 248.453 213.308 246.816 213.076V213.567C248.385 213.813 250.432 214.004 252.711 214.154Z" fill="#2E4882"/>
<path d="M283.09 199.838C290.187 199.114 290.187 198.2 290.187 197.859H289.696C289.696 197.859 289.505 198.677 283.036 199.346L283.09 199.838Z" fill="#2E4882"/>
<path d="M268.638 200.466C271.081 200.466 273.483 200.466 275.748 200.329V199.838C273.483 199.92 271.094 199.961 268.651 199.961C264.271 199.961 260.067 199.824 256.505 199.551V200.043C260.04 200.329 264.243 200.466 268.638 200.466Z" fill="#2E4882"/>
<path d="M239.896 196.508C239.896 197.804 249.45 198.869 261.214 198.869C272.978 198.869 282.504 197.872 282.504 196.508C282.51 196.485 282.51 196.462 282.504 196.439V190.093H239.91V196.508H239.896Z" fill="#F49B51"/>
<path d="M261.213 192.509C272.979 192.509 282.517 191.452 282.517 190.148C282.517 188.844 272.979 187.787 261.213 187.787C249.448 187.787 239.91 188.844 239.91 190.148C239.91 191.452 249.448 192.509 261.213 192.509Z" fill="#FCC659"/>
<path d="M243.854 190.148C243.854 191.021 251.619 191.731 261.214 191.731C270.808 191.731 278.573 191.021 278.573 190.148C278.573 189.274 270.794 188.565 261.214 188.565C251.633 188.565 243.854 189.274 243.854 190.148Z" fill="#F49B51"/>
<path d="M236.389 56.7708H224.993V58.1764H236.389V56.7708Z" fill="#E1EAFF"/>
<path d="M219.712 56.7708H196.811V58.1764H219.712V56.7708Z" fill="#E1EAFF"/>
<path d="M236.375 62.8708H209.994V64.2765H236.375V62.8708Z" fill="#E1EAFF"/>
<path d="M206.76 62.8708H196.811V64.2765H206.76V62.8708Z" fill="#E1EAFF"/>
<path d="M231.462 69.4492H220.667V70.8549H231.462V69.4492Z" fill="#E1EAFF"/>
<path d="M216.122 69.4492H196.811V70.8549H216.122V69.4492Z" fill="#E1EAFF"/>
<path d="M215.317 129.143H201.028V129.853H215.317V129.143Z" fill="#3F5A9F"/>
<path d="M244.564 129.839H220.858V129.143H244.564C245 129.144 245.418 128.974 245.732 128.671C246.045 128.368 246.228 127.955 246.242 127.519L247.484 94.97H248.18L246.938 127.533C246.921 128.151 246.663 128.737 246.219 129.168C245.776 129.599 245.182 129.84 244.564 129.839Z" fill="#3F5A9F"/>
<path d="M112.442 80.1354C109.642 79.5808 106.74 79.8689 104.103 80.9631C101.466 82.0573 99.2127 83.9086 97.6277 86.283C96.0428 88.6574 95.1973 91.4484 95.198 94.3032C95.1987 97.158 96.0457 99.9486 97.6319 102.322C99.2181 104.696 101.472 106.546 104.11 107.639C106.747 108.732 109.649 109.018 112.449 108.462C115.25 107.906 117.822 106.532 119.842 104.515C121.861 102.497 123.238 99.9261 123.797 97.1266C124.543 93.3677 123.767 89.4662 121.638 86.2799C119.508 83.0936 116.201 80.8834 112.442 80.1354ZM121.026 96.5807C120.58 98.8232 119.483 100.884 117.872 102.507C116.261 104.129 114.207 105.24 111.967 105.701C109.728 106.162 107.402 105.953 105.281 105.1C103.16 104.246 101.338 102.786 100.042 100.902C98.7461 99.0186 98.0344 96.7946 97.9959 94.5085C97.9573 92.2225 98.5936 89.9757 99.8252 88.0494C101.057 86.123 102.829 84.6025 104.92 83.6779C107.011 82.7533 109.328 82.4658 111.582 82.8513H111.896C114.865 83.4441 117.486 85.1718 119.201 87.6669C120.916 90.1619 121.591 93.2277 121.081 96.2122C121.072 96.3362 121.053 96.4594 121.026 96.5807Z" fill="#FCC659"/>
<path d="M121.081 96.2668C121.087 96.3713 121.087 96.4761 121.081 96.5807C120.632 98.822 119.533 100.881 117.921 102.502C116.309 104.122 114.255 105.231 112.015 105.69C109.776 106.149 107.452 105.938 105.332 105.084C103.212 104.229 101.391 102.769 100.096 100.885C98.8016 99.0009 98.091 96.7774 98.0531 94.492C98.0152 92.2066 98.6518 89.9607 99.8832 88.035C101.115 86.1094 102.886 84.5894 104.977 83.665C107.067 82.7406 109.384 82.4528 111.637 82.8376H111.951C114.924 83.4424 117.543 85.1854 119.248 87.6943C120.954 90.2033 121.612 93.2797 121.081 96.2668Z" fill="#F49B51"/>
<path d="M107.392 102.94L107.816 100.784C106.666 100.582 105.594 100.068 104.718 99.2963L105.468 97.9316C106.285 98.6805 107.298 99.1822 108.389 99.3782C108.688 99.4709 109.003 99.5013 109.314 99.4675C109.626 99.4337 109.927 99.3364 110.2 99.1816C110.472 99.0269 110.71 98.818 110.898 98.5678C111.087 98.3176 111.222 98.0314 111.296 97.7269C111.487 96.5532 110.777 95.6797 109.317 94.7653C107.283 93.5371 106.11 92.3225 106.423 90.4664C106.586 89.5988 107.067 88.823 107.771 88.2905C108.475 87.758 109.352 87.5071 110.231 87.5868L110.545 85.4441L111.91 85.6761L111.555 87.7369C112.528 87.9122 113.44 88.3352 114.203 88.9652L113.425 90.3299C112.693 89.7089 111.806 89.2985 110.859 89.1426C109.221 88.8696 108.43 89.7431 108.293 90.6029C108.102 91.7083 108.798 92.4043 110.518 93.4825C112.565 94.7517 113.479 96.0619 113.165 97.9589C112.982 98.8604 112.476 99.6642 111.742 100.219C111.009 100.775 110.098 101.043 109.18 100.975L108.798 103.186L107.392 102.94Z" fill="#FCC659"/>
<path d="M121.108 93.3186V93.032C120.93 91.3995 120.404 89.824 119.566 88.4116C118.728 86.9992 117.597 85.7826 116.25 84.8435L116.427 84.5842C117.808 85.5416 118.969 86.7835 119.83 88.2264C120.692 89.6694 121.235 91.2801 121.422 92.9502V93.2641L121.108 93.3186Z" fill="#2E4882"/>
<path d="M116.209 84.8709C114.016 83.3499 111.362 82.6404 108.703 82.8647V82.5508C111.423 82.3241 114.139 83.0475 116.386 84.5979L116.209 84.8709Z" fill="#2E4882"/>
<path d="M118.733 101.89L118.501 101.685C119.474 100.534 120.211 99.2031 120.671 97.7681L120.972 97.8636C120.494 99.3381 119.734 100.706 118.733 101.89Z" fill="#2E4882"/>
<path d="M120.699 85.3077C119.756 84.1468 118.632 83.1466 117.369 82.3462L117.56 82.0596C118.825 82.895 119.957 83.9164 120.917 85.0893L120.699 85.3077Z" fill="#2E4882"/>
<path d="M115.608 107.635L115.472 107.335C118.875 105.813 121.549 103.023 122.923 99.5577C124.297 96.0927 124.263 92.2278 122.828 88.7877L123.101 88.6921C124.234 91.3757 124.534 94.3384 123.96 97.1946C123.495 99.472 122.495 101.606 121.043 103.421C119.591 105.237 117.728 106.681 115.608 107.635Z" fill="#2E4882"/>
<path d="M227.832 111.893C227.166 114.458 225.755 116.768 223.777 118.532C221.8 120.296 219.344 121.435 216.72 121.805C214.096 122.175 211.422 121.759 209.033 120.611C206.645 119.462 204.651 117.632 203.301 115.352C201.952 113.071 201.308 110.442 201.451 107.796C201.594 105.15 202.518 102.605 204.105 100.484C205.693 98.3619 207.873 96.7578 210.371 95.8737C212.869 94.9895 215.573 94.8651 218.142 95.5159C219.856 95.9503 221.468 96.7193 222.884 97.7787C224.3 98.8382 225.493 100.167 226.393 101.689C227.294 103.211 227.884 104.896 228.131 106.647C228.378 108.399 228.276 110.181 227.832 111.893Z" fill="#6D92F0"/>
<path d="M214.321 115.469L208.179 109.15L208.848 108.495L214.061 113.858L220.776 99.9514L221.622 100.361L214.321 115.469Z" fill="white"/>
<path d="M100.255 86.4268C101.517 87.071 102.523 88.1248 103.107 89.4156C103.686 88.1219 104.687 87.0632 105.946 86.4131C104.691 85.77 103.691 84.7215 103.107 83.438C102.519 84.7263 101.514 85.7791 100.255 86.4268Z" fill="#FFE6A6"/>
<path d="M111.814 104.796C112.542 105.175 113.122 105.785 113.466 106.53C113.818 105.787 114.402 105.179 115.131 104.796C114.396 104.423 113.809 103.812 113.466 103.063C113.131 103.814 112.547 104.426 111.814 104.796Z" fill="#FFE6A6"/>
</svg>
