<svg width="155" height="125" viewBox="0 0 155 125" fill="none" xmlns="http://www.w3.org/2000/svg">
<g clip-path="url(#clip0_263_1944)">
<path d="M148.86 0.000176645H102.332C100.087 6.6811e-05 97.9084 0.762996 96.1548 2.16355C94.4012 3.5641 93.1769 5.51892 92.6831 7.70667L69.174 111.864C68.9176 113 68.9131 114.178 69.1608 115.316C69.4085 116.454 69.9024 117.524 70.608 118.451C71.3135 119.379 72.2135 120.14 73.245 120.683C74.2765 121.226 75.4143 121.537 76.5789 121.595L124.41 123.949C126.971 124.075 129.491 123.265 131.498 121.672C133.506 120.079 134.865 117.811 135.322 115.29L148.658 41.6504L149.65 41.9335L152.203 27.9759L151.182 27.7209L154.904 7.16528C155.064 6.28481 155.027 5.38004 154.796 4.51545C154.565 3.65087 154.147 2.84778 153.569 2.16343C152.992 1.47908 152.271 0.930339 151.457 0.556315C150.644 0.18229 149.757 -0.00779939 148.861 -0.000402472L148.86 0.000176645Z" fill="#3F3D56"/>
<path d="M108.457 2.24548H103.026C101.466 2.2455 99.9536 2.77831 98.7389 3.75546C97.5241 4.73261 96.6805 6.09534 96.348 7.61742L73.7818 110.925C73.6518 111.519 73.6519 112.135 73.782 112.73C73.9122 113.325 74.1693 113.884 74.5359 114.371C74.9025 114.857 75.3699 115.259 75.9062 115.548C76.4425 115.837 77.0349 116.008 77.6431 116.048L125.319 119.169C126.664 119.257 127.994 118.847 129.056 118.018C130.118 117.189 130.837 115.998 131.076 114.673L150.331 7.89498C150.456 7.20387 150.427 6.49387 150.247 5.81508C150.067 5.13629 149.74 4.50524 149.289 3.96648C148.838 3.42772 148.274 2.99436 147.638 2.69699C147.001 2.39963 146.306 2.2455 145.603 2.24548H140.451C139.953 2.24547 139.468 2.40965 139.072 2.71262C138.676 3.01559 138.391 3.44044 138.262 3.9214C138.147 4.34615 137.896 4.72134 137.546 4.98885C137.197 5.25636 136.768 5.40125 136.328 5.40109H111.869C111.007 5.40106 110.177 5.07606 109.544 4.49103C108.911 3.90601 108.523 3.10406 108.457 2.24548Z" fill="white"/>
<path d="M134.812 74.4659C134.904 74.4691 134.995 74.4389 135.067 74.3808C135.14 74.3227 135.189 74.2407 135.205 74.1495L145.749 16.0289C145.759 15.9736 145.757 15.9169 145.743 15.8625C145.729 15.8081 145.703 15.7573 145.668 15.7137C145.633 15.6704 145.589 15.6353 145.539 15.611C145.488 15.5866 145.434 15.5736 145.378 15.5729L97.4108 15.007H97.4064C97.3193 15.0077 97.2351 15.0379 97.1674 15.0928C97.0998 15.1476 97.0528 15.2237 97.0342 15.3087L84.6052 71.5428C84.593 71.5977 84.5929 71.6546 84.6048 71.7095C84.6166 71.7644 84.6402 71.8162 84.674 71.8611C84.7074 71.9058 84.7503 71.9425 84.7995 71.9687C84.8487 71.9949 84.9031 72.0099 84.9588 72.0128L134.812 74.4659Z" fill="#E6E6E6"/>
<path d="M93.1861 78.2238C93.1425 78.2238 93.1002 78.2386 93.066 78.2657C93.0319 78.2928 93.0079 78.3306 92.998 78.3731L92.5488 80.296C92.5424 80.3232 92.542 80.3514 92.5476 80.3787C92.5532 80.4061 92.5647 80.4319 92.5812 80.4544C92.5978 80.4768 92.619 80.4955 92.6434 80.509C92.6679 80.5225 92.695 80.5306 92.7228 80.5326L118.099 82.3341C118.146 82.3371 118.192 82.3229 118.23 82.2943C118.267 82.2656 118.293 82.2244 118.302 82.1782L118.734 79.9534C118.739 79.9264 118.739 79.8986 118.732 79.8718C118.726 79.8451 118.714 79.82 118.697 79.7983C118.68 79.7766 118.659 79.7587 118.635 79.7459C118.61 79.7331 118.583 79.7256 118.556 79.7239L93.1979 78.2241L93.1861 78.2238Z" fill="#E6E6E6"/>
<path d="M124.016 89.4768C124.062 89.4804 124.108 89.4677 124.145 89.4409C124.182 89.4141 124.209 89.3749 124.22 89.3304L124.77 87.1009C124.776 87.0736 124.777 87.0451 124.772 87.0175C124.766 86.9899 124.755 86.9638 124.738 86.941C124.722 86.9183 124.7 86.8994 124.676 86.8857C124.651 86.8721 124.624 86.864 124.596 86.862L92.189 84.5981C92.145 84.5946 92.1011 84.6064 92.0649 84.6315C92.0286 84.6566 92.0022 84.6935 91.99 84.7359L91.4186 86.6625C91.4104 86.69 91.4085 86.719 91.413 86.7474C91.4175 86.7757 91.4283 86.8028 91.4446 86.8264C91.4608 86.8501 91.4822 86.8699 91.507 86.8843C91.5319 86.8987 91.5597 86.9074 91.5883 86.9097L124.016 89.4768Z" fill="#E6E6E6"/>
<path d="M122.276 96.6231C122.322 96.6268 122.367 96.6141 122.405 96.5873C122.442 96.5604 122.468 96.5213 122.479 96.4767L123.029 94.2473C123.036 94.2199 123.037 94.1915 123.031 94.1639C123.026 94.1362 123.015 94.1101 122.998 94.0874C122.981 94.0646 122.96 94.0458 122.935 94.0321C122.911 94.0185 122.883 94.0103 122.855 94.0084L90.4487 91.7445C90.4047 91.741 90.3609 91.7528 90.3246 91.7779C90.2884 91.803 90.2619 91.8399 90.2497 91.8822L89.6783 93.8088C89.6702 93.8364 89.6683 93.8654 89.6728 93.8937C89.6773 93.9221 89.6881 93.9491 89.7043 93.9728C89.7206 93.9965 89.7419 94.0162 89.7668 94.0306C89.7917 94.045 89.8195 94.0537 89.8481 94.0561L122.276 96.6231Z" fill="#E6E6E6"/>
<path d="M66.0894 121.782C66.0894 123.398 51.2763 123.57 33.0447 124.709C14.8293 125.846 0 123.398 0 121.782C0 120.165 14.8985 116.913 33.0447 118.855C51.2763 120.806 66.0894 120.165 66.0894 121.782Z" fill="#E6E6E6"/>
<path d="M107.351 108.84C107.397 108.845 107.443 108.833 107.481 108.806C107.519 108.779 107.546 108.739 107.557 108.694L108.719 104.049C108.726 104.022 108.727 103.993 108.722 103.966C108.717 103.938 108.705 103.912 108.689 103.89C108.673 103.867 108.652 103.848 108.627 103.834C108.603 103.82 108.576 103.812 108.548 103.809L88.6472 102.138C88.6007 102.134 88.5546 102.148 88.5171 102.175C88.4796 102.203 88.453 102.243 88.4422 102.288L87.4504 106.746C87.4445 106.773 87.4443 106.801 87.4498 106.828C87.4554 106.855 87.4667 106.88 87.4828 106.902C87.499 106.924 87.5197 106.943 87.5435 106.956C87.5674 106.97 87.5938 106.978 87.6212 106.981L107.351 108.84Z" fill="#244AD3"/>
<path d="M26.996 89.9104C27.2466 89.7389 27.4565 89.5146 27.6109 89.2533C27.7653 88.9919 27.8604 88.7 27.8896 88.398C27.9187 88.0959 27.8812 87.7912 27.7797 87.5052C27.6782 87.2193 27.5151 86.959 27.302 86.7428L28.1077 68.7769L24.0054 69.2367L24.2438 86.81C23.9036 87.1915 23.7154 87.6844 23.7148 88.1953C23.7143 88.7062 23.9015 89.1995 24.2409 89.5817C24.5802 89.9639 25.0483 90.2084 25.5561 90.2688C26.064 90.3293 26.5764 90.2015 26.9962 89.9096L26.996 89.9104Z" fill="#A0616A"/>
<path d="M34.48 120.323L36.8149 120.733L39.1226 111.932L36.0633 111.327L34.48 120.323Z" fill="#A0616A"/>
<path d="M40.9375 123.689L33.5994 122.4L34.0978 119.569L38.6007 120.359C39.3527 120.491 40.0213 120.916 40.4595 121.541C40.8978 122.165 41.0697 122.938 40.9375 123.689L40.9375 123.689Z" fill="#2F2E41"/>
<path d="M28.0714 121.49H30.4421L31.5699 112.357H28.071L28.0714 121.49Z" fill="#A0616A"/>
<path d="M35.0134 123.689L27.5627 123.69L27.5626 120.814L32.1346 120.814C32.8981 120.814 33.6303 121.117 34.1702 121.656C34.7101 122.195 35.0134 122.927 35.0134 123.689Z" fill="#2F2E41"/>
<path d="M37.9622 118.216C37.9252 118.216 37.8883 118.214 37.8516 118.21L35.0612 117.98C34.9342 117.966 34.8115 117.925 34.7007 117.861C34.5898 117.798 34.4931 117.712 34.4163 117.61C34.3396 117.508 34.2845 117.391 34.2543 117.267C34.2241 117.142 34.2195 117.013 34.2408 116.887L37.0108 103.236L35.2705 94.0664C35.2563 93.9919 35.2156 93.925 35.1559 93.8781C35.0963 93.8312 35.0216 93.8075 34.9458 93.8113C34.8699 93.815 34.798 93.8461 34.7433 93.8986C34.6886 93.9512 34.6547 94.0218 34.648 94.0973L32.0837 117.396C32.0598 117.641 31.9414 117.868 31.7534 118.028C31.5655 118.188 31.3227 118.268 31.0763 118.253L28.4474 118.155C28.2171 118.139 28.0007 118.039 27.8391 117.874C27.6775 117.709 27.5819 117.491 27.5703 117.261L27.7803 89.1063L41.4092 87.4047L42.3613 102.092L42.3575 102.107L38.8786 117.496C38.8285 117.701 38.711 117.884 38.5449 118.014C38.3787 118.145 38.1736 118.216 37.9622 118.216Z" fill="#2F2E41"/>
<path d="M32.2747 57.1354C34.8977 57.1354 37.0241 55.0115 37.0241 52.3915C37.0241 49.7716 34.8977 47.6477 32.2747 47.6477C29.6517 47.6477 27.5254 49.7716 27.5254 52.3915C27.5254 55.0115 29.6517 57.1354 32.2747 57.1354Z" fill="#A0616A"/>
<path d="M36.7496 91.2489C36.0068 91.2533 35.2783 91.0451 34.6502 90.649C32.3491 89.2128 29.7365 89.7835 28.3837 90.2517C28.2494 90.2986 28.1063 90.3147 27.9649 90.2986C27.8236 90.2825 27.6877 90.2347 27.5675 90.1588C27.4486 90.0842 27.3482 89.9838 27.2737 89.865C27.1993 89.7462 27.1527 89.6121 27.1374 89.4727L24.6776 67.5266C24.2653 63.8495 26.4829 60.3924 29.9504 59.3064C30.0807 59.2655 30.2132 59.2269 30.3477 59.1905C31.4268 58.8983 32.5568 58.8458 33.6584 59.0368C34.7599 59.2278 35.8062 59.6575 36.7235 60.2958C37.658 60.9411 38.4395 61.7832 39.013 62.7627C39.5865 63.7422 39.9381 64.8354 40.0431 65.9652L42.1143 88.0585C42.1284 88.2015 42.109 88.3459 42.0578 88.4802C42.0066 88.6145 41.9248 88.7351 41.819 88.8324C41.0927 89.503 38.9854 91.2487 36.7496 91.2489Z" fill="#244AD3"/>
<path d="M29.2583 72.2328L23.7086 71.6232C23.5506 71.6058 23.3983 71.5547 23.262 71.4733C23.1256 71.3918 23.0084 71.282 22.9184 71.1512C22.8284 71.0204 22.7677 70.8718 22.7403 70.7155C22.713 70.5592 22.7198 70.3988 22.7601 70.2453L24.1728 64.867C24.2145 64.4639 24.3357 64.073 24.5294 63.7169C24.7232 63.3609 24.9857 63.0467 25.3017 62.7926C25.6177 62.5384 25.9811 62.3494 26.3707 62.2364C26.7603 62.1233 27.1685 62.0885 27.5717 62.134C27.9748 62.1795 28.365 62.3043 28.7196 62.5013C29.0741 62.6982 29.3861 62.9634 29.6375 63.2815C29.8888 63.5997 30.0746 63.9644 30.184 64.3546C30.2933 64.7449 30.3242 65.1529 30.2748 65.5552L30.4846 71.0936C30.4906 71.2522 30.4623 71.4102 30.4017 71.5569C30.341 71.7036 30.2494 71.8356 30.1331 71.9437C30.0168 72.0518 29.8785 72.1337 29.7277 72.1836C29.5768 72.2336 29.417 72.2505 29.259 72.2331L29.2583 72.2328Z" fill="#244AD3"/>
<path d="M42.0917 89.141C42.3196 88.9406 42.5008 88.6927 42.6225 88.4147C42.7441 88.1368 42.8033 87.8356 42.7958 87.5323C42.7883 87.2291 42.7144 86.9312 42.5791 86.6596C42.4439 86.388 42.2507 86.1493 42.0131 85.9603L40.6454 68.0283L36.6255 68.9322L38.9846 86.3953C38.6929 86.8149 38.5655 87.3269 38.6266 87.8341C38.6876 88.3413 38.933 88.8085 39.316 89.1471C39.699 89.4857 40.1931 89.6721 40.7046 89.6709C41.2161 89.6698 41.7093 89.4813 42.0909 89.141H42.0917Z" fill="#A0616A"/>
<path d="M35.0845 71.1056C34.9682 70.9975 34.8765 70.8656 34.8159 70.719C34.7552 70.5723 34.7269 70.4143 34.733 70.2557L34.9428 64.7173C34.8975 64.3171 34.9317 63.9119 35.0432 63.5249C35.1547 63.1379 35.3415 62.7766 35.5928 62.4616C35.8441 62.1467 36.1551 61.8843 36.5079 61.6894C36.8608 61.4945 37.2486 61.3709 37.6493 61.3258C38.0499 61.2806 38.4556 61.3147 38.8431 61.4261C39.2305 61.5375 39.5922 61.724 39.9075 61.975C40.2228 62.2261 40.4856 62.5367 40.6807 62.8891C40.8758 63.2415 40.9995 63.6289 41.0447 64.0291L42.4575 69.4074C42.4978 69.5609 42.5046 69.7213 42.4772 69.8776C42.4499 70.034 42.3892 70.1826 42.2992 70.3133C42.2092 70.4441 42.092 70.5539 41.9556 70.6354C41.8193 70.7168 41.667 70.768 41.509 70.7853L35.9593 71.3949C35.8013 71.4123 35.6415 71.3954 35.4906 71.3454C35.3398 71.2954 35.2015 71.2134 35.0853 71.1052L35.0845 71.1056Z" fill="#244AD3"/>
<path d="M31.9922 57.314C31.9075 57.314 31.8232 57.3042 31.7408 57.2848L31.7166 57.279C27.541 56.6417 26.6181 54.225 26.4156 53.2162C26.206 52.1717 26.4446 51.1635 26.9841 50.7718C26.69 49.8447 26.7372 49.0217 27.1247 48.3262C27.8015 47.1132 29.2674 46.7038 29.4645 46.6528C30.6359 45.7896 32.0374 46.3658 32.2925 46.4826C34.5586 45.6453 35.4251 46.3422 35.5813 46.4979C36.5942 46.6796 37.2116 47.0704 37.4166 47.6598C37.8016 48.7668 36.5841 50.1437 36.5321 50.2018L36.505 50.232L34.6912 50.3183C34.5191 50.3265 34.3507 50.3707 34.1968 50.4482C34.0429 50.5256 33.907 50.6345 33.798 50.7677C33.6889 50.901 33.6091 51.0556 33.5638 51.2217C33.5184 51.3877 33.5085 51.5614 33.5347 51.7315C33.5838 51.951 33.6457 52.1674 33.7203 52.3795C34.0297 53.3464 34.2618 54.1725 33.9628 54.4866C33.895 54.5473 33.8114 54.5878 33.7216 54.6033C33.6319 54.6189 33.5396 54.6088 33.4552 54.5744C33.1715 54.4987 32.9791 54.5146 32.8832 54.6218C32.7343 54.7877 32.7798 55.208 33.0112 55.8048C33.0839 55.9935 33.1034 56.1985 33.0678 56.3976C33.0321 56.5967 32.9426 56.7822 32.809 56.9341C32.7083 57.0526 32.5832 57.148 32.4421 57.2136C32.301 57.2792 32.1474 57.3134 31.9918 57.314H31.9922Z" fill="#2F2E41"/>
</g>
<defs>
<clipPath id="clip0_263_1944">
<rect width="155" height="125" fill="white"/>
</clipPath>
</defs>
</svg>
